%TF.GenerationSoftware,KiCad,Pcbnew,9.0.7*%
%TF.CreationDate,2026-03-04T19:17:42+07:00*%
%TF.ProjectId,H-Bridge Module,482d4272-6964-4676-9520-4d6f64756c65,rev?*%
%TF.SameCoordinates,Original*%
%TF.FileFunction,Plated,1,2,PTH,Drill*%
%TF.FilePolarity,Positive*%
%FSLAX46Y46*%
G04 Gerber Fmt 4.6, Leading zero omitted, Abs format (unit mm)*
G04 Created by KiCad (PCBNEW 9.0.7) date 2026-03-04 19:17:42*
%MOMM*%
%LPD*%
G01*
G04 APERTURE LIST*
%TA.AperFunction,ViaDrill*%
%ADD10C,0.600000*%
%TD*%
%TA.AperFunction,ComponentDrill*%
%ADD11C,0.800000*%
%TD*%
%TA.AperFunction,ComponentDrill*%
%ADD12C,0.900000*%
%TD*%
%TA.AperFunction,ComponentDrill*%
%ADD13C,1.000000*%
%TD*%
%TA.AperFunction,ComponentDrill*%
%ADD14C,1.060000*%
%TD*%
%TA.AperFunction,ComponentDrill*%
%ADD15C,1.080000*%
%TD*%
%TA.AperFunction,ComponentDrill*%
%ADD16C,1.100000*%
%TD*%
%TA.AperFunction,ComponentDrill*%
%ADD17C,1.300000*%
%TD*%
G04 APERTURE END LIST*
D10*
X163250000Y-99500000D03*
X173000000Y-107500000D03*
D11*
%TO.C,R1*%
X136670000Y-106750000D03*
%TO.C,C1*%
X140250000Y-89500000D03*
X140250000Y-93000000D03*
%TO.C,C2*%
X140250000Y-98750000D03*
X140250000Y-102250000D03*
%TO.C,R1*%
X146830000Y-106750000D03*
%TO.C,SW1*%
X147000000Y-89670000D03*
X147000000Y-92210000D03*
X147000000Y-94750000D03*
D12*
%TO.C,D9*%
X147485000Y-101500000D03*
X150025000Y-101500000D03*
D13*
%TO.C,J9*%
X122190000Y-82750000D03*
%TO.C,J10*%
X122190000Y-111000000D03*
%TO.C,J1*%
X122250000Y-115250000D03*
%TO.C,J9*%
X124730000Y-82750000D03*
%TO.C,J10*%
X124730000Y-111000000D03*
%TO.C,J1*%
X124790000Y-115250000D03*
%TO.C,J6*%
X125450000Y-100847349D03*
X125450000Y-103387349D03*
X125450000Y-105927349D03*
%TO.C,J9*%
X127270000Y-82750000D03*
%TO.C,J10*%
X127270000Y-111000000D03*
%TO.C,J1*%
X127330000Y-115250000D03*
%TO.C,J9*%
X129810000Y-82750000D03*
%TO.C,J10*%
X129810000Y-111000000D03*
%TO.C,J1*%
X129870000Y-115250000D03*
%TO.C,J9*%
X132350000Y-82750000D03*
%TO.C,J10*%
X132350000Y-111000000D03*
%TO.C,J1*%
X132410000Y-115250000D03*
%TO.C,J9*%
X134890000Y-82750000D03*
%TO.C,J10*%
X134890000Y-111000000D03*
%TO.C,J1*%
X134950000Y-115250000D03*
%TO.C,J9*%
X137430000Y-82750000D03*
%TO.C,J10*%
X137430000Y-111000000D03*
%TO.C,J1*%
X137490000Y-115250000D03*
%TO.C,J9*%
X139970000Y-82750000D03*
%TO.C,J10*%
X139970000Y-111000000D03*
%TO.C,J1*%
X140030000Y-115250000D03*
%TO.C,J9*%
X142510000Y-82750000D03*
%TO.C,J10*%
X142510000Y-111000000D03*
%TO.C,J1*%
X142570000Y-115250000D03*
%TO.C,J9*%
X145050000Y-82750000D03*
%TO.C,J10*%
X145050000Y-111000000D03*
%TO.C,J1*%
X145110000Y-115250000D03*
%TO.C,J9*%
X147590000Y-82750000D03*
%TO.C,J10*%
X147590000Y-111000000D03*
%TO.C,J1*%
X147650000Y-115250000D03*
%TO.C,J9*%
X150130000Y-82750000D03*
%TO.C,J10*%
X150130000Y-111000000D03*
%TO.C,J1*%
X150190000Y-115250000D03*
%TO.C,J9*%
X152670000Y-82750000D03*
%TO.C,J10*%
X152670000Y-111000000D03*
%TO.C,J1*%
X152730000Y-115250000D03*
%TO.C,J9*%
X155210000Y-82750000D03*
%TO.C,J10*%
X155210000Y-111000000D03*
%TO.C,J1*%
X155270000Y-115250000D03*
%TO.C,J9*%
X157750000Y-82750000D03*
%TO.C,J10*%
X157750000Y-111000000D03*
%TO.C,J1*%
X157810000Y-115250000D03*
D14*
%TO.C,D1*%
X154820000Y-88250000D03*
%TO.C,D2*%
X154820000Y-91750000D03*
%TO.C,D4*%
X154820000Y-102250000D03*
%TO.C,D3*%
X154820000Y-105750000D03*
%TO.C,D8*%
X162675000Y-110672500D03*
%TO.C,D7*%
X162675000Y-114422500D03*
%TO.C,D5*%
X162820000Y-79250000D03*
%TO.C,D6*%
X162820000Y-83000000D03*
%TO.C,D1*%
X165180000Y-88250000D03*
%TO.C,D2*%
X165180000Y-91750000D03*
%TO.C,D4*%
X165180000Y-102250000D03*
%TO.C,D3*%
X165180000Y-105750000D03*
%TO.C,D8*%
X173035000Y-110672500D03*
%TO.C,D7*%
X173035000Y-114422500D03*
%TO.C,D5*%
X173180000Y-79250000D03*
%TO.C,D6*%
X173180000Y-83000000D03*
D15*
%TO.C,U1*%
X169920000Y-87820000D03*
X169920000Y-90360000D03*
X169920000Y-92900000D03*
X169920000Y-95440000D03*
X169920000Y-97980000D03*
X169920000Y-100520000D03*
X169920000Y-103060000D03*
X169920000Y-105600000D03*
X175000000Y-89090000D03*
X175000000Y-91630000D03*
X175000000Y-94170000D03*
X175000000Y-96710000D03*
X175000000Y-99250000D03*
X175000000Y-101790000D03*
X175000000Y-104330000D03*
D16*
%TO.C,U2*%
X131000000Y-100517349D03*
X131000000Y-103057349D03*
X131000000Y-105597349D03*
D17*
%TO.C,J8*%
X128827500Y-89052349D03*
X128827500Y-94132349D03*
%TO.C,J2*%
X178920000Y-78750000D03*
%TO.C,J4*%
X178955000Y-114922500D03*
%TO.C,J2*%
X184000000Y-78750000D03*
%TO.C,J4*%
X184035000Y-114922500D03*
M02*
