%TF.GenerationSoftware,KiCad,Pcbnew,9.0.7*%
%TF.CreationDate,2026-03-04T19:17:40+07:00*%
%TF.ProjectId,H-Bridge Module,482d4272-6964-4676-9520-4d6f64756c65,rev?*%
%TF.SameCoordinates,Original*%
%TF.FileFunction,Legend,Top*%
%TF.FilePolarity,Positive*%
%FSLAX46Y46*%
G04 Gerber Fmt 4.6, Leading zero omitted, Abs format (unit mm)*
G04 Created by KiCad (PCBNEW 9.0.7) date 2026-03-04 19:17:40*
%MOMM*%
%LPD*%
G01*
G04 APERTURE LIST*
%ADD10C,0.200000*%
%ADD11C,0.300000*%
%ADD12C,0.150000*%
%ADD13C,0.120000*%
%ADD14C,0.127000*%
%ADD15C,0.000000*%
G04 APERTURE END LIST*
D10*
X147132780Y-117369673D02*
X148132780Y-117369673D01*
X148132780Y-117369673D02*
X148132780Y-117607768D01*
X148132780Y-117607768D02*
X148085161Y-117750625D01*
X148085161Y-117750625D02*
X147989923Y-117845863D01*
X147989923Y-117845863D02*
X147894685Y-117893482D01*
X147894685Y-117893482D02*
X147704209Y-117941101D01*
X147704209Y-117941101D02*
X147561352Y-117941101D01*
X147561352Y-117941101D02*
X147370876Y-117893482D01*
X147370876Y-117893482D02*
X147275638Y-117845863D01*
X147275638Y-117845863D02*
X147180400Y-117750625D01*
X147180400Y-117750625D02*
X147132780Y-117607768D01*
X147132780Y-117607768D02*
X147132780Y-117369673D01*
X147799447Y-118798244D02*
X147132780Y-118798244D01*
X148180400Y-118560149D02*
X147466114Y-118322054D01*
X147466114Y-118322054D02*
X147466114Y-118941101D01*
X127632780Y-117226816D02*
X127632780Y-117798244D01*
X126632780Y-117512530D02*
X127632780Y-117512530D01*
X127632780Y-118036340D02*
X126632780Y-118703006D01*
X127632780Y-118703006D02*
X126632780Y-118036340D01*
X126632780Y-119083959D02*
X127632780Y-119083959D01*
X127632780Y-119083959D02*
X127632780Y-119322054D01*
X127632780Y-119322054D02*
X127585161Y-119464911D01*
X127585161Y-119464911D02*
X127489923Y-119560149D01*
X127489923Y-119560149D02*
X127394685Y-119607768D01*
X127394685Y-119607768D02*
X127204209Y-119655387D01*
X127204209Y-119655387D02*
X127061352Y-119655387D01*
X127061352Y-119655387D02*
X126870876Y-119607768D01*
X126870876Y-119607768D02*
X126775638Y-119560149D01*
X126775638Y-119560149D02*
X126680400Y-119464911D01*
X126680400Y-119464911D02*
X126632780Y-119322054D01*
X126632780Y-119322054D02*
X126632780Y-119083959D01*
X152132780Y-117369673D02*
X153132780Y-117369673D01*
X153132780Y-117369673D02*
X153132780Y-117607768D01*
X153132780Y-117607768D02*
X153085161Y-117750625D01*
X153085161Y-117750625D02*
X152989923Y-117845863D01*
X152989923Y-117845863D02*
X152894685Y-117893482D01*
X152894685Y-117893482D02*
X152704209Y-117941101D01*
X152704209Y-117941101D02*
X152561352Y-117941101D01*
X152561352Y-117941101D02*
X152370876Y-117893482D01*
X152370876Y-117893482D02*
X152275638Y-117845863D01*
X152275638Y-117845863D02*
X152180400Y-117750625D01*
X152180400Y-117750625D02*
X152132780Y-117607768D01*
X152132780Y-117607768D02*
X152132780Y-117369673D01*
X152132780Y-118893482D02*
X152132780Y-118322054D01*
X152132780Y-118607768D02*
X153132780Y-118607768D01*
X153132780Y-118607768D02*
X152989923Y-118512530D01*
X152989923Y-118512530D02*
X152894685Y-118417292D01*
X152894685Y-118417292D02*
X152847066Y-118322054D01*
X153132780Y-119798244D02*
X153132780Y-119322054D01*
X153132780Y-119322054D02*
X152656590Y-119274435D01*
X152656590Y-119274435D02*
X152704209Y-119322054D01*
X152704209Y-119322054D02*
X152751828Y-119417292D01*
X152751828Y-119417292D02*
X152751828Y-119655387D01*
X152751828Y-119655387D02*
X152704209Y-119750625D01*
X152704209Y-119750625D02*
X152656590Y-119798244D01*
X152656590Y-119798244D02*
X152561352Y-119845863D01*
X152561352Y-119845863D02*
X152323257Y-119845863D01*
X152323257Y-119845863D02*
X152228019Y-119798244D01*
X152228019Y-119798244D02*
X152180400Y-119750625D01*
X152180400Y-119750625D02*
X152132780Y-119655387D01*
X152132780Y-119655387D02*
X152132780Y-119417292D01*
X152132780Y-119417292D02*
X152180400Y-119322054D01*
X152180400Y-119322054D02*
X152228019Y-119274435D01*
X124382780Y-117369673D02*
X125382780Y-117369673D01*
X125382780Y-117369673D02*
X125382780Y-117607768D01*
X125382780Y-117607768D02*
X125335161Y-117750625D01*
X125335161Y-117750625D02*
X125239923Y-117845863D01*
X125239923Y-117845863D02*
X125144685Y-117893482D01*
X125144685Y-117893482D02*
X124954209Y-117941101D01*
X124954209Y-117941101D02*
X124811352Y-117941101D01*
X124811352Y-117941101D02*
X124620876Y-117893482D01*
X124620876Y-117893482D02*
X124525638Y-117845863D01*
X124525638Y-117845863D02*
X124430400Y-117750625D01*
X124430400Y-117750625D02*
X124382780Y-117607768D01*
X124382780Y-117607768D02*
X124382780Y-117369673D01*
X125287542Y-118322054D02*
X125335161Y-118369673D01*
X125335161Y-118369673D02*
X125382780Y-118464911D01*
X125382780Y-118464911D02*
X125382780Y-118703006D01*
X125382780Y-118703006D02*
X125335161Y-118798244D01*
X125335161Y-118798244D02*
X125287542Y-118845863D01*
X125287542Y-118845863D02*
X125192304Y-118893482D01*
X125192304Y-118893482D02*
X125097066Y-118893482D01*
X125097066Y-118893482D02*
X124954209Y-118845863D01*
X124954209Y-118845863D02*
X124382780Y-118274435D01*
X124382780Y-118274435D02*
X124382780Y-118893482D01*
X125287542Y-119274435D02*
X125335161Y-119322054D01*
X125335161Y-119322054D02*
X125382780Y-119417292D01*
X125382780Y-119417292D02*
X125382780Y-119655387D01*
X125382780Y-119655387D02*
X125335161Y-119750625D01*
X125335161Y-119750625D02*
X125287542Y-119798244D01*
X125287542Y-119798244D02*
X125192304Y-119845863D01*
X125192304Y-119845863D02*
X125097066Y-119845863D01*
X125097066Y-119845863D02*
X124954209Y-119798244D01*
X124954209Y-119798244D02*
X124382780Y-119226816D01*
X124382780Y-119226816D02*
X124382780Y-119845863D01*
X129132780Y-117941101D02*
X129608971Y-117607768D01*
X129132780Y-117369673D02*
X130132780Y-117369673D01*
X130132780Y-117369673D02*
X130132780Y-117750625D01*
X130132780Y-117750625D02*
X130085161Y-117845863D01*
X130085161Y-117845863D02*
X130037542Y-117893482D01*
X130037542Y-117893482D02*
X129942304Y-117941101D01*
X129942304Y-117941101D02*
X129799447Y-117941101D01*
X129799447Y-117941101D02*
X129704209Y-117893482D01*
X129704209Y-117893482D02*
X129656590Y-117845863D01*
X129656590Y-117845863D02*
X129608971Y-117750625D01*
X129608971Y-117750625D02*
X129608971Y-117369673D01*
X130132780Y-118274435D02*
X129132780Y-118941101D01*
X130132780Y-118941101D02*
X129132780Y-118274435D01*
X129132780Y-119322054D02*
X130132780Y-119322054D01*
X130132780Y-119322054D02*
X130132780Y-119560149D01*
X130132780Y-119560149D02*
X130085161Y-119703006D01*
X130085161Y-119703006D02*
X129989923Y-119798244D01*
X129989923Y-119798244D02*
X129894685Y-119845863D01*
X129894685Y-119845863D02*
X129704209Y-119893482D01*
X129704209Y-119893482D02*
X129561352Y-119893482D01*
X129561352Y-119893482D02*
X129370876Y-119845863D01*
X129370876Y-119845863D02*
X129275638Y-119798244D01*
X129275638Y-119798244D02*
X129180400Y-119703006D01*
X129180400Y-119703006D02*
X129132780Y-119560149D01*
X129132780Y-119560149D02*
X129132780Y-119322054D01*
X137132780Y-117369673D02*
X138132780Y-117369673D01*
X138132780Y-117369673D02*
X138132780Y-117607768D01*
X138132780Y-117607768D02*
X138085161Y-117750625D01*
X138085161Y-117750625D02*
X137989923Y-117845863D01*
X137989923Y-117845863D02*
X137894685Y-117893482D01*
X137894685Y-117893482D02*
X137704209Y-117941101D01*
X137704209Y-117941101D02*
X137561352Y-117941101D01*
X137561352Y-117941101D02*
X137370876Y-117893482D01*
X137370876Y-117893482D02*
X137275638Y-117845863D01*
X137275638Y-117845863D02*
X137180400Y-117750625D01*
X137180400Y-117750625D02*
X137132780Y-117607768D01*
X137132780Y-117607768D02*
X137132780Y-117369673D01*
X137132780Y-118893482D02*
X137132780Y-118322054D01*
X137132780Y-118607768D02*
X138132780Y-118607768D01*
X138132780Y-118607768D02*
X137989923Y-118512530D01*
X137989923Y-118512530D02*
X137894685Y-118417292D01*
X137894685Y-118417292D02*
X137847066Y-118322054D01*
X137704209Y-119464911D02*
X137751828Y-119369673D01*
X137751828Y-119369673D02*
X137799447Y-119322054D01*
X137799447Y-119322054D02*
X137894685Y-119274435D01*
X137894685Y-119274435D02*
X137942304Y-119274435D01*
X137942304Y-119274435D02*
X138037542Y-119322054D01*
X138037542Y-119322054D02*
X138085161Y-119369673D01*
X138085161Y-119369673D02*
X138132780Y-119464911D01*
X138132780Y-119464911D02*
X138132780Y-119655387D01*
X138132780Y-119655387D02*
X138085161Y-119750625D01*
X138085161Y-119750625D02*
X138037542Y-119798244D01*
X138037542Y-119798244D02*
X137942304Y-119845863D01*
X137942304Y-119845863D02*
X137894685Y-119845863D01*
X137894685Y-119845863D02*
X137799447Y-119798244D01*
X137799447Y-119798244D02*
X137751828Y-119750625D01*
X137751828Y-119750625D02*
X137704209Y-119655387D01*
X137704209Y-119655387D02*
X137704209Y-119464911D01*
X137704209Y-119464911D02*
X137656590Y-119369673D01*
X137656590Y-119369673D02*
X137608971Y-119322054D01*
X137608971Y-119322054D02*
X137513733Y-119274435D01*
X137513733Y-119274435D02*
X137323257Y-119274435D01*
X137323257Y-119274435D02*
X137228019Y-119322054D01*
X137228019Y-119322054D02*
X137180400Y-119369673D01*
X137180400Y-119369673D02*
X137132780Y-119464911D01*
X137132780Y-119464911D02*
X137132780Y-119655387D01*
X137132780Y-119655387D02*
X137180400Y-119750625D01*
X137180400Y-119750625D02*
X137228019Y-119798244D01*
X137228019Y-119798244D02*
X137323257Y-119845863D01*
X137323257Y-119845863D02*
X137513733Y-119845863D01*
X137513733Y-119845863D02*
X137608971Y-119798244D01*
X137608971Y-119798244D02*
X137656590Y-119750625D01*
X137656590Y-119750625D02*
X137704209Y-119655387D01*
X149632780Y-117369673D02*
X150632780Y-117369673D01*
X150632780Y-117369673D02*
X150632780Y-117607768D01*
X150632780Y-117607768D02*
X150585161Y-117750625D01*
X150585161Y-117750625D02*
X150489923Y-117845863D01*
X150489923Y-117845863D02*
X150394685Y-117893482D01*
X150394685Y-117893482D02*
X150204209Y-117941101D01*
X150204209Y-117941101D02*
X150061352Y-117941101D01*
X150061352Y-117941101D02*
X149870876Y-117893482D01*
X149870876Y-117893482D02*
X149775638Y-117845863D01*
X149775638Y-117845863D02*
X149680400Y-117750625D01*
X149680400Y-117750625D02*
X149632780Y-117607768D01*
X149632780Y-117607768D02*
X149632780Y-117369673D01*
X150537542Y-118322054D02*
X150585161Y-118369673D01*
X150585161Y-118369673D02*
X150632780Y-118464911D01*
X150632780Y-118464911D02*
X150632780Y-118703006D01*
X150632780Y-118703006D02*
X150585161Y-118798244D01*
X150585161Y-118798244D02*
X150537542Y-118845863D01*
X150537542Y-118845863D02*
X150442304Y-118893482D01*
X150442304Y-118893482D02*
X150347066Y-118893482D01*
X150347066Y-118893482D02*
X150204209Y-118845863D01*
X150204209Y-118845863D02*
X149632780Y-118274435D01*
X149632780Y-118274435D02*
X149632780Y-118893482D01*
X158132780Y-117274435D02*
X158132780Y-117893482D01*
X158132780Y-117893482D02*
X157751828Y-117560149D01*
X157751828Y-117560149D02*
X157751828Y-117703006D01*
X157751828Y-117703006D02*
X157704209Y-117798244D01*
X157704209Y-117798244D02*
X157656590Y-117845863D01*
X157656590Y-117845863D02*
X157561352Y-117893482D01*
X157561352Y-117893482D02*
X157323257Y-117893482D01*
X157323257Y-117893482D02*
X157228019Y-117845863D01*
X157228019Y-117845863D02*
X157180400Y-117798244D01*
X157180400Y-117798244D02*
X157132780Y-117703006D01*
X157132780Y-117703006D02*
X157132780Y-117417292D01*
X157132780Y-117417292D02*
X157180400Y-117322054D01*
X157180400Y-117322054D02*
X157228019Y-117274435D01*
X158132780Y-118179197D02*
X157132780Y-118512530D01*
X157132780Y-118512530D02*
X158132780Y-118845863D01*
X158132780Y-119083959D02*
X158132780Y-119703006D01*
X158132780Y-119703006D02*
X157751828Y-119369673D01*
X157751828Y-119369673D02*
X157751828Y-119512530D01*
X157751828Y-119512530D02*
X157704209Y-119607768D01*
X157704209Y-119607768D02*
X157656590Y-119655387D01*
X157656590Y-119655387D02*
X157561352Y-119703006D01*
X157561352Y-119703006D02*
X157323257Y-119703006D01*
X157323257Y-119703006D02*
X157228019Y-119655387D01*
X157228019Y-119655387D02*
X157180400Y-119607768D01*
X157180400Y-119607768D02*
X157132780Y-119512530D01*
X157132780Y-119512530D02*
X157132780Y-119226816D01*
X157132780Y-119226816D02*
X157180400Y-119131578D01*
X157180400Y-119131578D02*
X157228019Y-119083959D01*
X142882780Y-117226816D02*
X142882780Y-117798244D01*
X141882780Y-117512530D02*
X142882780Y-117512530D01*
X142882780Y-118036340D02*
X141882780Y-118703006D01*
X142882780Y-118703006D02*
X141882780Y-118036340D01*
X142787542Y-119036340D02*
X142835161Y-119083959D01*
X142835161Y-119083959D02*
X142882780Y-119179197D01*
X142882780Y-119179197D02*
X142882780Y-119417292D01*
X142882780Y-119417292D02*
X142835161Y-119512530D01*
X142835161Y-119512530D02*
X142787542Y-119560149D01*
X142787542Y-119560149D02*
X142692304Y-119607768D01*
X142692304Y-119607768D02*
X142597066Y-119607768D01*
X142597066Y-119607768D02*
X142454209Y-119560149D01*
X142454209Y-119560149D02*
X141882780Y-118988721D01*
X141882780Y-118988721D02*
X141882780Y-119607768D01*
X155585161Y-117893482D02*
X155632780Y-117798244D01*
X155632780Y-117798244D02*
X155632780Y-117655387D01*
X155632780Y-117655387D02*
X155585161Y-117512530D01*
X155585161Y-117512530D02*
X155489923Y-117417292D01*
X155489923Y-117417292D02*
X155394685Y-117369673D01*
X155394685Y-117369673D02*
X155204209Y-117322054D01*
X155204209Y-117322054D02*
X155061352Y-117322054D01*
X155061352Y-117322054D02*
X154870876Y-117369673D01*
X154870876Y-117369673D02*
X154775638Y-117417292D01*
X154775638Y-117417292D02*
X154680400Y-117512530D01*
X154680400Y-117512530D02*
X154632780Y-117655387D01*
X154632780Y-117655387D02*
X154632780Y-117750625D01*
X154632780Y-117750625D02*
X154680400Y-117893482D01*
X154680400Y-117893482D02*
X154728019Y-117941101D01*
X154728019Y-117941101D02*
X155061352Y-117941101D01*
X155061352Y-117941101D02*
X155061352Y-117750625D01*
X154632780Y-118369673D02*
X155632780Y-118369673D01*
X155632780Y-118369673D02*
X154632780Y-118941101D01*
X154632780Y-118941101D02*
X155632780Y-118941101D01*
X154632780Y-119417292D02*
X155632780Y-119417292D01*
X155632780Y-119417292D02*
X155632780Y-119655387D01*
X155632780Y-119655387D02*
X155585161Y-119798244D01*
X155585161Y-119798244D02*
X155489923Y-119893482D01*
X155489923Y-119893482D02*
X155394685Y-119941101D01*
X155394685Y-119941101D02*
X155204209Y-119988720D01*
X155204209Y-119988720D02*
X155061352Y-119988720D01*
X155061352Y-119988720D02*
X154870876Y-119941101D01*
X154870876Y-119941101D02*
X154775638Y-119893482D01*
X154775638Y-119893482D02*
X154680400Y-119798244D01*
X154680400Y-119798244D02*
X154632780Y-119655387D01*
X154632780Y-119655387D02*
X154632780Y-119417292D01*
X131632780Y-117369673D02*
X132632780Y-117369673D01*
X132632780Y-117369673D02*
X132632780Y-117607768D01*
X132632780Y-117607768D02*
X132585161Y-117750625D01*
X132585161Y-117750625D02*
X132489923Y-117845863D01*
X132489923Y-117845863D02*
X132394685Y-117893482D01*
X132394685Y-117893482D02*
X132204209Y-117941101D01*
X132204209Y-117941101D02*
X132061352Y-117941101D01*
X132061352Y-117941101D02*
X131870876Y-117893482D01*
X131870876Y-117893482D02*
X131775638Y-117845863D01*
X131775638Y-117845863D02*
X131680400Y-117750625D01*
X131680400Y-117750625D02*
X131632780Y-117607768D01*
X131632780Y-117607768D02*
X131632780Y-117369673D01*
X132537542Y-118322054D02*
X132585161Y-118369673D01*
X132585161Y-118369673D02*
X132632780Y-118464911D01*
X132632780Y-118464911D02*
X132632780Y-118703006D01*
X132632780Y-118703006D02*
X132585161Y-118798244D01*
X132585161Y-118798244D02*
X132537542Y-118845863D01*
X132537542Y-118845863D02*
X132442304Y-118893482D01*
X132442304Y-118893482D02*
X132347066Y-118893482D01*
X132347066Y-118893482D02*
X132204209Y-118845863D01*
X132204209Y-118845863D02*
X131632780Y-118274435D01*
X131632780Y-118274435D02*
X131632780Y-118893482D01*
X131632780Y-119845863D02*
X131632780Y-119274435D01*
X131632780Y-119560149D02*
X132632780Y-119560149D01*
X132632780Y-119560149D02*
X132489923Y-119464911D01*
X132489923Y-119464911D02*
X132394685Y-119369673D01*
X132394685Y-119369673D02*
X132347066Y-119274435D01*
X134382780Y-117369673D02*
X135382780Y-117369673D01*
X135382780Y-117369673D02*
X135382780Y-117607768D01*
X135382780Y-117607768D02*
X135335161Y-117750625D01*
X135335161Y-117750625D02*
X135239923Y-117845863D01*
X135239923Y-117845863D02*
X135144685Y-117893482D01*
X135144685Y-117893482D02*
X134954209Y-117941101D01*
X134954209Y-117941101D02*
X134811352Y-117941101D01*
X134811352Y-117941101D02*
X134620876Y-117893482D01*
X134620876Y-117893482D02*
X134525638Y-117845863D01*
X134525638Y-117845863D02*
X134430400Y-117750625D01*
X134430400Y-117750625D02*
X134382780Y-117607768D01*
X134382780Y-117607768D02*
X134382780Y-117369673D01*
X134382780Y-118893482D02*
X134382780Y-118322054D01*
X134382780Y-118607768D02*
X135382780Y-118607768D01*
X135382780Y-118607768D02*
X135239923Y-118512530D01*
X135239923Y-118512530D02*
X135144685Y-118417292D01*
X135144685Y-118417292D02*
X135097066Y-118322054D01*
X134382780Y-119369673D02*
X134382780Y-119560149D01*
X134382780Y-119560149D02*
X134430400Y-119655387D01*
X134430400Y-119655387D02*
X134478019Y-119703006D01*
X134478019Y-119703006D02*
X134620876Y-119798244D01*
X134620876Y-119798244D02*
X134811352Y-119845863D01*
X134811352Y-119845863D02*
X135192304Y-119845863D01*
X135192304Y-119845863D02*
X135287542Y-119798244D01*
X135287542Y-119798244D02*
X135335161Y-119750625D01*
X135335161Y-119750625D02*
X135382780Y-119655387D01*
X135382780Y-119655387D02*
X135382780Y-119464911D01*
X135382780Y-119464911D02*
X135335161Y-119369673D01*
X135335161Y-119369673D02*
X135287542Y-119322054D01*
X135287542Y-119322054D02*
X135192304Y-119274435D01*
X135192304Y-119274435D02*
X134954209Y-119274435D01*
X134954209Y-119274435D02*
X134858971Y-119322054D01*
X134858971Y-119322054D02*
X134811352Y-119369673D01*
X134811352Y-119369673D02*
X134763733Y-119464911D01*
X134763733Y-119464911D02*
X134763733Y-119655387D01*
X134763733Y-119655387D02*
X134811352Y-119750625D01*
X134811352Y-119750625D02*
X134858971Y-119798244D01*
X134858971Y-119798244D02*
X134954209Y-119845863D01*
X122882780Y-117369673D02*
X123882780Y-117369673D01*
X123882780Y-117369673D02*
X123882780Y-117607768D01*
X123882780Y-117607768D02*
X123835161Y-117750625D01*
X123835161Y-117750625D02*
X123739923Y-117845863D01*
X123739923Y-117845863D02*
X123644685Y-117893482D01*
X123644685Y-117893482D02*
X123454209Y-117941101D01*
X123454209Y-117941101D02*
X123311352Y-117941101D01*
X123311352Y-117941101D02*
X123120876Y-117893482D01*
X123120876Y-117893482D02*
X123025638Y-117845863D01*
X123025638Y-117845863D02*
X122930400Y-117750625D01*
X122930400Y-117750625D02*
X122882780Y-117607768D01*
X122882780Y-117607768D02*
X122882780Y-117369673D01*
X123787542Y-118322054D02*
X123835161Y-118369673D01*
X123835161Y-118369673D02*
X123882780Y-118464911D01*
X123882780Y-118464911D02*
X123882780Y-118703006D01*
X123882780Y-118703006D02*
X123835161Y-118798244D01*
X123835161Y-118798244D02*
X123787542Y-118845863D01*
X123787542Y-118845863D02*
X123692304Y-118893482D01*
X123692304Y-118893482D02*
X123597066Y-118893482D01*
X123597066Y-118893482D02*
X123454209Y-118845863D01*
X123454209Y-118845863D02*
X122882780Y-118274435D01*
X122882780Y-118274435D02*
X122882780Y-118893482D01*
X123882780Y-119226816D02*
X123882780Y-119845863D01*
X123882780Y-119845863D02*
X123501828Y-119512530D01*
X123501828Y-119512530D02*
X123501828Y-119655387D01*
X123501828Y-119655387D02*
X123454209Y-119750625D01*
X123454209Y-119750625D02*
X123406590Y-119798244D01*
X123406590Y-119798244D02*
X123311352Y-119845863D01*
X123311352Y-119845863D02*
X123073257Y-119845863D01*
X123073257Y-119845863D02*
X122978019Y-119798244D01*
X122978019Y-119798244D02*
X122930400Y-119750625D01*
X122930400Y-119750625D02*
X122882780Y-119655387D01*
X122882780Y-119655387D02*
X122882780Y-119369673D01*
X122882780Y-119369673D02*
X122930400Y-119274435D01*
X122930400Y-119274435D02*
X122978019Y-119226816D01*
X144632780Y-117941101D02*
X145108971Y-117607768D01*
X144632780Y-117369673D02*
X145632780Y-117369673D01*
X145632780Y-117369673D02*
X145632780Y-117750625D01*
X145632780Y-117750625D02*
X145585161Y-117845863D01*
X145585161Y-117845863D02*
X145537542Y-117893482D01*
X145537542Y-117893482D02*
X145442304Y-117941101D01*
X145442304Y-117941101D02*
X145299447Y-117941101D01*
X145299447Y-117941101D02*
X145204209Y-117893482D01*
X145204209Y-117893482D02*
X145156590Y-117845863D01*
X145156590Y-117845863D02*
X145108971Y-117750625D01*
X145108971Y-117750625D02*
X145108971Y-117369673D01*
X145632780Y-118274435D02*
X144632780Y-118941101D01*
X145632780Y-118941101D02*
X144632780Y-118274435D01*
X145537542Y-119274435D02*
X145585161Y-119322054D01*
X145585161Y-119322054D02*
X145632780Y-119417292D01*
X145632780Y-119417292D02*
X145632780Y-119655387D01*
X145632780Y-119655387D02*
X145585161Y-119750625D01*
X145585161Y-119750625D02*
X145537542Y-119798244D01*
X145537542Y-119798244D02*
X145442304Y-119845863D01*
X145442304Y-119845863D02*
X145347066Y-119845863D01*
X145347066Y-119845863D02*
X145204209Y-119798244D01*
X145204209Y-119798244D02*
X144632780Y-119226816D01*
X144632780Y-119226816D02*
X144632780Y-119845863D01*
X139435780Y-117369673D02*
X140435780Y-117369673D01*
X140435780Y-117369673D02*
X140435780Y-117607768D01*
X140435780Y-117607768D02*
X140388161Y-117750625D01*
X140388161Y-117750625D02*
X140292923Y-117845863D01*
X140292923Y-117845863D02*
X140197685Y-117893482D01*
X140197685Y-117893482D02*
X140007209Y-117941101D01*
X140007209Y-117941101D02*
X139864352Y-117941101D01*
X139864352Y-117941101D02*
X139673876Y-117893482D01*
X139673876Y-117893482D02*
X139578638Y-117845863D01*
X139578638Y-117845863D02*
X139483400Y-117750625D01*
X139483400Y-117750625D02*
X139435780Y-117607768D01*
X139435780Y-117607768D02*
X139435780Y-117369673D01*
X140435780Y-118845863D02*
X140435780Y-118369673D01*
X140435780Y-118369673D02*
X139959590Y-118322054D01*
X139959590Y-118322054D02*
X140007209Y-118369673D01*
X140007209Y-118369673D02*
X140054828Y-118464911D01*
X140054828Y-118464911D02*
X140054828Y-118703006D01*
X140054828Y-118703006D02*
X140007209Y-118798244D01*
X140007209Y-118798244D02*
X139959590Y-118845863D01*
X139959590Y-118845863D02*
X139864352Y-118893482D01*
X139864352Y-118893482D02*
X139626257Y-118893482D01*
X139626257Y-118893482D02*
X139531019Y-118845863D01*
X139531019Y-118845863D02*
X139483400Y-118798244D01*
X139483400Y-118798244D02*
X139435780Y-118703006D01*
X139435780Y-118703006D02*
X139435780Y-118464911D01*
X139435780Y-118464911D02*
X139483400Y-118369673D01*
X139483400Y-118369673D02*
X139531019Y-118322054D01*
X120926816Y-100334568D02*
X121260149Y-101334568D01*
X121260149Y-101334568D02*
X121593482Y-100334568D01*
X122498244Y-101239329D02*
X122450625Y-101286949D01*
X122450625Y-101286949D02*
X122307768Y-101334568D01*
X122307768Y-101334568D02*
X122212530Y-101334568D01*
X122212530Y-101334568D02*
X122069673Y-101286949D01*
X122069673Y-101286949D02*
X121974435Y-101191710D01*
X121974435Y-101191710D02*
X121926816Y-101096472D01*
X121926816Y-101096472D02*
X121879197Y-100905996D01*
X121879197Y-100905996D02*
X121879197Y-100763139D01*
X121879197Y-100763139D02*
X121926816Y-100572663D01*
X121926816Y-100572663D02*
X121974435Y-100477425D01*
X121974435Y-100477425D02*
X122069673Y-100382187D01*
X122069673Y-100382187D02*
X122212530Y-100334568D01*
X122212530Y-100334568D02*
X122307768Y-100334568D01*
X122307768Y-100334568D02*
X122450625Y-100382187D01*
X122450625Y-100382187D02*
X122498244Y-100429806D01*
X123498244Y-101239329D02*
X123450625Y-101286949D01*
X123450625Y-101286949D02*
X123307768Y-101334568D01*
X123307768Y-101334568D02*
X123212530Y-101334568D01*
X123212530Y-101334568D02*
X123069673Y-101286949D01*
X123069673Y-101286949D02*
X122974435Y-101191710D01*
X122974435Y-101191710D02*
X122926816Y-101096472D01*
X122926816Y-101096472D02*
X122879197Y-100905996D01*
X122879197Y-100905996D02*
X122879197Y-100763139D01*
X122879197Y-100763139D02*
X122926816Y-100572663D01*
X122926816Y-100572663D02*
X122974435Y-100477425D01*
X122974435Y-100477425D02*
X123069673Y-100382187D01*
X123069673Y-100382187D02*
X123212530Y-100334568D01*
X123212530Y-100334568D02*
X123307768Y-100334568D01*
X123307768Y-100334568D02*
X123450625Y-100382187D01*
X123450625Y-100382187D02*
X123498244Y-100429806D01*
X122164838Y-90033866D02*
X122117219Y-90129104D01*
X122117219Y-90129104D02*
X122117219Y-90271961D01*
X122117219Y-90271961D02*
X122164838Y-90414818D01*
X122164838Y-90414818D02*
X122260076Y-90510056D01*
X122260076Y-90510056D02*
X122355314Y-90557675D01*
X122355314Y-90557675D02*
X122545790Y-90605294D01*
X122545790Y-90605294D02*
X122688647Y-90605294D01*
X122688647Y-90605294D02*
X122879123Y-90557675D01*
X122879123Y-90557675D02*
X122974361Y-90510056D01*
X122974361Y-90510056D02*
X123069600Y-90414818D01*
X123069600Y-90414818D02*
X123117219Y-90271961D01*
X123117219Y-90271961D02*
X123117219Y-90176723D01*
X123117219Y-90176723D02*
X123069600Y-90033866D01*
X123069600Y-90033866D02*
X123021980Y-89986247D01*
X123021980Y-89986247D02*
X122688647Y-89986247D01*
X122688647Y-89986247D02*
X122688647Y-90176723D01*
X123117219Y-89557675D02*
X122117219Y-89557675D01*
X122117219Y-89557675D02*
X123117219Y-88986247D01*
X123117219Y-88986247D02*
X122117219Y-88986247D01*
X123117219Y-88510056D02*
X122117219Y-88510056D01*
X122117219Y-88510056D02*
X122117219Y-88271961D01*
X122117219Y-88271961D02*
X122164838Y-88129104D01*
X122164838Y-88129104D02*
X122260076Y-88033866D01*
X122260076Y-88033866D02*
X122355314Y-87986247D01*
X122355314Y-87986247D02*
X122545790Y-87938628D01*
X122545790Y-87938628D02*
X122688647Y-87938628D01*
X122688647Y-87938628D02*
X122879123Y-87986247D01*
X122879123Y-87986247D02*
X122974361Y-88033866D01*
X122974361Y-88033866D02*
X123069600Y-88129104D01*
X123069600Y-88129104D02*
X123117219Y-88271961D01*
X123117219Y-88271961D02*
X123117219Y-88510056D01*
X121393482Y-102882187D02*
X121298244Y-102834568D01*
X121298244Y-102834568D02*
X121155387Y-102834568D01*
X121155387Y-102834568D02*
X121012530Y-102882187D01*
X121012530Y-102882187D02*
X120917292Y-102977425D01*
X120917292Y-102977425D02*
X120869673Y-103072663D01*
X120869673Y-103072663D02*
X120822054Y-103263139D01*
X120822054Y-103263139D02*
X120822054Y-103405996D01*
X120822054Y-103405996D02*
X120869673Y-103596472D01*
X120869673Y-103596472D02*
X120917292Y-103691710D01*
X120917292Y-103691710D02*
X121012530Y-103786949D01*
X121012530Y-103786949D02*
X121155387Y-103834568D01*
X121155387Y-103834568D02*
X121250625Y-103834568D01*
X121250625Y-103834568D02*
X121393482Y-103786949D01*
X121393482Y-103786949D02*
X121441101Y-103739329D01*
X121441101Y-103739329D02*
X121441101Y-103405996D01*
X121441101Y-103405996D02*
X121250625Y-103405996D01*
X121869673Y-103834568D02*
X121869673Y-102834568D01*
X121869673Y-102834568D02*
X122441101Y-103834568D01*
X122441101Y-103834568D02*
X122441101Y-102834568D01*
X122917292Y-103834568D02*
X122917292Y-102834568D01*
X122917292Y-102834568D02*
X123155387Y-102834568D01*
X123155387Y-102834568D02*
X123298244Y-102882187D01*
X123298244Y-102882187D02*
X123393482Y-102977425D01*
X123393482Y-102977425D02*
X123441101Y-103072663D01*
X123441101Y-103072663D02*
X123488720Y-103263139D01*
X123488720Y-103263139D02*
X123488720Y-103405996D01*
X123488720Y-103405996D02*
X123441101Y-103596472D01*
X123441101Y-103596472D02*
X123393482Y-103691710D01*
X123393482Y-103691710D02*
X123298244Y-103786949D01*
X123298244Y-103786949D02*
X123155387Y-103834568D01*
X123155387Y-103834568D02*
X122917292Y-103834568D01*
X121367219Y-93307675D02*
X120367219Y-93307675D01*
X120367219Y-93307675D02*
X120367219Y-93069580D01*
X120367219Y-93069580D02*
X120414838Y-92926723D01*
X120414838Y-92926723D02*
X120510076Y-92831485D01*
X120510076Y-92831485D02*
X120605314Y-92783866D01*
X120605314Y-92783866D02*
X120795790Y-92736247D01*
X120795790Y-92736247D02*
X120938647Y-92736247D01*
X120938647Y-92736247D02*
X121129123Y-92783866D01*
X121129123Y-92783866D02*
X121224361Y-92831485D01*
X121224361Y-92831485D02*
X121319600Y-92926723D01*
X121319600Y-92926723D02*
X121367219Y-93069580D01*
X121367219Y-93069580D02*
X121367219Y-93307675D01*
X121271980Y-91736247D02*
X121319600Y-91783866D01*
X121319600Y-91783866D02*
X121367219Y-91926723D01*
X121367219Y-91926723D02*
X121367219Y-92021961D01*
X121367219Y-92021961D02*
X121319600Y-92164818D01*
X121319600Y-92164818D02*
X121224361Y-92260056D01*
X121224361Y-92260056D02*
X121129123Y-92307675D01*
X121129123Y-92307675D02*
X120938647Y-92355294D01*
X120938647Y-92355294D02*
X120795790Y-92355294D01*
X120795790Y-92355294D02*
X120605314Y-92307675D01*
X120605314Y-92307675D02*
X120510076Y-92260056D01*
X120510076Y-92260056D02*
X120414838Y-92164818D01*
X120414838Y-92164818D02*
X120367219Y-92021961D01*
X120367219Y-92021961D02*
X120367219Y-91926723D01*
X120367219Y-91926723D02*
X120414838Y-91783866D01*
X120414838Y-91783866D02*
X120462457Y-91736247D01*
X121367219Y-90545770D02*
X120367219Y-90545770D01*
X121367219Y-90069580D02*
X120367219Y-90069580D01*
X120367219Y-90069580D02*
X121367219Y-89498152D01*
X121367219Y-89498152D02*
X120367219Y-89498152D01*
X167441101Y-75271980D02*
X167393482Y-75319600D01*
X167393482Y-75319600D02*
X167250625Y-75367219D01*
X167250625Y-75367219D02*
X167155387Y-75367219D01*
X167155387Y-75367219D02*
X167012530Y-75319600D01*
X167012530Y-75319600D02*
X166917292Y-75224361D01*
X166917292Y-75224361D02*
X166869673Y-75129123D01*
X166869673Y-75129123D02*
X166822054Y-74938647D01*
X166822054Y-74938647D02*
X166822054Y-74795790D01*
X166822054Y-74795790D02*
X166869673Y-74605314D01*
X166869673Y-74605314D02*
X166917292Y-74510076D01*
X166917292Y-74510076D02*
X167012530Y-74414838D01*
X167012530Y-74414838D02*
X167155387Y-74367219D01*
X167155387Y-74367219D02*
X167250625Y-74367219D01*
X167250625Y-74367219D02*
X167393482Y-74414838D01*
X167393482Y-74414838D02*
X167441101Y-74462457D01*
X167869673Y-75367219D02*
X167869673Y-74367219D01*
X167869673Y-74843409D02*
X168441101Y-74843409D01*
X168441101Y-75367219D02*
X168441101Y-74367219D01*
X168869673Y-75081504D02*
X169345863Y-75081504D01*
X168774435Y-75367219D02*
X169107768Y-74367219D01*
X169107768Y-74367219D02*
X169441101Y-75367219D01*
X169774435Y-75367219D02*
X169774435Y-74367219D01*
X169774435Y-74367219D02*
X170345863Y-75367219D01*
X170345863Y-75367219D02*
X170345863Y-74367219D01*
X170822054Y-75367219D02*
X170822054Y-74367219D01*
X170822054Y-74367219D02*
X171393482Y-75367219D01*
X171393482Y-75367219D02*
X171393482Y-74367219D01*
X171869673Y-74843409D02*
X172203006Y-74843409D01*
X172345863Y-75367219D02*
X171869673Y-75367219D01*
X171869673Y-75367219D02*
X171869673Y-74367219D01*
X171869673Y-74367219D02*
X172345863Y-74367219D01*
X173250625Y-75367219D02*
X172774435Y-75367219D01*
X172774435Y-75367219D02*
X172774435Y-74367219D01*
X174298245Y-75081504D02*
X174774435Y-75081504D01*
X174203007Y-75367219D02*
X174536340Y-74367219D01*
X174536340Y-74367219D02*
X174869673Y-75367219D01*
X167691101Y-118444480D02*
X167643482Y-118492100D01*
X167643482Y-118492100D02*
X167500625Y-118539719D01*
X167500625Y-118539719D02*
X167405387Y-118539719D01*
X167405387Y-118539719D02*
X167262530Y-118492100D01*
X167262530Y-118492100D02*
X167167292Y-118396861D01*
X167167292Y-118396861D02*
X167119673Y-118301623D01*
X167119673Y-118301623D02*
X167072054Y-118111147D01*
X167072054Y-118111147D02*
X167072054Y-117968290D01*
X167072054Y-117968290D02*
X167119673Y-117777814D01*
X167119673Y-117777814D02*
X167167292Y-117682576D01*
X167167292Y-117682576D02*
X167262530Y-117587338D01*
X167262530Y-117587338D02*
X167405387Y-117539719D01*
X167405387Y-117539719D02*
X167500625Y-117539719D01*
X167500625Y-117539719D02*
X167643482Y-117587338D01*
X167643482Y-117587338D02*
X167691101Y-117634957D01*
X168119673Y-118539719D02*
X168119673Y-117539719D01*
X168119673Y-118015909D02*
X168691101Y-118015909D01*
X168691101Y-118539719D02*
X168691101Y-117539719D01*
X169119673Y-118254004D02*
X169595863Y-118254004D01*
X169024435Y-118539719D02*
X169357768Y-117539719D01*
X169357768Y-117539719D02*
X169691101Y-118539719D01*
X170024435Y-118539719D02*
X170024435Y-117539719D01*
X170024435Y-117539719D02*
X170595863Y-118539719D01*
X170595863Y-118539719D02*
X170595863Y-117539719D01*
X171072054Y-118539719D02*
X171072054Y-117539719D01*
X171072054Y-117539719D02*
X171643482Y-118539719D01*
X171643482Y-118539719D02*
X171643482Y-117539719D01*
X172119673Y-118015909D02*
X172453006Y-118015909D01*
X172595863Y-118539719D02*
X172119673Y-118539719D01*
X172119673Y-118539719D02*
X172119673Y-117539719D01*
X172119673Y-117539719D02*
X172595863Y-117539719D01*
X173500625Y-118539719D02*
X173024435Y-118539719D01*
X173024435Y-118539719D02*
X173024435Y-117539719D01*
X174929197Y-118015909D02*
X175072054Y-118063528D01*
X175072054Y-118063528D02*
X175119673Y-118111147D01*
X175119673Y-118111147D02*
X175167292Y-118206385D01*
X175167292Y-118206385D02*
X175167292Y-118349242D01*
X175167292Y-118349242D02*
X175119673Y-118444480D01*
X175119673Y-118444480D02*
X175072054Y-118492100D01*
X175072054Y-118492100D02*
X174976816Y-118539719D01*
X174976816Y-118539719D02*
X174595864Y-118539719D01*
X174595864Y-118539719D02*
X174595864Y-117539719D01*
X174595864Y-117539719D02*
X174929197Y-117539719D01*
X174929197Y-117539719D02*
X175024435Y-117587338D01*
X175024435Y-117587338D02*
X175072054Y-117634957D01*
X175072054Y-117634957D02*
X175119673Y-117730195D01*
X175119673Y-117730195D02*
X175119673Y-117825433D01*
X175119673Y-117825433D02*
X175072054Y-117920671D01*
X175072054Y-117920671D02*
X175024435Y-117968290D01*
X175024435Y-117968290D02*
X174929197Y-118015909D01*
X174929197Y-118015909D02*
X174595864Y-118015909D01*
D11*
X150054510Y-78050828D02*
X150054510Y-76550828D01*
X151625939Y-77907971D02*
X151554511Y-77979400D01*
X151554511Y-77979400D02*
X151340225Y-78050828D01*
X151340225Y-78050828D02*
X151197368Y-78050828D01*
X151197368Y-78050828D02*
X150983082Y-77979400D01*
X150983082Y-77979400D02*
X150840225Y-77836542D01*
X150840225Y-77836542D02*
X150768796Y-77693685D01*
X150768796Y-77693685D02*
X150697368Y-77407971D01*
X150697368Y-77407971D02*
X150697368Y-77193685D01*
X150697368Y-77193685D02*
X150768796Y-76907971D01*
X150768796Y-76907971D02*
X150840225Y-76765114D01*
X150840225Y-76765114D02*
X150983082Y-76622257D01*
X150983082Y-76622257D02*
X151197368Y-76550828D01*
X151197368Y-76550828D02*
X151340225Y-76550828D01*
X151340225Y-76550828D02*
X151554511Y-76622257D01*
X151554511Y-76622257D02*
X151625939Y-76693685D01*
X152197368Y-76693685D02*
X152268796Y-76622257D01*
X152268796Y-76622257D02*
X152411654Y-76550828D01*
X152411654Y-76550828D02*
X152768796Y-76550828D01*
X152768796Y-76550828D02*
X152911654Y-76622257D01*
X152911654Y-76622257D02*
X152983082Y-76693685D01*
X152983082Y-76693685D02*
X153054511Y-76836542D01*
X153054511Y-76836542D02*
X153054511Y-76979400D01*
X153054511Y-76979400D02*
X152983082Y-77193685D01*
X152983082Y-77193685D02*
X152125939Y-78050828D01*
X152125939Y-78050828D02*
X153054511Y-78050828D01*
X153983082Y-76550828D02*
X154125939Y-76550828D01*
X154125939Y-76550828D02*
X154268796Y-76622257D01*
X154268796Y-76622257D02*
X154340225Y-76693685D01*
X154340225Y-76693685D02*
X154411653Y-76836542D01*
X154411653Y-76836542D02*
X154483082Y-77122257D01*
X154483082Y-77122257D02*
X154483082Y-77479400D01*
X154483082Y-77479400D02*
X154411653Y-77765114D01*
X154411653Y-77765114D02*
X154340225Y-77907971D01*
X154340225Y-77907971D02*
X154268796Y-77979400D01*
X154268796Y-77979400D02*
X154125939Y-78050828D01*
X154125939Y-78050828D02*
X153983082Y-78050828D01*
X153983082Y-78050828D02*
X153840225Y-77979400D01*
X153840225Y-77979400D02*
X153768796Y-77907971D01*
X153768796Y-77907971D02*
X153697367Y-77765114D01*
X153697367Y-77765114D02*
X153625939Y-77479400D01*
X153625939Y-77479400D02*
X153625939Y-77122257D01*
X153625939Y-77122257D02*
X153697367Y-76836542D01*
X153697367Y-76836542D02*
X153768796Y-76693685D01*
X153768796Y-76693685D02*
X153840225Y-76622257D01*
X153840225Y-76622257D02*
X153983082Y-76550828D01*
X155411653Y-76550828D02*
X155554510Y-76550828D01*
X155554510Y-76550828D02*
X155697367Y-76622257D01*
X155697367Y-76622257D02*
X155768796Y-76693685D01*
X155768796Y-76693685D02*
X155840224Y-76836542D01*
X155840224Y-76836542D02*
X155911653Y-77122257D01*
X155911653Y-77122257D02*
X155911653Y-77479400D01*
X155911653Y-77479400D02*
X155840224Y-77765114D01*
X155840224Y-77765114D02*
X155768796Y-77907971D01*
X155768796Y-77907971D02*
X155697367Y-77979400D01*
X155697367Y-77979400D02*
X155554510Y-78050828D01*
X155554510Y-78050828D02*
X155411653Y-78050828D01*
X155411653Y-78050828D02*
X155268796Y-77979400D01*
X155268796Y-77979400D02*
X155197367Y-77907971D01*
X155197367Y-77907971D02*
X155125938Y-77765114D01*
X155125938Y-77765114D02*
X155054510Y-77479400D01*
X155054510Y-77479400D02*
X155054510Y-77122257D01*
X155054510Y-77122257D02*
X155125938Y-76836542D01*
X155125938Y-76836542D02*
X155197367Y-76693685D01*
X155197367Y-76693685D02*
X155268796Y-76622257D01*
X155268796Y-76622257D02*
X155411653Y-76550828D01*
X157268795Y-76550828D02*
X156554509Y-76550828D01*
X156554509Y-76550828D02*
X156483081Y-77265114D01*
X156483081Y-77265114D02*
X156554509Y-77193685D01*
X156554509Y-77193685D02*
X156697367Y-77122257D01*
X156697367Y-77122257D02*
X157054509Y-77122257D01*
X157054509Y-77122257D02*
X157197367Y-77193685D01*
X157197367Y-77193685D02*
X157268795Y-77265114D01*
X157268795Y-77265114D02*
X157340224Y-77407971D01*
X157340224Y-77407971D02*
X157340224Y-77765114D01*
X157340224Y-77765114D02*
X157268795Y-77907971D01*
X157268795Y-77907971D02*
X157197367Y-77979400D01*
X157197367Y-77979400D02*
X157054509Y-78050828D01*
X157054509Y-78050828D02*
X156697367Y-78050828D01*
X156697367Y-78050828D02*
X156554509Y-77979400D01*
X156554509Y-77979400D02*
X156483081Y-77907971D01*
D10*
X122117219Y-95200532D02*
X123117219Y-94867199D01*
X123117219Y-94867199D02*
X122117219Y-94533866D01*
X123021980Y-93629104D02*
X123069600Y-93676723D01*
X123069600Y-93676723D02*
X123117219Y-93819580D01*
X123117219Y-93819580D02*
X123117219Y-93914818D01*
X123117219Y-93914818D02*
X123069600Y-94057675D01*
X123069600Y-94057675D02*
X122974361Y-94152913D01*
X122974361Y-94152913D02*
X122879123Y-94200532D01*
X122879123Y-94200532D02*
X122688647Y-94248151D01*
X122688647Y-94248151D02*
X122545790Y-94248151D01*
X122545790Y-94248151D02*
X122355314Y-94200532D01*
X122355314Y-94200532D02*
X122260076Y-94152913D01*
X122260076Y-94152913D02*
X122164838Y-94057675D01*
X122164838Y-94057675D02*
X122117219Y-93914818D01*
X122117219Y-93914818D02*
X122117219Y-93819580D01*
X122117219Y-93819580D02*
X122164838Y-93676723D01*
X122164838Y-93676723D02*
X122212457Y-93629104D01*
X123021980Y-92629104D02*
X123069600Y-92676723D01*
X123069600Y-92676723D02*
X123117219Y-92819580D01*
X123117219Y-92819580D02*
X123117219Y-92914818D01*
X123117219Y-92914818D02*
X123069600Y-93057675D01*
X123069600Y-93057675D02*
X122974361Y-93152913D01*
X122974361Y-93152913D02*
X122879123Y-93200532D01*
X122879123Y-93200532D02*
X122688647Y-93248151D01*
X122688647Y-93248151D02*
X122545790Y-93248151D01*
X122545790Y-93248151D02*
X122355314Y-93200532D01*
X122355314Y-93200532D02*
X122260076Y-93152913D01*
X122260076Y-93152913D02*
X122164838Y-93057675D01*
X122164838Y-93057675D02*
X122117219Y-92914818D01*
X122117219Y-92914818D02*
X122117219Y-92819580D01*
X122117219Y-92819580D02*
X122164838Y-92676723D01*
X122164838Y-92676723D02*
X122212457Y-92629104D01*
X122295863Y-105334568D02*
X121819673Y-105334568D01*
X121819673Y-105334568D02*
X121772054Y-105810758D01*
X121772054Y-105810758D02*
X121819673Y-105763139D01*
X121819673Y-105763139D02*
X121914911Y-105715520D01*
X121914911Y-105715520D02*
X122153006Y-105715520D01*
X122153006Y-105715520D02*
X122248244Y-105763139D01*
X122248244Y-105763139D02*
X122295863Y-105810758D01*
X122295863Y-105810758D02*
X122343482Y-105905996D01*
X122343482Y-105905996D02*
X122343482Y-106144091D01*
X122343482Y-106144091D02*
X122295863Y-106239329D01*
X122295863Y-106239329D02*
X122248244Y-106286949D01*
X122248244Y-106286949D02*
X122153006Y-106334568D01*
X122153006Y-106334568D02*
X121914911Y-106334568D01*
X121914911Y-106334568D02*
X121819673Y-106286949D01*
X121819673Y-106286949D02*
X121772054Y-106239329D01*
X122629197Y-105334568D02*
X122962530Y-106334568D01*
X122962530Y-106334568D02*
X123295863Y-105334568D01*
D12*
X159644819Y-115583333D02*
X160359104Y-115583333D01*
X160359104Y-115583333D02*
X160501961Y-115630952D01*
X160501961Y-115630952D02*
X160597200Y-115726190D01*
X160597200Y-115726190D02*
X160644819Y-115869047D01*
X160644819Y-115869047D02*
X160644819Y-115964285D01*
X160644819Y-114583333D02*
X160644819Y-115154761D01*
X160644819Y-114869047D02*
X159644819Y-114869047D01*
X159644819Y-114869047D02*
X159787676Y-114964285D01*
X159787676Y-114964285D02*
X159882914Y-115059523D01*
X159882914Y-115059523D02*
X159930533Y-115154761D01*
X181161666Y-110704819D02*
X181161666Y-111419104D01*
X181161666Y-111419104D02*
X181114047Y-111561961D01*
X181114047Y-111561961D02*
X181018809Y-111657200D01*
X181018809Y-111657200D02*
X180875952Y-111704819D01*
X180875952Y-111704819D02*
X180780714Y-111704819D01*
X182066428Y-111038152D02*
X182066428Y-111704819D01*
X181828333Y-110657200D02*
X181590238Y-111371485D01*
X181590238Y-111371485D02*
X182209285Y-111371485D01*
X159261905Y-92204819D02*
X159261905Y-91204819D01*
X159261905Y-91204819D02*
X159500000Y-91204819D01*
X159500000Y-91204819D02*
X159642857Y-91252438D01*
X159642857Y-91252438D02*
X159738095Y-91347676D01*
X159738095Y-91347676D02*
X159785714Y-91442914D01*
X159785714Y-91442914D02*
X159833333Y-91633390D01*
X159833333Y-91633390D02*
X159833333Y-91776247D01*
X159833333Y-91776247D02*
X159785714Y-91966723D01*
X159785714Y-91966723D02*
X159738095Y-92061961D01*
X159738095Y-92061961D02*
X159642857Y-92157200D01*
X159642857Y-92157200D02*
X159500000Y-92204819D01*
X159500000Y-92204819D02*
X159261905Y-92204819D01*
X160214286Y-91300057D02*
X160261905Y-91252438D01*
X160261905Y-91252438D02*
X160357143Y-91204819D01*
X160357143Y-91204819D02*
X160595238Y-91204819D01*
X160595238Y-91204819D02*
X160690476Y-91252438D01*
X160690476Y-91252438D02*
X160738095Y-91300057D01*
X160738095Y-91300057D02*
X160785714Y-91395295D01*
X160785714Y-91395295D02*
X160785714Y-91490533D01*
X160785714Y-91490533D02*
X160738095Y-91633390D01*
X160738095Y-91633390D02*
X160166667Y-92204819D01*
X160166667Y-92204819D02*
X160785714Y-92204819D01*
X159261905Y-106204819D02*
X159261905Y-105204819D01*
X159261905Y-105204819D02*
X159500000Y-105204819D01*
X159500000Y-105204819D02*
X159642857Y-105252438D01*
X159642857Y-105252438D02*
X159738095Y-105347676D01*
X159738095Y-105347676D02*
X159785714Y-105442914D01*
X159785714Y-105442914D02*
X159833333Y-105633390D01*
X159833333Y-105633390D02*
X159833333Y-105776247D01*
X159833333Y-105776247D02*
X159785714Y-105966723D01*
X159785714Y-105966723D02*
X159738095Y-106061961D01*
X159738095Y-106061961D02*
X159642857Y-106157200D01*
X159642857Y-106157200D02*
X159500000Y-106204819D01*
X159500000Y-106204819D02*
X159261905Y-106204819D01*
X160166667Y-105204819D02*
X160785714Y-105204819D01*
X160785714Y-105204819D02*
X160452381Y-105585771D01*
X160452381Y-105585771D02*
X160595238Y-105585771D01*
X160595238Y-105585771D02*
X160690476Y-105633390D01*
X160690476Y-105633390D02*
X160738095Y-105681009D01*
X160738095Y-105681009D02*
X160785714Y-105776247D01*
X160785714Y-105776247D02*
X160785714Y-106014342D01*
X160785714Y-106014342D02*
X160738095Y-106109580D01*
X160738095Y-106109580D02*
X160690476Y-106157200D01*
X160690476Y-106157200D02*
X160595238Y-106204819D01*
X160595238Y-106204819D02*
X160309524Y-106204819D01*
X160309524Y-106204819D02*
X160214286Y-106157200D01*
X160214286Y-106157200D02*
X160166667Y-106109580D01*
X159261905Y-102704819D02*
X159261905Y-101704819D01*
X159261905Y-101704819D02*
X159500000Y-101704819D01*
X159500000Y-101704819D02*
X159642857Y-101752438D01*
X159642857Y-101752438D02*
X159738095Y-101847676D01*
X159738095Y-101847676D02*
X159785714Y-101942914D01*
X159785714Y-101942914D02*
X159833333Y-102133390D01*
X159833333Y-102133390D02*
X159833333Y-102276247D01*
X159833333Y-102276247D02*
X159785714Y-102466723D01*
X159785714Y-102466723D02*
X159738095Y-102561961D01*
X159738095Y-102561961D02*
X159642857Y-102657200D01*
X159642857Y-102657200D02*
X159500000Y-102704819D01*
X159500000Y-102704819D02*
X159261905Y-102704819D01*
X160690476Y-102038152D02*
X160690476Y-102704819D01*
X160452381Y-101657200D02*
X160214286Y-102371485D01*
X160214286Y-102371485D02*
X160833333Y-102371485D01*
X177488095Y-87164819D02*
X177488095Y-87974342D01*
X177488095Y-87974342D02*
X177535714Y-88069580D01*
X177535714Y-88069580D02*
X177583333Y-88117200D01*
X177583333Y-88117200D02*
X177678571Y-88164819D01*
X177678571Y-88164819D02*
X177869047Y-88164819D01*
X177869047Y-88164819D02*
X177964285Y-88117200D01*
X177964285Y-88117200D02*
X178011904Y-88069580D01*
X178011904Y-88069580D02*
X178059523Y-87974342D01*
X178059523Y-87974342D02*
X178059523Y-87164819D01*
X179059523Y-88164819D02*
X178488095Y-88164819D01*
X178773809Y-88164819D02*
X178773809Y-87164819D01*
X178773809Y-87164819D02*
X178678571Y-87307676D01*
X178678571Y-87307676D02*
X178583333Y-87402914D01*
X178583333Y-87402914D02*
X178488095Y-87450533D01*
X167261905Y-79704819D02*
X167261905Y-78704819D01*
X167261905Y-78704819D02*
X167500000Y-78704819D01*
X167500000Y-78704819D02*
X167642857Y-78752438D01*
X167642857Y-78752438D02*
X167738095Y-78847676D01*
X167738095Y-78847676D02*
X167785714Y-78942914D01*
X167785714Y-78942914D02*
X167833333Y-79133390D01*
X167833333Y-79133390D02*
X167833333Y-79276247D01*
X167833333Y-79276247D02*
X167785714Y-79466723D01*
X167785714Y-79466723D02*
X167738095Y-79561961D01*
X167738095Y-79561961D02*
X167642857Y-79657200D01*
X167642857Y-79657200D02*
X167500000Y-79704819D01*
X167500000Y-79704819D02*
X167261905Y-79704819D01*
X168738095Y-78704819D02*
X168261905Y-78704819D01*
X168261905Y-78704819D02*
X168214286Y-79181009D01*
X168214286Y-79181009D02*
X168261905Y-79133390D01*
X168261905Y-79133390D02*
X168357143Y-79085771D01*
X168357143Y-79085771D02*
X168595238Y-79085771D01*
X168595238Y-79085771D02*
X168690476Y-79133390D01*
X168690476Y-79133390D02*
X168738095Y-79181009D01*
X168738095Y-79181009D02*
X168785714Y-79276247D01*
X168785714Y-79276247D02*
X168785714Y-79514342D01*
X168785714Y-79514342D02*
X168738095Y-79609580D01*
X168738095Y-79609580D02*
X168690476Y-79657200D01*
X168690476Y-79657200D02*
X168595238Y-79704819D01*
X168595238Y-79704819D02*
X168357143Y-79704819D01*
X168357143Y-79704819D02*
X168261905Y-79657200D01*
X168261905Y-79657200D02*
X168214286Y-79609580D01*
X149511905Y-105704819D02*
X149511905Y-104704819D01*
X149511905Y-104704819D02*
X149750000Y-104704819D01*
X149750000Y-104704819D02*
X149892857Y-104752438D01*
X149892857Y-104752438D02*
X149988095Y-104847676D01*
X149988095Y-104847676D02*
X150035714Y-104942914D01*
X150035714Y-104942914D02*
X150083333Y-105133390D01*
X150083333Y-105133390D02*
X150083333Y-105276247D01*
X150083333Y-105276247D02*
X150035714Y-105466723D01*
X150035714Y-105466723D02*
X149988095Y-105561961D01*
X149988095Y-105561961D02*
X149892857Y-105657200D01*
X149892857Y-105657200D02*
X149750000Y-105704819D01*
X149750000Y-105704819D02*
X149511905Y-105704819D01*
X150559524Y-105704819D02*
X150750000Y-105704819D01*
X150750000Y-105704819D02*
X150845238Y-105657200D01*
X150845238Y-105657200D02*
X150892857Y-105609580D01*
X150892857Y-105609580D02*
X150988095Y-105466723D01*
X150988095Y-105466723D02*
X151035714Y-105276247D01*
X151035714Y-105276247D02*
X151035714Y-104895295D01*
X151035714Y-104895295D02*
X150988095Y-104800057D01*
X150988095Y-104800057D02*
X150940476Y-104752438D01*
X150940476Y-104752438D02*
X150845238Y-104704819D01*
X150845238Y-104704819D02*
X150654762Y-104704819D01*
X150654762Y-104704819D02*
X150559524Y-104752438D01*
X150559524Y-104752438D02*
X150511905Y-104800057D01*
X150511905Y-104800057D02*
X150464286Y-104895295D01*
X150464286Y-104895295D02*
X150464286Y-105133390D01*
X150464286Y-105133390D02*
X150511905Y-105228628D01*
X150511905Y-105228628D02*
X150559524Y-105276247D01*
X150559524Y-105276247D02*
X150654762Y-105323866D01*
X150654762Y-105323866D02*
X150845238Y-105323866D01*
X150845238Y-105323866D02*
X150940476Y-105276247D01*
X150940476Y-105276247D02*
X150988095Y-105228628D01*
X150988095Y-105228628D02*
X151035714Y-105133390D01*
X141583333Y-107204819D02*
X141250000Y-106728628D01*
X141011905Y-107204819D02*
X141011905Y-106204819D01*
X141011905Y-106204819D02*
X141392857Y-106204819D01*
X141392857Y-106204819D02*
X141488095Y-106252438D01*
X141488095Y-106252438D02*
X141535714Y-106300057D01*
X141535714Y-106300057D02*
X141583333Y-106395295D01*
X141583333Y-106395295D02*
X141583333Y-106538152D01*
X141583333Y-106538152D02*
X141535714Y-106633390D01*
X141535714Y-106633390D02*
X141488095Y-106681009D01*
X141488095Y-106681009D02*
X141392857Y-106728628D01*
X141392857Y-106728628D02*
X141011905Y-106728628D01*
X142535714Y-107204819D02*
X141964286Y-107204819D01*
X142250000Y-107204819D02*
X142250000Y-106204819D01*
X142250000Y-106204819D02*
X142154762Y-106347676D01*
X142154762Y-106347676D02*
X142059524Y-106442914D01*
X142059524Y-106442914D02*
X141964286Y-106490533D01*
X167261905Y-83454819D02*
X167261905Y-82454819D01*
X167261905Y-82454819D02*
X167500000Y-82454819D01*
X167500000Y-82454819D02*
X167642857Y-82502438D01*
X167642857Y-82502438D02*
X167738095Y-82597676D01*
X167738095Y-82597676D02*
X167785714Y-82692914D01*
X167785714Y-82692914D02*
X167833333Y-82883390D01*
X167833333Y-82883390D02*
X167833333Y-83026247D01*
X167833333Y-83026247D02*
X167785714Y-83216723D01*
X167785714Y-83216723D02*
X167738095Y-83311961D01*
X167738095Y-83311961D02*
X167642857Y-83407200D01*
X167642857Y-83407200D02*
X167500000Y-83454819D01*
X167500000Y-83454819D02*
X167261905Y-83454819D01*
X168690476Y-82454819D02*
X168500000Y-82454819D01*
X168500000Y-82454819D02*
X168404762Y-82502438D01*
X168404762Y-82502438D02*
X168357143Y-82550057D01*
X168357143Y-82550057D02*
X168261905Y-82692914D01*
X168261905Y-82692914D02*
X168214286Y-82883390D01*
X168214286Y-82883390D02*
X168214286Y-83264342D01*
X168214286Y-83264342D02*
X168261905Y-83359580D01*
X168261905Y-83359580D02*
X168309524Y-83407200D01*
X168309524Y-83407200D02*
X168404762Y-83454819D01*
X168404762Y-83454819D02*
X168595238Y-83454819D01*
X168595238Y-83454819D02*
X168690476Y-83407200D01*
X168690476Y-83407200D02*
X168738095Y-83359580D01*
X168738095Y-83359580D02*
X168785714Y-83264342D01*
X168785714Y-83264342D02*
X168785714Y-83026247D01*
X168785714Y-83026247D02*
X168738095Y-82931009D01*
X168738095Y-82931009D02*
X168690476Y-82883390D01*
X168690476Y-82883390D02*
X168595238Y-82835771D01*
X168595238Y-82835771D02*
X168404762Y-82835771D01*
X168404762Y-82835771D02*
X168309524Y-82883390D01*
X168309524Y-82883390D02*
X168261905Y-82931009D01*
X168261905Y-82931009D02*
X168214286Y-83026247D01*
X159974819Y-111809523D02*
X160689104Y-111809523D01*
X160689104Y-111809523D02*
X160831961Y-111857142D01*
X160831961Y-111857142D02*
X160927200Y-111952380D01*
X160927200Y-111952380D02*
X160974819Y-112095237D01*
X160974819Y-112095237D02*
X160974819Y-112190475D01*
X160974819Y-110809523D02*
X160974819Y-111380951D01*
X160974819Y-111095237D02*
X159974819Y-111095237D01*
X159974819Y-111095237D02*
X160117676Y-111190475D01*
X160117676Y-111190475D02*
X160212914Y-111285713D01*
X160212914Y-111285713D02*
X160260533Y-111380951D01*
X159974819Y-110190475D02*
X159974819Y-110095237D01*
X159974819Y-110095237D02*
X160022438Y-109999999D01*
X160022438Y-109999999D02*
X160070057Y-109952380D01*
X160070057Y-109952380D02*
X160165295Y-109904761D01*
X160165295Y-109904761D02*
X160355771Y-109857142D01*
X160355771Y-109857142D02*
X160593866Y-109857142D01*
X160593866Y-109857142D02*
X160784342Y-109904761D01*
X160784342Y-109904761D02*
X160879580Y-109952380D01*
X160879580Y-109952380D02*
X160927200Y-109999999D01*
X160927200Y-109999999D02*
X160974819Y-110095237D01*
X160974819Y-110095237D02*
X160974819Y-110190475D01*
X160974819Y-110190475D02*
X160927200Y-110285713D01*
X160927200Y-110285713D02*
X160879580Y-110333332D01*
X160879580Y-110333332D02*
X160784342Y-110380951D01*
X160784342Y-110380951D02*
X160593866Y-110428570D01*
X160593866Y-110428570D02*
X160355771Y-110428570D01*
X160355771Y-110428570D02*
X160165295Y-110380951D01*
X160165295Y-110380951D02*
X160070057Y-110333332D01*
X160070057Y-110333332D02*
X160022438Y-110285713D01*
X160022438Y-110285713D02*
X159974819Y-110190475D01*
D11*
X144928572Y-76499757D02*
X144785715Y-76428328D01*
X144785715Y-76428328D02*
X144571429Y-76428328D01*
X144571429Y-76428328D02*
X144357143Y-76499757D01*
X144357143Y-76499757D02*
X144214286Y-76642614D01*
X144214286Y-76642614D02*
X144142857Y-76785471D01*
X144142857Y-76785471D02*
X144071429Y-77071185D01*
X144071429Y-77071185D02*
X144071429Y-77285471D01*
X144071429Y-77285471D02*
X144142857Y-77571185D01*
X144142857Y-77571185D02*
X144214286Y-77714042D01*
X144214286Y-77714042D02*
X144357143Y-77856900D01*
X144357143Y-77856900D02*
X144571429Y-77928328D01*
X144571429Y-77928328D02*
X144714286Y-77928328D01*
X144714286Y-77928328D02*
X144928572Y-77856900D01*
X144928572Y-77856900D02*
X145000000Y-77785471D01*
X145000000Y-77785471D02*
X145000000Y-77285471D01*
X145000000Y-77285471D02*
X144714286Y-77285471D01*
X146428572Y-77928328D02*
X145571429Y-77928328D01*
X146000000Y-77928328D02*
X146000000Y-76428328D01*
X146000000Y-76428328D02*
X145857143Y-76642614D01*
X145857143Y-76642614D02*
X145714286Y-76785471D01*
X145714286Y-76785471D02*
X145571429Y-76856900D01*
D12*
X149166667Y-92407200D02*
X149309524Y-92454819D01*
X149309524Y-92454819D02*
X149547619Y-92454819D01*
X149547619Y-92454819D02*
X149642857Y-92407200D01*
X149642857Y-92407200D02*
X149690476Y-92359580D01*
X149690476Y-92359580D02*
X149738095Y-92264342D01*
X149738095Y-92264342D02*
X149738095Y-92169104D01*
X149738095Y-92169104D02*
X149690476Y-92073866D01*
X149690476Y-92073866D02*
X149642857Y-92026247D01*
X149642857Y-92026247D02*
X149547619Y-91978628D01*
X149547619Y-91978628D02*
X149357143Y-91931009D01*
X149357143Y-91931009D02*
X149261905Y-91883390D01*
X149261905Y-91883390D02*
X149214286Y-91835771D01*
X149214286Y-91835771D02*
X149166667Y-91740533D01*
X149166667Y-91740533D02*
X149166667Y-91645295D01*
X149166667Y-91645295D02*
X149214286Y-91550057D01*
X149214286Y-91550057D02*
X149261905Y-91502438D01*
X149261905Y-91502438D02*
X149357143Y-91454819D01*
X149357143Y-91454819D02*
X149595238Y-91454819D01*
X149595238Y-91454819D02*
X149738095Y-91502438D01*
X150071429Y-91454819D02*
X150309524Y-92454819D01*
X150309524Y-92454819D02*
X150500000Y-91740533D01*
X150500000Y-91740533D02*
X150690476Y-92454819D01*
X150690476Y-92454819D02*
X150928572Y-91454819D01*
X151833333Y-92454819D02*
X151261905Y-92454819D01*
X151547619Y-92454819D02*
X151547619Y-91454819D01*
X151547619Y-91454819D02*
X151452381Y-91597676D01*
X151452381Y-91597676D02*
X151357143Y-91692914D01*
X151357143Y-91692914D02*
X151261905Y-91740533D01*
X159974819Y-83083333D02*
X160689104Y-83083333D01*
X160689104Y-83083333D02*
X160831961Y-83130952D01*
X160831961Y-83130952D02*
X160927200Y-83226190D01*
X160927200Y-83226190D02*
X160974819Y-83369047D01*
X160974819Y-83369047D02*
X160974819Y-83464285D01*
X160974819Y-82559523D02*
X160974819Y-82369047D01*
X160974819Y-82369047D02*
X160927200Y-82273809D01*
X160927200Y-82273809D02*
X160879580Y-82226190D01*
X160879580Y-82226190D02*
X160736723Y-82130952D01*
X160736723Y-82130952D02*
X160546247Y-82083333D01*
X160546247Y-82083333D02*
X160165295Y-82083333D01*
X160165295Y-82083333D02*
X160070057Y-82130952D01*
X160070057Y-82130952D02*
X160022438Y-82178571D01*
X160022438Y-82178571D02*
X159974819Y-82273809D01*
X159974819Y-82273809D02*
X159974819Y-82464285D01*
X159974819Y-82464285D02*
X160022438Y-82559523D01*
X160022438Y-82559523D02*
X160070057Y-82607142D01*
X160070057Y-82607142D02*
X160165295Y-82654761D01*
X160165295Y-82654761D02*
X160403390Y-82654761D01*
X160403390Y-82654761D02*
X160498628Y-82607142D01*
X160498628Y-82607142D02*
X160546247Y-82559523D01*
X160546247Y-82559523D02*
X160593866Y-82464285D01*
X160593866Y-82464285D02*
X160593866Y-82273809D01*
X160593866Y-82273809D02*
X160546247Y-82178571D01*
X160546247Y-82178571D02*
X160498628Y-82130952D01*
X160498628Y-82130952D02*
X160403390Y-82083333D01*
X167116905Y-111337319D02*
X167116905Y-110337319D01*
X167116905Y-110337319D02*
X167355000Y-110337319D01*
X167355000Y-110337319D02*
X167497857Y-110384938D01*
X167497857Y-110384938D02*
X167593095Y-110480176D01*
X167593095Y-110480176D02*
X167640714Y-110575414D01*
X167640714Y-110575414D02*
X167688333Y-110765890D01*
X167688333Y-110765890D02*
X167688333Y-110908747D01*
X167688333Y-110908747D02*
X167640714Y-111099223D01*
X167640714Y-111099223D02*
X167593095Y-111194461D01*
X167593095Y-111194461D02*
X167497857Y-111289700D01*
X167497857Y-111289700D02*
X167355000Y-111337319D01*
X167355000Y-111337319D02*
X167116905Y-111337319D01*
X168259762Y-110765890D02*
X168164524Y-110718271D01*
X168164524Y-110718271D02*
X168116905Y-110670652D01*
X168116905Y-110670652D02*
X168069286Y-110575414D01*
X168069286Y-110575414D02*
X168069286Y-110527795D01*
X168069286Y-110527795D02*
X168116905Y-110432557D01*
X168116905Y-110432557D02*
X168164524Y-110384938D01*
X168164524Y-110384938D02*
X168259762Y-110337319D01*
X168259762Y-110337319D02*
X168450238Y-110337319D01*
X168450238Y-110337319D02*
X168545476Y-110384938D01*
X168545476Y-110384938D02*
X168593095Y-110432557D01*
X168593095Y-110432557D02*
X168640714Y-110527795D01*
X168640714Y-110527795D02*
X168640714Y-110575414D01*
X168640714Y-110575414D02*
X168593095Y-110670652D01*
X168593095Y-110670652D02*
X168545476Y-110718271D01*
X168545476Y-110718271D02*
X168450238Y-110765890D01*
X168450238Y-110765890D02*
X168259762Y-110765890D01*
X168259762Y-110765890D02*
X168164524Y-110813509D01*
X168164524Y-110813509D02*
X168116905Y-110861128D01*
X168116905Y-110861128D02*
X168069286Y-110956366D01*
X168069286Y-110956366D02*
X168069286Y-111146842D01*
X168069286Y-111146842D02*
X168116905Y-111242080D01*
X168116905Y-111242080D02*
X168164524Y-111289700D01*
X168164524Y-111289700D02*
X168259762Y-111337319D01*
X168259762Y-111337319D02*
X168450238Y-111337319D01*
X168450238Y-111337319D02*
X168545476Y-111289700D01*
X168545476Y-111289700D02*
X168593095Y-111242080D01*
X168593095Y-111242080D02*
X168640714Y-111146842D01*
X168640714Y-111146842D02*
X168640714Y-110956366D01*
X168640714Y-110956366D02*
X168593095Y-110861128D01*
X168593095Y-110861128D02*
X168545476Y-110813509D01*
X168545476Y-110813509D02*
X168450238Y-110765890D01*
X167116905Y-114877319D02*
X167116905Y-113877319D01*
X167116905Y-113877319D02*
X167355000Y-113877319D01*
X167355000Y-113877319D02*
X167497857Y-113924938D01*
X167497857Y-113924938D02*
X167593095Y-114020176D01*
X167593095Y-114020176D02*
X167640714Y-114115414D01*
X167640714Y-114115414D02*
X167688333Y-114305890D01*
X167688333Y-114305890D02*
X167688333Y-114448747D01*
X167688333Y-114448747D02*
X167640714Y-114639223D01*
X167640714Y-114639223D02*
X167593095Y-114734461D01*
X167593095Y-114734461D02*
X167497857Y-114829700D01*
X167497857Y-114829700D02*
X167355000Y-114877319D01*
X167355000Y-114877319D02*
X167116905Y-114877319D01*
X168021667Y-113877319D02*
X168688333Y-113877319D01*
X168688333Y-113877319D02*
X168259762Y-114877319D01*
X135833333Y-95206929D02*
X135785714Y-95254549D01*
X135785714Y-95254549D02*
X135642857Y-95302168D01*
X135642857Y-95302168D02*
X135547619Y-95302168D01*
X135547619Y-95302168D02*
X135404762Y-95254549D01*
X135404762Y-95254549D02*
X135309524Y-95159310D01*
X135309524Y-95159310D02*
X135261905Y-95064072D01*
X135261905Y-95064072D02*
X135214286Y-94873596D01*
X135214286Y-94873596D02*
X135214286Y-94730739D01*
X135214286Y-94730739D02*
X135261905Y-94540263D01*
X135261905Y-94540263D02*
X135309524Y-94445025D01*
X135309524Y-94445025D02*
X135404762Y-94349787D01*
X135404762Y-94349787D02*
X135547619Y-94302168D01*
X135547619Y-94302168D02*
X135642857Y-94302168D01*
X135642857Y-94302168D02*
X135785714Y-94349787D01*
X135785714Y-94349787D02*
X135833333Y-94397406D01*
X136785714Y-95302168D02*
X136214286Y-95302168D01*
X136500000Y-95302168D02*
X136500000Y-94302168D01*
X136500000Y-94302168D02*
X136404762Y-94445025D01*
X136404762Y-94445025D02*
X136309524Y-94540263D01*
X136309524Y-94540263D02*
X136214286Y-94587882D01*
X180871666Y-82127319D02*
X180871666Y-82841604D01*
X180871666Y-82841604D02*
X180824047Y-82984461D01*
X180824047Y-82984461D02*
X180728809Y-83079700D01*
X180728809Y-83079700D02*
X180585952Y-83127319D01*
X180585952Y-83127319D02*
X180490714Y-83127319D01*
X181300238Y-82222557D02*
X181347857Y-82174938D01*
X181347857Y-82174938D02*
X181443095Y-82127319D01*
X181443095Y-82127319D02*
X181681190Y-82127319D01*
X181681190Y-82127319D02*
X181776428Y-82174938D01*
X181776428Y-82174938D02*
X181824047Y-82222557D01*
X181824047Y-82222557D02*
X181871666Y-82317795D01*
X181871666Y-82317795D02*
X181871666Y-82413033D01*
X181871666Y-82413033D02*
X181824047Y-82555890D01*
X181824047Y-82555890D02*
X181252619Y-83127319D01*
X181252619Y-83127319D02*
X181871666Y-83127319D01*
X132704819Y-87680682D02*
X133419104Y-87680682D01*
X133419104Y-87680682D02*
X133561961Y-87728301D01*
X133561961Y-87728301D02*
X133657200Y-87823539D01*
X133657200Y-87823539D02*
X133704819Y-87966396D01*
X133704819Y-87966396D02*
X133704819Y-88061634D01*
X133133390Y-87061634D02*
X133085771Y-87156872D01*
X133085771Y-87156872D02*
X133038152Y-87204491D01*
X133038152Y-87204491D02*
X132942914Y-87252110D01*
X132942914Y-87252110D02*
X132895295Y-87252110D01*
X132895295Y-87252110D02*
X132800057Y-87204491D01*
X132800057Y-87204491D02*
X132752438Y-87156872D01*
X132752438Y-87156872D02*
X132704819Y-87061634D01*
X132704819Y-87061634D02*
X132704819Y-86871158D01*
X132704819Y-86871158D02*
X132752438Y-86775920D01*
X132752438Y-86775920D02*
X132800057Y-86728301D01*
X132800057Y-86728301D02*
X132895295Y-86680682D01*
X132895295Y-86680682D02*
X132942914Y-86680682D01*
X132942914Y-86680682D02*
X133038152Y-86728301D01*
X133038152Y-86728301D02*
X133085771Y-86775920D01*
X133085771Y-86775920D02*
X133133390Y-86871158D01*
X133133390Y-86871158D02*
X133133390Y-87061634D01*
X133133390Y-87061634D02*
X133181009Y-87156872D01*
X133181009Y-87156872D02*
X133228628Y-87204491D01*
X133228628Y-87204491D02*
X133323866Y-87252110D01*
X133323866Y-87252110D02*
X133514342Y-87252110D01*
X133514342Y-87252110D02*
X133609580Y-87204491D01*
X133609580Y-87204491D02*
X133657200Y-87156872D01*
X133657200Y-87156872D02*
X133704819Y-87061634D01*
X133704819Y-87061634D02*
X133704819Y-86871158D01*
X133704819Y-86871158D02*
X133657200Y-86775920D01*
X133657200Y-86775920D02*
X133609580Y-86728301D01*
X133609580Y-86728301D02*
X133514342Y-86680682D01*
X133514342Y-86680682D02*
X133323866Y-86680682D01*
X133323866Y-86680682D02*
X133228628Y-86728301D01*
X133228628Y-86728301D02*
X133181009Y-86775920D01*
X133181009Y-86775920D02*
X133133390Y-86871158D01*
X127666666Y-102882168D02*
X127666666Y-103596453D01*
X127666666Y-103596453D02*
X127619047Y-103739310D01*
X127619047Y-103739310D02*
X127523809Y-103834549D01*
X127523809Y-103834549D02*
X127380952Y-103882168D01*
X127380952Y-103882168D02*
X127285714Y-103882168D01*
X128571428Y-102882168D02*
X128380952Y-102882168D01*
X128380952Y-102882168D02*
X128285714Y-102929787D01*
X128285714Y-102929787D02*
X128238095Y-102977406D01*
X128238095Y-102977406D02*
X128142857Y-103120263D01*
X128142857Y-103120263D02*
X128095238Y-103310739D01*
X128095238Y-103310739D02*
X128095238Y-103691691D01*
X128095238Y-103691691D02*
X128142857Y-103786929D01*
X128142857Y-103786929D02*
X128190476Y-103834549D01*
X128190476Y-103834549D02*
X128285714Y-103882168D01*
X128285714Y-103882168D02*
X128476190Y-103882168D01*
X128476190Y-103882168D02*
X128571428Y-103834549D01*
X128571428Y-103834549D02*
X128619047Y-103786929D01*
X128619047Y-103786929D02*
X128666666Y-103691691D01*
X128666666Y-103691691D02*
X128666666Y-103453596D01*
X128666666Y-103453596D02*
X128619047Y-103358358D01*
X128619047Y-103358358D02*
X128571428Y-103310739D01*
X128571428Y-103310739D02*
X128476190Y-103263120D01*
X128476190Y-103263120D02*
X128285714Y-103263120D01*
X128285714Y-103263120D02*
X128190476Y-103310739D01*
X128190476Y-103310739D02*
X128142857Y-103358358D01*
X128142857Y-103358358D02*
X128095238Y-103453596D01*
X134738095Y-102954819D02*
X134738095Y-103764342D01*
X134738095Y-103764342D02*
X134785714Y-103859580D01*
X134785714Y-103859580D02*
X134833333Y-103907200D01*
X134833333Y-103907200D02*
X134928571Y-103954819D01*
X134928571Y-103954819D02*
X135119047Y-103954819D01*
X135119047Y-103954819D02*
X135214285Y-103907200D01*
X135214285Y-103907200D02*
X135261904Y-103859580D01*
X135261904Y-103859580D02*
X135309523Y-103764342D01*
X135309523Y-103764342D02*
X135309523Y-102954819D01*
X135738095Y-103050057D02*
X135785714Y-103002438D01*
X135785714Y-103002438D02*
X135880952Y-102954819D01*
X135880952Y-102954819D02*
X136119047Y-102954819D01*
X136119047Y-102954819D02*
X136214285Y-103002438D01*
X136214285Y-103002438D02*
X136261904Y-103050057D01*
X136261904Y-103050057D02*
X136309523Y-103145295D01*
X136309523Y-103145295D02*
X136309523Y-103240533D01*
X136309523Y-103240533D02*
X136261904Y-103383390D01*
X136261904Y-103383390D02*
X135690476Y-103954819D01*
X135690476Y-103954819D02*
X136309523Y-103954819D01*
X135833333Y-97456929D02*
X135785714Y-97504549D01*
X135785714Y-97504549D02*
X135642857Y-97552168D01*
X135642857Y-97552168D02*
X135547619Y-97552168D01*
X135547619Y-97552168D02*
X135404762Y-97504549D01*
X135404762Y-97504549D02*
X135309524Y-97409310D01*
X135309524Y-97409310D02*
X135261905Y-97314072D01*
X135261905Y-97314072D02*
X135214286Y-97123596D01*
X135214286Y-97123596D02*
X135214286Y-96980739D01*
X135214286Y-96980739D02*
X135261905Y-96790263D01*
X135261905Y-96790263D02*
X135309524Y-96695025D01*
X135309524Y-96695025D02*
X135404762Y-96599787D01*
X135404762Y-96599787D02*
X135547619Y-96552168D01*
X135547619Y-96552168D02*
X135642857Y-96552168D01*
X135642857Y-96552168D02*
X135785714Y-96599787D01*
X135785714Y-96599787D02*
X135833333Y-96647406D01*
X136214286Y-96647406D02*
X136261905Y-96599787D01*
X136261905Y-96599787D02*
X136357143Y-96552168D01*
X136357143Y-96552168D02*
X136595238Y-96552168D01*
X136595238Y-96552168D02*
X136690476Y-96599787D01*
X136690476Y-96599787D02*
X136738095Y-96647406D01*
X136738095Y-96647406D02*
X136785714Y-96742644D01*
X136785714Y-96742644D02*
X136785714Y-96837882D01*
X136785714Y-96837882D02*
X136738095Y-96980739D01*
X136738095Y-96980739D02*
X136166667Y-97552168D01*
X136166667Y-97552168D02*
X136785714Y-97552168D01*
X159261905Y-88704819D02*
X159261905Y-87704819D01*
X159261905Y-87704819D02*
X159500000Y-87704819D01*
X159500000Y-87704819D02*
X159642857Y-87752438D01*
X159642857Y-87752438D02*
X159738095Y-87847676D01*
X159738095Y-87847676D02*
X159785714Y-87942914D01*
X159785714Y-87942914D02*
X159833333Y-88133390D01*
X159833333Y-88133390D02*
X159833333Y-88276247D01*
X159833333Y-88276247D02*
X159785714Y-88466723D01*
X159785714Y-88466723D02*
X159738095Y-88561961D01*
X159738095Y-88561961D02*
X159642857Y-88657200D01*
X159642857Y-88657200D02*
X159500000Y-88704819D01*
X159500000Y-88704819D02*
X159261905Y-88704819D01*
X160785714Y-88704819D02*
X160214286Y-88704819D01*
X160500000Y-88704819D02*
X160500000Y-87704819D01*
X160500000Y-87704819D02*
X160404762Y-87847676D01*
X160404762Y-87847676D02*
X160309524Y-87942914D01*
X160309524Y-87942914D02*
X160214286Y-87990533D01*
D13*
%TO.C,J1*%
X159190000Y-113870000D02*
X159190000Y-115250000D01*
X157810000Y-113870000D02*
X159190000Y-113870000D01*
X156540000Y-113870000D02*
X120870000Y-113870000D01*
X156540000Y-113870000D02*
X156540000Y-116630000D01*
X120870000Y-113870000D02*
X120870000Y-116630000D01*
X156540000Y-116630000D02*
X120870000Y-116630000D01*
%TO.C,J4*%
X176295000Y-109602500D02*
X186695000Y-109602500D01*
X176295000Y-112622500D02*
X186695000Y-112622500D01*
X176295000Y-117522500D02*
X186695000Y-117522500D01*
X176295000Y-119022500D02*
X186695000Y-119022500D01*
X176295000Y-119642500D02*
X176295000Y-109602500D01*
X178655000Y-119642500D02*
X176295000Y-119642500D01*
X186695000Y-109602500D02*
X186695000Y-119642500D01*
X186695000Y-119642500D02*
X179255000Y-119642500D01*
X179395000Y-120252500D02*
X178515000Y-120252500D01*
X178955000Y-119642500D01*
X179395000Y-120252500D01*
G36*
X179395000Y-120252500D02*
G01*
X178515000Y-120252500D01*
X178955000Y-119642500D01*
X179395000Y-120252500D01*
G37*
D14*
%TO.C,D2*%
X157650000Y-90575000D02*
X157650000Y-91750000D01*
X157650000Y-91750000D02*
X155935000Y-91750000D01*
X157650000Y-91750000D02*
X157650000Y-92925000D01*
X157650000Y-92925000D02*
X162350000Y-92925000D01*
X162350000Y-90575000D02*
X157650000Y-90575000D01*
X162350000Y-91750000D02*
X162350000Y-90575000D01*
X162350000Y-91750000D02*
X164065000Y-91750000D01*
X162350000Y-92925000D02*
X162350000Y-91750000D01*
D10*
X153600000Y-91750000D02*
G75*
G02*
X153400000Y-91750000I-100000J0D01*
G01*
X153400000Y-91750000D02*
G75*
G02*
X153600000Y-91750000I100000J0D01*
G01*
D14*
%TO.C,D3*%
X157650000Y-104575000D02*
X157650000Y-105750000D01*
X157650000Y-105750000D02*
X155935000Y-105750000D01*
X157650000Y-105750000D02*
X157650000Y-106925000D01*
X157650000Y-106925000D02*
X162350000Y-106925000D01*
X162350000Y-104575000D02*
X157650000Y-104575000D01*
X162350000Y-105750000D02*
X162350000Y-104575000D01*
X162350000Y-105750000D02*
X164065000Y-105750000D01*
X162350000Y-106925000D02*
X162350000Y-105750000D01*
D10*
X153600000Y-105750000D02*
G75*
G02*
X153400000Y-105750000I-100000J0D01*
G01*
X153400000Y-105750000D02*
G75*
G02*
X153600000Y-105750000I100000J0D01*
G01*
D14*
%TO.C,D4*%
X157650000Y-101075000D02*
X157650000Y-102250000D01*
X157650000Y-102250000D02*
X155935000Y-102250000D01*
X157650000Y-102250000D02*
X157650000Y-103425000D01*
X157650000Y-103425000D02*
X162350000Y-103425000D01*
X162350000Y-101075000D02*
X157650000Y-101075000D01*
X162350000Y-102250000D02*
X162350000Y-101075000D01*
X162350000Y-102250000D02*
X164065000Y-102250000D01*
X162350000Y-103425000D02*
X162350000Y-102250000D01*
D10*
X153600000Y-102250000D02*
G75*
G02*
X153400000Y-102250000I-100000J0D01*
G01*
X153400000Y-102250000D02*
G75*
G02*
X153600000Y-102250000I100000J0D01*
G01*
D14*
%TO.C,U1*%
X174550000Y-106810000D02*
X179550000Y-106810000D01*
X179550000Y-86610000D02*
X174550000Y-86610000D01*
X179550000Y-106810000D02*
X179550000Y-86610000D01*
D10*
X168430000Y-87820000D02*
G75*
G02*
X168230000Y-87820000I-100000J0D01*
G01*
X168230000Y-87820000D02*
G75*
G02*
X168430000Y-87820000I100000J0D01*
G01*
D14*
%TO.C,D5*%
X165650000Y-78075000D02*
X165650000Y-79250000D01*
X165650000Y-79250000D02*
X163935000Y-79250000D01*
X165650000Y-79250000D02*
X165650000Y-80425000D01*
X165650000Y-80425000D02*
X170350000Y-80425000D01*
X170350000Y-78075000D02*
X165650000Y-78075000D01*
X170350000Y-79250000D02*
X170350000Y-78075000D01*
X170350000Y-79250000D02*
X172065000Y-79250000D01*
X170350000Y-80425000D02*
X170350000Y-79250000D01*
D10*
X174600000Y-79250000D02*
G75*
G02*
X174400000Y-79250000I-100000J0D01*
G01*
X174400000Y-79250000D02*
G75*
G02*
X174600000Y-79250000I100000J0D01*
G01*
D13*
%TO.C,D9*%
X151315000Y-103045000D02*
X151315000Y-99955000D01*
X145765000Y-101500000D02*
G75*
G02*
X151315000Y-99955170I2990000J0D01*
G01*
X151315000Y-103044830D02*
G75*
G02*
X145765000Y-101500000I-2560000J1544830D01*
G01*
X151255000Y-101500000D02*
G75*
G02*
X146255000Y-101500000I-2500000J0D01*
G01*
X146255000Y-101500000D02*
G75*
G02*
X151255000Y-101500000I2500000J0D01*
G01*
%TO.C,R1*%
X137710000Y-106750000D02*
X138480000Y-106750000D01*
X145790000Y-106750000D02*
X145020000Y-106750000D01*
X138480000Y-105380000D02*
X145020000Y-105380000D01*
X145020000Y-108120000D01*
X138480000Y-108120000D01*
X138480000Y-105380000D01*
D14*
%TO.C,D6*%
X165650000Y-81825000D02*
X165650000Y-83000000D01*
X165650000Y-83000000D02*
X163935000Y-83000000D01*
X165650000Y-83000000D02*
X165650000Y-84175000D01*
X165650000Y-84175000D02*
X170350000Y-84175000D01*
X170350000Y-81825000D02*
X165650000Y-81825000D01*
X170350000Y-83000000D02*
X170350000Y-81825000D01*
X170350000Y-83000000D02*
X172065000Y-83000000D01*
X170350000Y-84175000D02*
X170350000Y-83000000D01*
D10*
X174600000Y-83000000D02*
G75*
G02*
X174400000Y-83000000I-100000J0D01*
G01*
X174400000Y-83000000D02*
G75*
G02*
X174600000Y-83000000I100000J0D01*
G01*
D13*
%TO.C,J10*%
X120860000Y-109670000D02*
X120860000Y-112330000D01*
X156480000Y-109670000D02*
X120860000Y-109670000D01*
X156480000Y-109670000D02*
X156480000Y-112330000D01*
X156480000Y-112330000D02*
X120860000Y-112330000D01*
X159080000Y-111000000D02*
X159080000Y-112330000D01*
X159080000Y-112330000D02*
X157750000Y-112330000D01*
D15*
%TO.C,G1*%
G36*
X143270473Y-77527584D02*
G01*
X143350721Y-77603809D01*
X143436124Y-77718108D01*
X143666532Y-78001126D01*
X143940087Y-78245803D01*
X144267792Y-78460027D01*
X144660652Y-78651687D01*
X144839903Y-78724340D01*
X144983368Y-78789017D01*
X145046732Y-78841042D01*
X145030385Y-78879952D01*
X144934717Y-78905285D01*
X144760120Y-78916577D01*
X144677083Y-78917111D01*
X144495696Y-78912652D01*
X144330916Y-78902334D01*
X144210327Y-78888090D01*
X144183731Y-78882552D01*
X144100615Y-78866637D01*
X144058821Y-78888738D01*
X144034891Y-78967257D01*
X144027597Y-79005058D01*
X143970867Y-79203766D01*
X143878794Y-79346095D01*
X143736655Y-79454420D01*
X143729137Y-79458690D01*
X143538985Y-79535273D01*
X143365146Y-79536823D01*
X143201150Y-79468648D01*
X143035641Y-79326991D01*
X142938697Y-79155154D01*
X142910905Y-78967752D01*
X142952853Y-78779401D01*
X143065128Y-78604717D01*
X143162834Y-78515321D01*
X143297229Y-78412813D01*
X143040762Y-78144737D01*
X142926757Y-78017548D01*
X142838794Y-77904137D01*
X142789988Y-77822127D01*
X142784294Y-77800157D01*
X142821124Y-77719982D01*
X142921710Y-77631017D01*
X143071194Y-77545636D01*
X143111812Y-77527428D01*
X143196448Y-77505422D01*
X143270473Y-77527584D01*
G37*
G36*
X148732035Y-75002980D02*
G01*
X148904446Y-75088794D01*
X149035767Y-75231092D01*
X149090632Y-75348250D01*
X149117940Y-75541951D01*
X149066545Y-75723457D01*
X148935333Y-75895941D01*
X148880759Y-75945955D01*
X148714516Y-76088253D01*
X148925922Y-76296350D01*
X149082171Y-76455929D01*
X149181667Y-76573838D01*
X149230552Y-76660100D01*
X149234970Y-76724732D01*
X149213066Y-76764716D01*
X149144818Y-76821875D01*
X149038258Y-76888517D01*
X148924270Y-76947638D01*
X148833734Y-76982235D01*
X148812230Y-76985416D01*
X148767936Y-76954522D01*
X148698708Y-76875474D01*
X148652360Y-76812419D01*
X148385055Y-76491119D01*
X148055670Y-76203432D01*
X147680597Y-75961309D01*
X147276231Y-75776700D01*
X147190624Y-75746852D01*
X147073284Y-75702233D01*
X146995663Y-75661439D01*
X146976922Y-75640720D01*
X147014130Y-75607333D01*
X147113103Y-75584335D01*
X147254864Y-75571698D01*
X147420436Y-75569396D01*
X147590844Y-75577400D01*
X147747110Y-75595686D01*
X147870258Y-75624224D01*
X147912952Y-75642046D01*
X147982035Y-75650914D01*
X148022398Y-75586504D01*
X148035256Y-75450273D01*
X148069600Y-75305600D01*
X148158074Y-75163079D01*
X148278840Y-75054128D01*
X148328724Y-75028035D01*
X148534729Y-74980458D01*
X148732035Y-75002980D01*
G37*
G36*
X146486386Y-78284002D02*
G01*
X146488461Y-78309686D01*
X146464726Y-78405541D01*
X146401988Y-78541951D01*
X146312950Y-78696587D01*
X146210313Y-78847118D01*
X146120347Y-78956817D01*
X145960852Y-79129849D01*
X146143246Y-79320206D01*
X146246806Y-79436363D01*
X146302265Y-79526930D01*
X146323507Y-79619094D01*
X146325640Y-79677303D01*
X146292086Y-79879789D01*
X146199853Y-80055728D01*
X146061590Y-80184516D01*
X145992710Y-80219641D01*
X145847666Y-80267212D01*
X145726103Y-80273864D01*
X145582515Y-80241907D01*
X145578398Y-80240678D01*
X145402960Y-80148200D01*
X145271643Y-79998645D01*
X145197533Y-79810201D01*
X145185897Y-79695201D01*
X145180938Y-79601511D01*
X145155942Y-79571023D01*
X145095731Y-79585675D01*
X145094310Y-79586211D01*
X144863627Y-79663550D01*
X144671656Y-79703381D01*
X144521548Y-79712659D01*
X144331089Y-79712659D01*
X144331089Y-79449508D01*
X144340264Y-79279853D01*
X144376572Y-79175488D01*
X144453190Y-79121495D01*
X144583295Y-79102961D01*
X144638002Y-79102082D01*
X144889538Y-79073198D01*
X145177197Y-78991834D01*
X145482533Y-78865927D01*
X145787102Y-78703412D01*
X146072457Y-78512225D01*
X146150360Y-78451436D01*
X146302014Y-78333576D01*
X146403119Y-78268669D01*
X146461851Y-78253287D01*
X146486386Y-78284002D01*
G37*
G36*
X144971111Y-74503754D02*
G01*
X145124555Y-74614350D01*
X145239780Y-74768555D01*
X145301613Y-74953878D01*
X145308012Y-75037840D01*
X145316084Y-75122215D01*
X145348579Y-75142819D01*
X145379246Y-75133894D01*
X145527541Y-75084296D01*
X145699491Y-75040859D01*
X145864690Y-75009982D01*
X145992736Y-74998066D01*
X146019417Y-74999151D01*
X146086942Y-75009647D01*
X146124902Y-75037524D01*
X146143425Y-75102573D01*
X146152637Y-75224583D01*
X146154523Y-75263186D01*
X146156934Y-75403479D01*
X146138760Y-75496111D01*
X146086029Y-75553256D01*
X145984768Y-75587088D01*
X145821006Y-75609781D01*
X145748276Y-75617155D01*
X145385337Y-75683310D01*
X145032735Y-75812157D01*
X144679715Y-76008733D01*
X144315523Y-76278072D01*
X144287764Y-76301090D01*
X144168571Y-76397151D01*
X144094939Y-76443761D01*
X144052337Y-76446391D01*
X144026231Y-76410513D01*
X144022397Y-76401000D01*
X144031411Y-76335074D01*
X144079432Y-76223714D01*
X144155382Y-76085664D01*
X144248182Y-75939670D01*
X144346756Y-75804477D01*
X144433671Y-75705099D01*
X144571378Y-75567392D01*
X144430838Y-75460197D01*
X144268713Y-75299571D01*
X144186190Y-75123998D01*
X144182292Y-74930144D01*
X144229539Y-74772757D01*
X144330019Y-74616707D01*
X144486183Y-74508714D01*
X144610250Y-74463354D01*
X144794619Y-74449258D01*
X144971111Y-74503754D01*
G37*
G36*
X143767597Y-75420753D02*
G01*
X143868056Y-75478110D01*
X143976211Y-75553256D01*
X144068730Y-75629459D01*
X144122279Y-75689988D01*
X144127563Y-75705834D01*
X144111466Y-75770782D01*
X144069683Y-75882442D01*
X144022888Y-75990693D01*
X143883378Y-76388066D01*
X143814803Y-76817112D01*
X143816726Y-77281795D01*
X143849547Y-77566416D01*
X143872948Y-77764734D01*
X143870279Y-77887676D01*
X143840330Y-77937391D01*
X143781889Y-77916023D01*
X143699436Y-77832503D01*
X143614705Y-77712635D01*
X143529591Y-77560791D01*
X143456505Y-77403148D01*
X143407862Y-77265884D01*
X143394871Y-77190183D01*
X143379240Y-77114225D01*
X143324244Y-77089258D01*
X143217725Y-77112386D01*
X143159089Y-77134014D01*
X142949507Y-77177065D01*
X142751923Y-77144216D01*
X142580500Y-77040946D01*
X142449400Y-76872735D01*
X142440782Y-76856044D01*
X142385862Y-76699332D01*
X142390422Y-76546742D01*
X142437275Y-76403923D01*
X142550627Y-76226872D01*
X142709552Y-76111389D01*
X142900558Y-76063018D01*
X143110152Y-76087301D01*
X143163933Y-76105396D01*
X143290976Y-76151650D01*
X143360106Y-76165626D01*
X143388880Y-76145578D01*
X143394852Y-76089761D01*
X143394871Y-76082437D01*
X143409243Y-75993151D01*
X143445983Y-75858870D01*
X143495526Y-75707960D01*
X143548306Y-75568790D01*
X143594759Y-75469726D01*
X143608524Y-75448797D01*
X143672611Y-75403062D01*
X143698165Y-75397916D01*
X143767597Y-75420753D01*
G37*
G36*
X146742717Y-76929162D02*
G01*
X146798728Y-77000126D01*
X146866182Y-77108962D01*
X146934552Y-77237280D01*
X146993314Y-77366696D01*
X147031941Y-77478821D01*
X147032101Y-77479442D01*
X147077522Y-77624426D01*
X147126633Y-77696414D01*
X147190113Y-77703520D01*
X147269867Y-77660093D01*
X147394595Y-77611717D01*
X147555161Y-77598592D01*
X147714118Y-77620512D01*
X147814890Y-77663095D01*
X147944942Y-77795234D01*
X148019608Y-77978312D01*
X148035256Y-78127208D01*
X148022371Y-78251213D01*
X147972040Y-78350522D01*
X147896858Y-78434518D01*
X147794126Y-78523538D01*
X147696649Y-78563781D01*
X147569196Y-78572916D01*
X147422592Y-78558531D01*
X147287336Y-78522620D01*
X147255160Y-78508394D01*
X147164166Y-78474012D01*
X147105165Y-78474545D01*
X147101249Y-78477865D01*
X147076016Y-78532796D01*
X147039694Y-78641468D01*
X147006269Y-78758077D01*
X146948811Y-78965270D01*
X146902025Y-79103745D01*
X146857715Y-79183976D01*
X146807684Y-79216437D01*
X146743736Y-79211604D01*
X146671634Y-79185717D01*
X146582328Y-79129924D01*
X146512531Y-79066016D01*
X146461407Y-78992385D01*
X146464895Y-78920146D01*
X146486427Y-78867863D01*
X146565308Y-78668725D01*
X146641307Y-78428453D01*
X146705214Y-78180616D01*
X146747818Y-77958787D01*
X146757191Y-77880929D01*
X146763079Y-77706841D01*
X146756467Y-77495686D01*
X146738813Y-77290601D01*
X146736677Y-77273485D01*
X146718398Y-77116071D01*
X146707830Y-76992604D01*
X146706506Y-76922767D01*
X146708674Y-76914454D01*
X146742717Y-76929162D01*
G37*
%TO.C,G\u002A\u002A\u002A*%
G36*
X136566666Y-75916667D02*
G01*
X136566666Y-76270833D01*
X136495833Y-76270833D01*
X136425000Y-76270833D01*
X136425000Y-75916667D01*
X136425000Y-75562500D01*
X136495833Y-75562500D01*
X136566666Y-75562500D01*
X136566666Y-75916667D01*
G37*
G36*
X136531885Y-75278791D02*
G01*
X136558085Y-75296942D01*
X136576403Y-75324270D01*
X136583333Y-75359192D01*
X136583333Y-75359366D01*
X136577434Y-75378508D01*
X136562865Y-75399988D01*
X136544314Y-75418457D01*
X136526472Y-75428564D01*
X136522155Y-75429167D01*
X136503088Y-75431723D01*
X136498598Y-75433029D01*
X136483871Y-75432548D01*
X136462966Y-75426178D01*
X136461072Y-75425374D01*
X136433766Y-75405546D01*
X136418492Y-75377646D01*
X136415878Y-75345760D01*
X136426555Y-75313973D01*
X136441025Y-75295192D01*
X136469850Y-75276335D01*
X136501305Y-75271395D01*
X136531885Y-75278791D01*
G37*
G36*
X133358333Y-75383333D02*
G01*
X133358333Y-75445833D01*
X133183333Y-75445833D01*
X133008333Y-75445833D01*
X133008333Y-75583333D01*
X133008333Y-75720833D01*
X133166666Y-75720833D01*
X133325000Y-75720833D01*
X133325000Y-75783333D01*
X133325000Y-75845833D01*
X133166666Y-75845833D01*
X133008333Y-75845833D01*
X133008333Y-75993885D01*
X133008333Y-76141938D01*
X133183333Y-76138774D01*
X133358333Y-76135611D01*
X133358333Y-76199055D01*
X133358333Y-76262500D01*
X133108333Y-76262500D01*
X132858333Y-76262500D01*
X132858333Y-75791667D01*
X132858333Y-75320833D01*
X133108333Y-75320833D01*
X133358333Y-75320833D01*
X133358333Y-75383333D01*
G37*
G36*
X129761437Y-75406144D02*
G01*
X129752784Y-75442594D01*
X129745233Y-75473452D01*
X129739754Y-75494801D01*
X129737639Y-75502083D01*
X129732895Y-75505007D01*
X129720117Y-75507372D01*
X129697980Y-75509225D01*
X129665158Y-75510613D01*
X129620325Y-75511585D01*
X129562155Y-75512187D01*
X129489323Y-75512466D01*
X129446094Y-75512500D01*
X129365890Y-75512375D01*
X129301018Y-75511967D01*
X129250147Y-75511229D01*
X129211946Y-75510112D01*
X129185081Y-75508567D01*
X129168222Y-75506548D01*
X129160036Y-75504004D01*
X129158734Y-75502083D01*
X129160671Y-75489949D01*
X129165572Y-75465564D01*
X129172615Y-75432906D01*
X129178132Y-75408333D01*
X129197129Y-75325000D01*
X129489290Y-75322811D01*
X129781451Y-75320622D01*
X129761437Y-75406144D01*
G37*
G36*
X138875000Y-78995833D02*
G01*
X138875000Y-79229167D01*
X138768267Y-79229167D01*
X138661534Y-79229167D01*
X138628683Y-79127083D01*
X138595833Y-79025000D01*
X138543750Y-79022519D01*
X138491666Y-79020038D01*
X138491666Y-79420436D01*
X138491666Y-79820833D01*
X138558333Y-79820833D01*
X138625000Y-79820833D01*
X138625000Y-79950000D01*
X138625000Y-80079167D01*
X138316666Y-80079167D01*
X138008333Y-80079167D01*
X138008333Y-79950000D01*
X138008333Y-79820833D01*
X138075000Y-79820833D01*
X138141666Y-79820833D01*
X138141666Y-79420833D01*
X138141666Y-79020833D01*
X138089244Y-79020833D01*
X138036821Y-79020833D01*
X138004662Y-79125000D01*
X137972503Y-79229167D01*
X137865418Y-79229167D01*
X137758333Y-79229167D01*
X137758333Y-78995833D01*
X137758333Y-78762500D01*
X138316666Y-78762500D01*
X138875000Y-78762500D01*
X138875000Y-78995833D01*
G37*
G36*
X127816666Y-78996075D02*
G01*
X127816666Y-79229650D01*
X127707773Y-79227325D01*
X127598879Y-79225000D01*
X127565659Y-79122917D01*
X127532438Y-79020833D01*
X127478719Y-79020833D01*
X127425000Y-79020833D01*
X127425000Y-79420833D01*
X127425000Y-79820833D01*
X127491666Y-79820833D01*
X127558333Y-79820833D01*
X127558333Y-79954167D01*
X127558333Y-80087500D01*
X127254166Y-80087500D01*
X126950000Y-80087500D01*
X126950000Y-79954517D01*
X126950000Y-79821534D01*
X127014583Y-79819100D01*
X127079166Y-79816667D01*
X127079166Y-79420833D01*
X127079166Y-79025000D01*
X127034740Y-79022458D01*
X127002528Y-79022454D01*
X126982165Y-79028955D01*
X126969209Y-79044926D01*
X126959368Y-79072818D01*
X126951436Y-79098888D01*
X126940214Y-79133225D01*
X126928117Y-79168438D01*
X126928007Y-79168750D01*
X126906642Y-79229167D01*
X126801237Y-79229172D01*
X126695833Y-79229177D01*
X126698170Y-78995838D01*
X126700507Y-78762500D01*
X127258586Y-78762500D01*
X127816666Y-78762500D01*
X127816666Y-78996075D01*
G37*
G36*
X131631574Y-78754374D02*
G01*
X131687207Y-78754754D01*
X131736344Y-78755495D01*
X131776264Y-78756598D01*
X131804245Y-78758064D01*
X131815625Y-78759375D01*
X131841666Y-78764583D01*
X131841666Y-78892708D01*
X131841666Y-79020833D01*
X131775000Y-79020833D01*
X131708333Y-79020833D01*
X131708333Y-79416667D01*
X131708333Y-79812500D01*
X131775000Y-79812500D01*
X131841666Y-79812500D01*
X131841666Y-79945833D01*
X131841666Y-80079167D01*
X131533333Y-80079167D01*
X131225000Y-80079167D01*
X131225000Y-79945833D01*
X131225000Y-79812500D01*
X131295833Y-79812500D01*
X131366666Y-79812500D01*
X131366666Y-79605513D01*
X131366403Y-79533249D01*
X131365667Y-79452571D01*
X131364544Y-79369493D01*
X131363116Y-79290029D01*
X131361467Y-79220192D01*
X131361170Y-79209680D01*
X131355674Y-79020833D01*
X131290337Y-79020833D01*
X131225000Y-79020833D01*
X131225000Y-78892933D01*
X131225000Y-78765033D01*
X131313796Y-78759600D01*
X131351244Y-78757841D01*
X131398527Y-78756436D01*
X131452923Y-78755385D01*
X131511711Y-78754691D01*
X131572169Y-78754353D01*
X131631574Y-78754374D01*
G37*
G36*
X137737055Y-75555227D02*
G01*
X137798587Y-75568900D01*
X137850576Y-75589882D01*
X137890699Y-75617900D01*
X137904938Y-75633604D01*
X137916662Y-75650071D01*
X137926170Y-75666886D01*
X137933691Y-75685943D01*
X137939455Y-75709136D01*
X137943691Y-75738358D01*
X137946628Y-75775503D01*
X137948497Y-75822467D01*
X137949526Y-75881141D01*
X137949945Y-75953421D01*
X137950000Y-76005491D01*
X137950000Y-76270833D01*
X137879166Y-76270833D01*
X137808333Y-76270833D01*
X137808286Y-76027083D01*
X137807996Y-75962930D01*
X137807199Y-75903149D01*
X137805967Y-75850118D01*
X137804373Y-75806213D01*
X137802487Y-75773814D01*
X137800382Y-75755296D01*
X137800006Y-75753693D01*
X137781586Y-75716297D01*
X137750634Y-75688597D01*
X137708565Y-75671162D01*
X137656794Y-75664563D01*
X137596737Y-75669371D01*
X137592659Y-75670078D01*
X137533333Y-75680680D01*
X137533333Y-75975757D01*
X137533333Y-76270833D01*
X137458333Y-76270833D01*
X137383333Y-76270833D01*
X137383333Y-75933686D01*
X137383333Y-75596539D01*
X137441919Y-75579091D01*
X137518411Y-75560795D01*
X137594645Y-75550901D01*
X137668300Y-75549137D01*
X137737055Y-75555227D01*
G37*
G36*
X124847076Y-78756193D02*
G01*
X125427486Y-78758333D01*
X125428326Y-78998133D01*
X125429166Y-79237933D01*
X125312668Y-79235633D01*
X125196171Y-79233333D01*
X125158322Y-79129167D01*
X125120473Y-79025000D01*
X124933153Y-79025000D01*
X124745833Y-79025000D01*
X124743501Y-79131250D01*
X124741168Y-79237500D01*
X124866417Y-79237500D01*
X124991666Y-79237500D01*
X124991666Y-79383110D01*
X124991666Y-79528721D01*
X124868750Y-79531027D01*
X124745833Y-79533333D01*
X124743548Y-79672917D01*
X124741263Y-79812500D01*
X124828965Y-79812500D01*
X124916666Y-79812500D01*
X124916666Y-79945833D01*
X124916666Y-80079167D01*
X124591666Y-80079167D01*
X124266666Y-80079167D01*
X124266666Y-79950350D01*
X124266666Y-79821534D01*
X124331250Y-79819100D01*
X124395833Y-79816667D01*
X124398436Y-79554167D01*
X124398921Y-79481457D01*
X124398993Y-79406868D01*
X124398679Y-79334008D01*
X124398006Y-79266488D01*
X124397001Y-79207915D01*
X124395691Y-79161901D01*
X124395488Y-79156745D01*
X124389936Y-79021823D01*
X124349831Y-79026573D01*
X124320968Y-79028340D01*
X124295494Y-79027200D01*
X124288196Y-79025919D01*
X124266666Y-79020516D01*
X124266666Y-78887284D01*
X124266666Y-78754053D01*
X124847076Y-78756193D01*
G37*
G36*
X137683333Y-78887500D02*
G01*
X137683333Y-79020833D01*
X137616585Y-79020833D01*
X137549838Y-79020833D01*
X137552002Y-79418750D01*
X137554166Y-79816667D01*
X137618750Y-79819100D01*
X137683333Y-79821534D01*
X137683333Y-79949459D01*
X137683110Y-79999195D01*
X137682282Y-80034700D01*
X137680607Y-80058406D01*
X137677843Y-80072746D01*
X137673751Y-80080151D01*
X137670151Y-80082442D01*
X137659015Y-80083569D01*
X137633602Y-80084498D01*
X137596299Y-80085230D01*
X137549496Y-80085770D01*
X137495581Y-80086121D01*
X137436941Y-80086285D01*
X137375965Y-80086268D01*
X137315041Y-80086071D01*
X137256558Y-80085698D01*
X137202903Y-80085153D01*
X137156466Y-80084438D01*
X137119633Y-80083558D01*
X137094794Y-80082516D01*
X137085416Y-80081619D01*
X137078294Y-80079712D01*
X137073251Y-80075502D01*
X137069929Y-80066464D01*
X137067967Y-80050077D01*
X137067009Y-80023818D01*
X137066695Y-79985163D01*
X137066666Y-79949757D01*
X137066666Y-79821507D01*
X137135416Y-79819087D01*
X137204166Y-79816667D01*
X137206643Y-79462500D01*
X137207054Y-79385451D01*
X137207203Y-79312099D01*
X137207102Y-79244447D01*
X137206765Y-79184500D01*
X137206207Y-79134262D01*
X137205439Y-79095738D01*
X137204476Y-79070934D01*
X137203960Y-79064583D01*
X137198800Y-79020833D01*
X137132733Y-79020833D01*
X137066666Y-79020833D01*
X137066666Y-78887500D01*
X137066666Y-78754167D01*
X137375000Y-78754167D01*
X137683333Y-78754167D01*
X137683333Y-78887500D01*
G37*
G36*
X134276638Y-75818750D02*
G01*
X134277413Y-75891296D01*
X134278234Y-75949118D01*
X134279236Y-75994158D01*
X134280550Y-76028358D01*
X134282309Y-76053660D01*
X134284646Y-76072007D01*
X134287693Y-76085340D01*
X134291583Y-76095602D01*
X134296116Y-76104167D01*
X134315924Y-76130767D01*
X134340763Y-76148281D01*
X134373724Y-76157857D01*
X134417896Y-76160644D01*
X134445833Y-76159817D01*
X134481085Y-76157471D01*
X134511112Y-76154449D01*
X134531171Y-76151268D01*
X134535416Y-76150037D01*
X134539305Y-76147440D01*
X134542437Y-76142074D01*
X134544894Y-76132291D01*
X134546757Y-76116442D01*
X134548106Y-76092879D01*
X134549024Y-76059951D01*
X134549589Y-76016011D01*
X134549885Y-75959410D01*
X134549992Y-75888499D01*
X134550000Y-75853275D01*
X134550000Y-75562500D01*
X134616666Y-75562500D01*
X134683333Y-75562500D01*
X134683405Y-75856250D01*
X134683568Y-75926656D01*
X134683999Y-75993496D01*
X134684661Y-76054505D01*
X134685520Y-76107419D01*
X134686541Y-76149973D01*
X134687688Y-76179903D01*
X134688653Y-76193081D01*
X134693829Y-76236162D01*
X134637545Y-76253547D01*
X134563250Y-76270935D01*
X134481443Y-76280642D01*
X134399738Y-76281995D01*
X134354729Y-76278608D01*
X134288896Y-76264255D01*
X134233734Y-76238084D01*
X134190093Y-76200792D01*
X134158818Y-76153077D01*
X134142386Y-76103892D01*
X134139769Y-76082933D01*
X134137515Y-76047274D01*
X134135684Y-75998878D01*
X134134339Y-75939708D01*
X134133539Y-75871729D01*
X134133333Y-75812090D01*
X134133333Y-75562500D01*
X134203722Y-75562500D01*
X134274110Y-75562500D01*
X134276638Y-75818750D01*
G37*
G36*
X136189646Y-75365443D02*
G01*
X136197150Y-75376671D01*
X136199595Y-75399323D01*
X136199111Y-75435475D01*
X136198405Y-75460417D01*
X136195833Y-75558333D01*
X136264583Y-75560754D01*
X136333333Y-75563174D01*
X136333333Y-75617004D01*
X136333333Y-75670833D01*
X136266666Y-75670833D01*
X136200000Y-75670833D01*
X136200000Y-75886577D01*
X136200045Y-75957850D01*
X136200562Y-76014247D01*
X136202121Y-76057558D01*
X136205293Y-76089575D01*
X136210649Y-76112086D01*
X136218759Y-76126883D01*
X136230194Y-76135756D01*
X136245524Y-76140496D01*
X136265321Y-76142892D01*
X136282093Y-76144130D01*
X136333333Y-76147836D01*
X136333333Y-76204277D01*
X136332394Y-76236426D01*
X136329096Y-76255367D01*
X136322713Y-76264477D01*
X136320151Y-76265775D01*
X136299870Y-76269482D01*
X136268844Y-76270789D01*
X136232779Y-76269945D01*
X136197387Y-76267199D01*
X136168374Y-76262800D01*
X136154166Y-76258533D01*
X136110003Y-76229991D01*
X136078125Y-76192057D01*
X136073580Y-76183614D01*
X136069929Y-76172863D01*
X136067031Y-76157862D01*
X136064742Y-76136669D01*
X136062921Y-76107341D01*
X136061427Y-76067936D01*
X136060117Y-76016512D01*
X136058850Y-75951127D01*
X136058333Y-75921224D01*
X136054166Y-75675000D01*
X136006250Y-75672501D01*
X135958333Y-75670001D01*
X135958333Y-75616251D01*
X135958333Y-75562500D01*
X136003033Y-75562500D01*
X136047734Y-75562500D01*
X136053033Y-75523837D01*
X136056259Y-75491082D01*
X136058138Y-75454175D01*
X136058333Y-75440856D01*
X136058333Y-75396539D01*
X136115481Y-75379519D01*
X136150942Y-75368945D01*
X136174953Y-75363560D01*
X136189646Y-75365443D01*
G37*
G36*
X135137352Y-75550962D02*
G01*
X135194228Y-75559899D01*
X135227083Y-75570061D01*
X135252166Y-75580819D01*
X135269512Y-75590174D01*
X135275000Y-75595425D01*
X135271885Y-75605664D01*
X135264024Y-75625051D01*
X135253640Y-75648675D01*
X135242954Y-75671622D01*
X135234189Y-75688979D01*
X135229573Y-75695833D01*
X135221053Y-75692931D01*
X135202763Y-75685660D01*
X135194987Y-75682443D01*
X135158239Y-75672423D01*
X135116285Y-75669006D01*
X135075960Y-75672211D01*
X135044180Y-75682015D01*
X135010384Y-75708126D01*
X134978923Y-75749879D01*
X134956748Y-75792125D01*
X134944461Y-75832421D01*
X134938105Y-75882541D01*
X134937766Y-75936701D01*
X134943530Y-75989116D01*
X134953247Y-76027844D01*
X134978153Y-76079653D01*
X135012171Y-76119660D01*
X135053277Y-76146864D01*
X135099447Y-76160261D01*
X135148656Y-76158849D01*
X135190824Y-76145502D01*
X135212612Y-76136337D01*
X135227098Y-76131599D01*
X135230128Y-76131517D01*
X135237123Y-76143020D01*
X135246590Y-76163889D01*
X135256570Y-76188979D01*
X135265104Y-76213149D01*
X135270233Y-76231255D01*
X135270625Y-76237837D01*
X135260813Y-76243937D01*
X135239556Y-76252694D01*
X135211445Y-76262220D01*
X135211270Y-76262274D01*
X135144014Y-76276487D01*
X135076192Y-76278804D01*
X135012636Y-76269302D01*
X134979942Y-76258534D01*
X134925182Y-76230822D01*
X134882524Y-76196487D01*
X134847685Y-76151972D01*
X134843444Y-76145150D01*
X134818093Y-76097057D01*
X134801342Y-76048559D01*
X134791983Y-75994695D01*
X134788806Y-75930502D01*
X134788784Y-75920833D01*
X134794714Y-75832096D01*
X134812170Y-75755257D01*
X134841300Y-75690037D01*
X134882255Y-75636155D01*
X134935183Y-75593330D01*
X134973999Y-75572244D01*
X135021468Y-75557184D01*
X135077842Y-75550073D01*
X135137352Y-75550962D01*
G37*
G36*
X132458333Y-78895833D02*
G01*
X132458333Y-79029167D01*
X132400000Y-79029167D01*
X132371247Y-79029949D01*
X132350413Y-79032009D01*
X132341712Y-79034913D01*
X132341666Y-79035151D01*
X132343909Y-79044446D01*
X132350226Y-79067513D01*
X132359999Y-79102225D01*
X132372607Y-79146458D01*
X132387433Y-79198084D01*
X132403858Y-79254977D01*
X132421263Y-79315011D01*
X132439029Y-79376060D01*
X132456538Y-79435999D01*
X132473171Y-79492699D01*
X132488308Y-79544037D01*
X132501332Y-79587884D01*
X132511623Y-79622116D01*
X132518564Y-79644606D01*
X132521534Y-79653228D01*
X132521543Y-79653239D01*
X132526177Y-79648850D01*
X132533171Y-79633758D01*
X132533274Y-79633488D01*
X132537980Y-79619349D01*
X132546454Y-79592107D01*
X132558054Y-79553949D01*
X132572137Y-79507061D01*
X132588061Y-79453631D01*
X132605181Y-79395845D01*
X132622857Y-79335889D01*
X132640444Y-79275951D01*
X132657301Y-79218217D01*
X132672784Y-79164875D01*
X132686252Y-79118110D01*
X132697060Y-79080110D01*
X132704567Y-79053061D01*
X132708129Y-79039151D01*
X132708333Y-79037878D01*
X132700716Y-79033562D01*
X132680727Y-79029834D01*
X132652660Y-79027490D01*
X132652083Y-79027464D01*
X132595833Y-79025000D01*
X132593538Y-78893750D01*
X132591243Y-78762500D01*
X132866455Y-78762500D01*
X133141666Y-78762500D01*
X133141666Y-78895436D01*
X133141666Y-79028371D01*
X133089946Y-79030852D01*
X133038226Y-79033333D01*
X132864632Y-79560417D01*
X132691038Y-80087500D01*
X132525380Y-80087500D01*
X132359721Y-80087500D01*
X132183333Y-79558333D01*
X132006944Y-79029167D01*
X131958610Y-79029167D01*
X131938003Y-79028961D01*
X131922923Y-79026844D01*
X131912506Y-79020565D01*
X131905886Y-79007872D01*
X131902197Y-78986516D01*
X131900574Y-78954244D01*
X131900149Y-78908806D01*
X131900113Y-78877083D01*
X131900000Y-78762500D01*
X132179166Y-78762500D01*
X132458333Y-78762500D01*
X132458333Y-78895833D01*
G37*
G36*
X130352001Y-78895833D02*
G01*
X130415274Y-79000472D01*
X130470497Y-79091691D01*
X130518220Y-79170344D01*
X130558993Y-79237285D01*
X130593368Y-79293370D01*
X130621894Y-79339454D01*
X130645123Y-79376391D01*
X130663606Y-79405037D01*
X130677892Y-79426245D01*
X130688532Y-79440872D01*
X130696078Y-79449772D01*
X130701080Y-79453799D01*
X130704088Y-79453809D01*
X130705654Y-79450656D01*
X130706283Y-79445833D01*
X130706625Y-79429282D01*
X130706424Y-79398853D01*
X130705732Y-79357325D01*
X130704601Y-79307476D01*
X130703081Y-79252086D01*
X130702116Y-79220833D01*
X130695833Y-79025000D01*
X130627083Y-79022579D01*
X130558333Y-79020159D01*
X130558333Y-78891329D01*
X130558333Y-78762500D01*
X130862711Y-78762500D01*
X131167089Y-78762500D01*
X131164794Y-78893750D01*
X131162500Y-79025000D01*
X131097978Y-79027433D01*
X131033457Y-79029865D01*
X131031312Y-79556599D01*
X131029166Y-80083333D01*
X130887500Y-80085382D01*
X130745833Y-80087430D01*
X130531022Y-79735382D01*
X130487571Y-79664197D01*
X130445889Y-79595961D01*
X130406956Y-79532272D01*
X130371751Y-79474731D01*
X130341253Y-79424936D01*
X130316440Y-79384487D01*
X130298292Y-79354983D01*
X130287789Y-79338025D01*
X130287460Y-79337500D01*
X130258709Y-79291667D01*
X130258521Y-79367403D01*
X130258718Y-79398770D01*
X130259375Y-79443020D01*
X130260417Y-79496380D01*
X130261768Y-79555076D01*
X130263353Y-79615334D01*
X130263829Y-79631986D01*
X130269325Y-79820833D01*
X130338829Y-79820833D01*
X130408333Y-79820833D01*
X130408333Y-79950000D01*
X130408333Y-80079167D01*
X130100000Y-80079167D01*
X129791666Y-80079167D01*
X129791666Y-79950337D01*
X129791666Y-79821507D01*
X129860416Y-79819087D01*
X129929166Y-79816667D01*
X129929166Y-79420833D01*
X129929166Y-79025000D01*
X129860206Y-79022576D01*
X129791246Y-79020152D01*
X129793540Y-78889243D01*
X129795833Y-78758333D01*
X130032358Y-78758333D01*
X130268883Y-78758333D01*
X130352001Y-78895833D01*
G37*
G36*
X134391666Y-79000000D02*
G01*
X134391666Y-79237500D01*
X134276152Y-79237500D01*
X134160637Y-79237500D01*
X134123424Y-79135417D01*
X134086211Y-79033333D01*
X134036855Y-79027012D01*
X134012020Y-79025042D01*
X133974439Y-79023580D01*
X133928025Y-79022708D01*
X133876694Y-79022508D01*
X133837500Y-79022845D01*
X133687500Y-79025000D01*
X133685167Y-79131250D01*
X133682835Y-79237500D01*
X133816417Y-79237500D01*
X133950000Y-79237500D01*
X133950000Y-79383122D01*
X133950000Y-79528743D01*
X133818750Y-79531038D01*
X133687500Y-79533333D01*
X133687500Y-79675000D01*
X133687500Y-79816667D01*
X133880104Y-79818901D01*
X133945487Y-79819441D01*
X133995872Y-79819313D01*
X134032917Y-79818447D01*
X134058280Y-79816776D01*
X134073618Y-79814229D01*
X134080590Y-79810738D01*
X134080726Y-79810567D01*
X134085906Y-79799167D01*
X134094766Y-79774904D01*
X134106240Y-79740889D01*
X134119257Y-79700236D01*
X134125136Y-79681250D01*
X134161529Y-79562500D01*
X134276597Y-79562500D01*
X134391666Y-79562500D01*
X134391666Y-79825000D01*
X134391666Y-80087500D01*
X133800491Y-80087500D01*
X133702778Y-80087414D01*
X133610009Y-80087166D01*
X133523519Y-80086769D01*
X133444644Y-80086238D01*
X133374719Y-80085587D01*
X133315079Y-80084829D01*
X133267059Y-80083979D01*
X133231994Y-80083051D01*
X133211219Y-80082059D01*
X133205794Y-80081250D01*
X133204573Y-80071139D01*
X133203536Y-80047409D01*
X133202765Y-80013108D01*
X133202339Y-79971281D01*
X133202282Y-79947917D01*
X133202291Y-79820833D01*
X133245937Y-79820833D01*
X133277000Y-79819807D01*
X133305627Y-79817209D01*
X133315625Y-79815625D01*
X133341666Y-79810417D01*
X133341666Y-79419792D01*
X133341666Y-79029167D01*
X133274738Y-79029167D01*
X133239417Y-79028451D01*
X133217609Y-79025936D01*
X133206207Y-79021069D01*
X133202911Y-79016399D01*
X133201559Y-79003821D01*
X133201185Y-78977958D01*
X133201760Y-78942164D01*
X133203255Y-78899792D01*
X133204038Y-78883066D01*
X133210065Y-78762500D01*
X133800866Y-78762500D01*
X134391666Y-78762500D01*
X134391666Y-79000000D01*
G37*
G36*
X133968822Y-75240843D02*
G01*
X133975695Y-75241784D01*
X134008333Y-75247298D01*
X134008333Y-75741061D01*
X134008333Y-76234825D01*
X133986261Y-76244881D01*
X133942654Y-76259557D01*
X133887788Y-76270284D01*
X133826670Y-76276741D01*
X133764307Y-76278607D01*
X133705707Y-76275559D01*
X133655877Y-76267276D01*
X133652259Y-76266334D01*
X133590471Y-76241258D01*
X133535882Y-76201938D01*
X133490179Y-76149860D01*
X133459656Y-76096833D01*
X133449719Y-76073219D01*
X133443018Y-76050175D01*
X133438751Y-76023074D01*
X133436116Y-75987289D01*
X133434771Y-75953293D01*
X133434462Y-75920833D01*
X133579166Y-75920833D01*
X133579345Y-75964565D01*
X133580342Y-75995617D01*
X133582843Y-76017976D01*
X133587538Y-76035630D01*
X133595115Y-76052565D01*
X133605010Y-76070564D01*
X133629758Y-76108266D01*
X133656168Y-76134083D01*
X133689273Y-76152452D01*
X133704648Y-76158399D01*
X133737645Y-76167599D01*
X133769609Y-76169816D01*
X133807428Y-76165246D01*
X133824589Y-76161809D01*
X133866666Y-76152785D01*
X133866666Y-75916354D01*
X133866666Y-75679922D01*
X133835416Y-75673544D01*
X133788359Y-75668405D01*
X133740942Y-75670861D01*
X133699719Y-75680356D01*
X133686081Y-75686180D01*
X133652050Y-75708113D01*
X133624593Y-75737238D01*
X133599378Y-75778175D01*
X133598857Y-75779167D01*
X133590472Y-75796754D01*
X133584853Y-75814219D01*
X133581460Y-75835443D01*
X133579753Y-75864309D01*
X133579192Y-75904700D01*
X133579166Y-75920833D01*
X133434462Y-75920833D01*
X133434329Y-75906929D01*
X133435770Y-75862590D01*
X133438837Y-75825885D01*
X133441362Y-75809798D01*
X133463921Y-75738497D01*
X133499597Y-75675730D01*
X133547087Y-75623234D01*
X133605093Y-75582746D01*
X133615313Y-75577473D01*
X133637776Y-75567895D01*
X133660974Y-75562073D01*
X133690093Y-75559168D01*
X133730324Y-75558336D01*
X133733333Y-75558333D01*
X133771445Y-75558970D01*
X133806252Y-75560671D01*
X133832283Y-75563127D01*
X133839583Y-75564375D01*
X133866666Y-75570417D01*
X133866666Y-75409071D01*
X133866666Y-75247726D01*
X133904862Y-75241998D01*
X133936883Y-75239618D01*
X133968822Y-75240843D01*
G37*
G36*
X137039597Y-75553566D02*
G01*
X137089216Y-75565010D01*
X137132666Y-75586358D01*
X137174587Y-75619439D01*
X137188229Y-75632594D01*
X137223720Y-75673176D01*
X137249813Y-75716065D01*
X137268299Y-75765371D01*
X137280973Y-75825201D01*
X137284959Y-75854167D01*
X137288168Y-75924649D01*
X137281589Y-75995160D01*
X137266174Y-76062429D01*
X137242875Y-76123187D01*
X137212645Y-76174163D01*
X137182034Y-76207512D01*
X137141358Y-76238230D01*
X137101097Y-76258672D01*
X137055994Y-76270749D01*
X137000795Y-76276375D01*
X136991666Y-76276767D01*
X136951700Y-76277665D01*
X136922596Y-76276297D01*
X136898617Y-76271871D01*
X136874024Y-76263595D01*
X136862500Y-76258933D01*
X136810880Y-76229440D01*
X136763618Y-76187335D01*
X136724547Y-76136662D01*
X136699466Y-76086843D01*
X136691285Y-76063613D01*
X136685629Y-76041908D01*
X136682046Y-76017830D01*
X136680080Y-75987480D01*
X136679278Y-75946957D01*
X136679166Y-75912500D01*
X136820987Y-75912500D01*
X136821434Y-75958424D01*
X136822979Y-75991804D01*
X136826162Y-76016752D01*
X136831526Y-76037381D01*
X136839613Y-76057804D01*
X136840342Y-76059437D01*
X136868509Y-76107432D01*
X136903008Y-76142143D01*
X136942090Y-76162847D01*
X136984010Y-76168824D01*
X137027022Y-76159352D01*
X137051516Y-76146663D01*
X137085420Y-76115907D01*
X137112687Y-76072423D01*
X137132446Y-76019121D01*
X137143827Y-75958909D01*
X137145962Y-75894697D01*
X137141152Y-75846782D01*
X137125522Y-75781248D01*
X137101934Y-75730014D01*
X137070535Y-75693236D01*
X137031471Y-75671069D01*
X136984887Y-75663668D01*
X136970071Y-75664300D01*
X136923835Y-75675150D01*
X136885690Y-75699814D01*
X136854638Y-75739054D01*
X136842743Y-75761608D01*
X136833443Y-75782827D01*
X136827220Y-75802180D01*
X136823473Y-75823837D01*
X136821600Y-75851966D01*
X136821001Y-75890733D01*
X136820987Y-75912500D01*
X136679166Y-75912500D01*
X136679670Y-75858849D01*
X136681396Y-75818344D01*
X136684662Y-75787491D01*
X136689789Y-75762793D01*
X136694141Y-75748754D01*
X136724727Y-75683327D01*
X136766137Y-75630453D01*
X136817773Y-75590549D01*
X136879035Y-75564033D01*
X136949324Y-75551323D01*
X136979166Y-75550198D01*
X137039597Y-75553566D01*
G37*
G36*
X125891154Y-78760337D02*
G01*
X125987495Y-78760891D01*
X126068830Y-78761573D01*
X126136822Y-78762538D01*
X126193133Y-78763941D01*
X126239424Y-78765936D01*
X126277357Y-78768677D01*
X126308594Y-78772320D01*
X126334797Y-78777019D01*
X126357626Y-78782928D01*
X126378745Y-78790202D01*
X126399814Y-78798995D01*
X126422496Y-78809462D01*
X126423247Y-78809817D01*
X126481916Y-78846415D01*
X126531752Y-78895269D01*
X126572135Y-78954132D01*
X126602445Y-79020758D01*
X126622061Y-79092899D01*
X126630363Y-79168309D01*
X126626730Y-79244741D01*
X126610542Y-79319948D01*
X126582959Y-79388232D01*
X126557793Y-79426771D01*
X126522400Y-79467010D01*
X126481806Y-79503940D01*
X126441043Y-79532551D01*
X126434304Y-79536310D01*
X126387871Y-79558291D01*
X126340304Y-79574554D01*
X126288167Y-79585750D01*
X126228024Y-79592527D01*
X126156440Y-79595536D01*
X126119500Y-79595833D01*
X125983333Y-79595833D01*
X125983333Y-79708333D01*
X125983333Y-79820833D01*
X126050000Y-79820833D01*
X126116666Y-79820833D01*
X126116666Y-79954167D01*
X126116666Y-80087500D01*
X125818750Y-80086842D01*
X125749614Y-80086576D01*
X125685577Y-80086112D01*
X125628594Y-80085481D01*
X125580618Y-80084713D01*
X125543602Y-80083840D01*
X125519502Y-80082892D01*
X125510416Y-80081981D01*
X125506123Y-80075350D01*
X125503074Y-80058320D01*
X125501134Y-80029182D01*
X125500168Y-79986228D01*
X125500000Y-79949642D01*
X125500000Y-79821507D01*
X125568750Y-79819087D01*
X125637500Y-79816667D01*
X125637500Y-79420833D01*
X125637500Y-79354167D01*
X125983333Y-79354167D01*
X126018750Y-79353909D01*
X126045471Y-79352657D01*
X126080806Y-79349634D01*
X126115281Y-79345717D01*
X126171527Y-79334248D01*
X126213902Y-79315786D01*
X126244050Y-79289422D01*
X126258332Y-79266668D01*
X126272598Y-79219691D01*
X126274091Y-79168376D01*
X126262891Y-79118997D01*
X126256250Y-79103849D01*
X126237379Y-79075112D01*
X126212190Y-79053794D01*
X126178184Y-79038804D01*
X126132859Y-79029051D01*
X126073716Y-79023442D01*
X126071813Y-79023333D01*
X125983333Y-79018322D01*
X125983333Y-79186244D01*
X125983333Y-79354167D01*
X125637500Y-79354167D01*
X125637500Y-79186244D01*
X125637500Y-79025000D01*
X125568540Y-79022576D01*
X125499580Y-79020152D01*
X125501873Y-78889243D01*
X125504166Y-78758333D01*
X125891154Y-78760337D01*
G37*
G36*
X139500000Y-78887500D02*
G01*
X139500000Y-79020833D01*
X139450000Y-79020833D01*
X139423624Y-79021392D01*
X139405506Y-79022844D01*
X139400000Y-79024521D01*
X139404240Y-79034272D01*
X139415879Y-79055091D01*
X139433288Y-79084408D01*
X139454842Y-79119654D01*
X139478914Y-79158259D01*
X139503877Y-79197653D01*
X139528104Y-79235266D01*
X139549970Y-79268528D01*
X139567848Y-79294871D01*
X139580110Y-79311723D01*
X139584915Y-79316667D01*
X139591271Y-79309939D01*
X139604529Y-79291489D01*
X139623060Y-79263913D01*
X139645238Y-79229808D01*
X139669438Y-79191772D01*
X139694031Y-79152402D01*
X139717393Y-79114295D01*
X139737897Y-79080049D01*
X139753915Y-79052260D01*
X139763823Y-79033527D01*
X139766260Y-79027083D01*
X139758973Y-79023623D01*
X139739787Y-79021354D01*
X139722041Y-79020833D01*
X139677417Y-79020833D01*
X139672558Y-78962879D01*
X139670836Y-78926037D01*
X139670694Y-78881237D01*
X139672133Y-78837110D01*
X139672583Y-78829545D01*
X139677467Y-78754167D01*
X139955400Y-78754167D01*
X140233333Y-78754167D01*
X140233333Y-78848837D01*
X140233810Y-78891475D01*
X140235100Y-78932150D01*
X140236988Y-78965484D01*
X140238632Y-78982170D01*
X140243932Y-79020833D01*
X140189918Y-79020833D01*
X140135905Y-79020833D01*
X140072875Y-79114583D01*
X140050528Y-79147736D01*
X140020903Y-79191560D01*
X139986101Y-79242951D01*
X139948227Y-79298806D01*
X139909383Y-79356021D01*
X139879922Y-79399364D01*
X139750000Y-79590394D01*
X139750000Y-79701447D01*
X139750000Y-79812500D01*
X139820833Y-79812500D01*
X139891666Y-79812500D01*
X139891666Y-79945833D01*
X139891666Y-80079167D01*
X139578125Y-80079167D01*
X139264583Y-80079167D01*
X139269791Y-80053125D01*
X139271788Y-80034896D01*
X139273431Y-80004200D01*
X139274556Y-79965236D01*
X139274998Y-79922203D01*
X139275000Y-79919792D01*
X139275000Y-79812500D01*
X139342631Y-79812500D01*
X139410263Y-79812500D01*
X139406831Y-79702083D01*
X139403398Y-79591667D01*
X139212845Y-79306250D01*
X139022293Y-79020833D01*
X138969479Y-79020833D01*
X138916666Y-79020833D01*
X138916666Y-78938722D01*
X138917249Y-78896018D01*
X138918803Y-78852763D01*
X138921038Y-78816174D01*
X138922020Y-78805389D01*
X138927374Y-78754167D01*
X139213687Y-78754167D01*
X139500000Y-78754167D01*
X139500000Y-78887500D01*
G37*
G36*
X128981454Y-78889999D02*
G01*
X128979166Y-79025000D01*
X128909953Y-79027428D01*
X128840740Y-79029856D01*
X128843286Y-79339928D01*
X128843978Y-79420159D01*
X128844672Y-79485477D01*
X128845475Y-79537637D01*
X128846492Y-79578393D01*
X128847826Y-79609498D01*
X128849585Y-79632706D01*
X128851871Y-79649771D01*
X128854792Y-79662448D01*
X128858450Y-79672489D01*
X128862953Y-79681650D01*
X128863857Y-79683333D01*
X128889405Y-79724047D01*
X128917042Y-79752561D01*
X128950195Y-79770714D01*
X128992293Y-79780348D01*
X129046762Y-79783305D01*
X129050000Y-79783310D01*
X129106362Y-79780398D01*
X129150159Y-79770887D01*
X129184600Y-79753555D01*
X129212894Y-79727181D01*
X129219538Y-79718827D01*
X129229465Y-79704807D01*
X129237576Y-79690434D01*
X129244034Y-79673954D01*
X129249005Y-79653613D01*
X129252654Y-79627658D01*
X129255147Y-79594335D01*
X129256648Y-79551890D01*
X129257323Y-79498570D01*
X129257337Y-79432622D01*
X129256856Y-79352291D01*
X129256638Y-79325000D01*
X129254166Y-79025000D01*
X129189583Y-79022566D01*
X129125000Y-79020132D01*
X129125000Y-78891316D01*
X129125000Y-78762500D01*
X129429166Y-78762500D01*
X129733333Y-78762500D01*
X129733333Y-78895833D01*
X129733333Y-79029167D01*
X129671404Y-79029167D01*
X129609475Y-79029167D01*
X129606354Y-79377083D01*
X129605521Y-79466543D01*
X129604628Y-79541166D01*
X129603456Y-79602778D01*
X129601788Y-79653209D01*
X129599406Y-79694286D01*
X129596092Y-79727837D01*
X129591629Y-79755690D01*
X129585800Y-79779674D01*
X129578385Y-79801616D01*
X129569169Y-79823345D01*
X129557932Y-79846688D01*
X129548108Y-79866237D01*
X129509351Y-79925202D01*
X129456784Y-79977791D01*
X129392392Y-80022955D01*
X129318157Y-80059645D01*
X129236064Y-80086808D01*
X129148096Y-80103396D01*
X129091666Y-80107901D01*
X129053237Y-80108888D01*
X129017777Y-80108926D01*
X128990904Y-80108043D01*
X128983333Y-80107379D01*
X128877454Y-80088371D01*
X128784370Y-80058956D01*
X128704171Y-80019200D01*
X128636943Y-79969169D01*
X128582776Y-79908930D01*
X128541756Y-79838549D01*
X128513972Y-79758093D01*
X128512669Y-79752698D01*
X128509383Y-79735554D01*
X128506694Y-79713595D01*
X128504549Y-79685188D01*
X128502895Y-79648701D01*
X128501680Y-79602502D01*
X128500851Y-79544958D01*
X128500355Y-79474438D01*
X128500139Y-79389309D01*
X128500123Y-79364583D01*
X128500000Y-79029167D01*
X128433333Y-79029167D01*
X128366666Y-79029167D01*
X128366666Y-78892116D01*
X128366666Y-78755066D01*
X128675204Y-78755032D01*
X128983742Y-78754998D01*
X128981454Y-78889999D01*
G37*
G36*
X135651126Y-75549598D02*
G01*
X135715435Y-75560327D01*
X135770827Y-75580188D01*
X135814853Y-75608929D01*
X135821929Y-75615570D01*
X135837901Y-75632526D01*
X135850850Y-75649489D01*
X135861089Y-75668371D01*
X135868933Y-75691084D01*
X135874697Y-75719538D01*
X135878695Y-75755645D01*
X135881242Y-75801316D01*
X135882653Y-75858463D01*
X135883241Y-75928996D01*
X135883333Y-75988678D01*
X135883333Y-76236830D01*
X135827083Y-76254868D01*
X135787397Y-76264250D01*
X135737006Y-76271263D01*
X135680577Y-76275740D01*
X135622777Y-76277515D01*
X135568273Y-76276422D01*
X135521733Y-76272294D01*
X135493584Y-76266755D01*
X135434437Y-76244931D01*
X135388946Y-76215938D01*
X135355125Y-76178360D01*
X135344175Y-76160150D01*
X135334083Y-76129249D01*
X135329384Y-76088622D01*
X135329890Y-76050057D01*
X135459441Y-76050057D01*
X135462792Y-76089771D01*
X135480748Y-76124682D01*
X135512284Y-76152689D01*
X135550996Y-76170122D01*
X135573174Y-76173645D01*
X135606301Y-76175174D01*
X135644798Y-76174843D01*
X135683084Y-76172781D01*
X135715579Y-76169122D01*
X135731250Y-76165865D01*
X135738469Y-76163228D01*
X135743548Y-76158351D01*
X135746863Y-76148632D01*
X135748789Y-76131472D01*
X135749703Y-76104270D01*
X135749981Y-76064427D01*
X135750000Y-76036296D01*
X135750000Y-75912036D01*
X135693750Y-75917160D01*
X135617927Y-75927430D01*
X135557580Y-75943089D01*
X135512364Y-75964277D01*
X135481935Y-75991134D01*
X135471720Y-76007641D01*
X135459441Y-76050057D01*
X135329890Y-76050057D01*
X135329966Y-76044272D01*
X135335718Y-76002203D01*
X135346526Y-75968419D01*
X135347802Y-75965877D01*
X135375398Y-75926613D01*
X135413989Y-75894257D01*
X135464722Y-75868276D01*
X135528742Y-75848136D01*
X135607194Y-75833304D01*
X135642252Y-75828808D01*
X135686909Y-75823736D01*
X135717519Y-75819620D01*
X135736548Y-75815159D01*
X135746463Y-75809047D01*
X135749729Y-75799982D01*
X135748812Y-75786659D01*
X135746916Y-75773476D01*
X135734914Y-75727404D01*
X135713720Y-75692115D01*
X135687079Y-75671098D01*
X135655670Y-75661389D01*
X135613629Y-75656498D01*
X135566291Y-75656473D01*
X135518995Y-75661363D01*
X135483333Y-75669265D01*
X135453652Y-75678266D01*
X135429171Y-75686143D01*
X135415902Y-75690916D01*
X135407014Y-75690684D01*
X135398303Y-75680037D01*
X135387886Y-75656402D01*
X135384957Y-75648605D01*
X135375572Y-75621589D01*
X135373326Y-75604349D01*
X135380453Y-75593153D01*
X135399187Y-75584270D01*
X135429166Y-75574758D01*
X135505544Y-75556560D01*
X135580346Y-75548258D01*
X135651126Y-75549598D01*
G37*
G36*
X136372370Y-78740687D02*
G01*
X136446792Y-78759775D01*
X136511314Y-78791782D01*
X136564027Y-78834422D01*
X136601467Y-78871862D01*
X136598650Y-78817164D01*
X136595833Y-78762465D01*
X136739583Y-78762482D01*
X136883333Y-78762500D01*
X136883333Y-78970833D01*
X136883333Y-79179167D01*
X136739296Y-79179167D01*
X136595260Y-79179167D01*
X136580848Y-79154769D01*
X136541546Y-79098471D01*
X136497573Y-79053185D01*
X136450671Y-79019530D01*
X136402579Y-78998128D01*
X136355039Y-78989597D01*
X136309791Y-78994558D01*
X136268576Y-79013632D01*
X136243953Y-79034754D01*
X136222249Y-79068843D01*
X136216121Y-79107156D01*
X136225867Y-79147262D01*
X136229338Y-79154499D01*
X136240324Y-79170409D01*
X136256810Y-79184230D01*
X136280787Y-79196731D01*
X136314249Y-79208682D01*
X136359188Y-79220853D01*
X136417596Y-79234015D01*
X136454926Y-79241703D01*
X136542259Y-79260309D01*
X136615329Y-79278389D01*
X136676476Y-79296854D01*
X136728043Y-79316615D01*
X136772371Y-79338582D01*
X136811801Y-79363665D01*
X136848675Y-79392775D01*
X136852931Y-79396487D01*
X136900435Y-79449212D01*
X136935683Y-79512247D01*
X136957968Y-79583883D01*
X136966583Y-79662414D01*
X136966666Y-79671165D01*
X136960254Y-79758673D01*
X136940621Y-79836912D01*
X136907170Y-79907495D01*
X136859308Y-79972034D01*
X136852878Y-79979114D01*
X136797080Y-80027581D01*
X136730255Y-80065779D01*
X136655009Y-80093021D01*
X136573951Y-80108621D01*
X136489689Y-80111891D01*
X136404830Y-80102147D01*
X136393979Y-80099907D01*
X136312246Y-80074300D01*
X136233058Y-80034333D01*
X136184088Y-80000884D01*
X136130676Y-79960000D01*
X136136065Y-80023750D01*
X136141454Y-80087500D01*
X135995727Y-80087500D01*
X135850000Y-80087500D01*
X135850000Y-79862500D01*
X135850000Y-79637500D01*
X136002083Y-79637565D01*
X136154166Y-79637631D01*
X136218923Y-79707962D01*
X136269424Y-79758016D01*
X136316531Y-79793882D01*
X136362780Y-79816949D01*
X136410706Y-79828602D01*
X136443277Y-79830711D01*
X136497299Y-79825447D01*
X136539854Y-79809360D01*
X136570195Y-79783038D01*
X136587579Y-79747070D01*
X136591666Y-79713553D01*
X136585867Y-79679970D01*
X136567870Y-79651669D01*
X136536772Y-79628098D01*
X136491673Y-79608706D01*
X136431669Y-79592941D01*
X136379166Y-79583593D01*
X136269756Y-79564077D01*
X136175526Y-79540870D01*
X136095270Y-79513330D01*
X136027781Y-79480816D01*
X135971853Y-79442683D01*
X135926280Y-79398291D01*
X135889857Y-79346997D01*
X135872375Y-79313672D01*
X135857879Y-79279018D01*
X135849205Y-79246850D01*
X135844574Y-79209452D01*
X135843275Y-79187644D01*
X135845283Y-79100997D01*
X135860319Y-79023876D01*
X135888937Y-78954755D01*
X135931689Y-78892110D01*
X135962360Y-78858944D01*
X136025553Y-78806857D01*
X136094952Y-78769187D01*
X136171965Y-78745394D01*
X136258002Y-78734938D01*
X136287500Y-78734320D01*
X136372370Y-78740687D01*
G37*
G36*
X132209590Y-76465908D02*
G01*
X132258292Y-76478321D01*
X132303169Y-76502348D01*
X132341760Y-76538229D01*
X132370106Y-76582979D01*
X132383505Y-76628947D01*
X132384955Y-76680812D01*
X132375317Y-76733806D01*
X132355451Y-76783163D01*
X132326636Y-76823680D01*
X132285261Y-76855719D01*
X132236189Y-76874712D01*
X132182699Y-76880151D01*
X132128069Y-76871532D01*
X132095833Y-76859271D01*
X132042568Y-76826353D01*
X132003159Y-76785213D01*
X131978214Y-76737047D01*
X131969617Y-76690016D01*
X132022535Y-76690016D01*
X132031280Y-76733761D01*
X132051923Y-76774050D01*
X132069946Y-76794974D01*
X132098534Y-76816757D01*
X132132631Y-76834345D01*
X132165160Y-76844356D01*
X132175570Y-76845467D01*
X132190648Y-76843398D01*
X132215010Y-76837703D01*
X132231820Y-76833010D01*
X132260790Y-76822498D01*
X132273295Y-76813100D01*
X132269283Y-76804897D01*
X132253613Y-76799116D01*
X132234446Y-76787707D01*
X132214763Y-76765246D01*
X132210916Y-76759374D01*
X132190259Y-76728757D01*
X132170826Y-76704724D01*
X132155242Y-76690296D01*
X132148547Y-76687500D01*
X132145043Y-76695101D01*
X132142565Y-76714989D01*
X132141666Y-76741667D01*
X132140885Y-76772319D01*
X132137477Y-76789087D01*
X132129847Y-76794721D01*
X132116401Y-76791971D01*
X132113181Y-76790775D01*
X132107833Y-76786433D01*
X132104121Y-76776511D01*
X132101769Y-76758456D01*
X132100497Y-76729715D01*
X132100026Y-76687736D01*
X132100000Y-76669942D01*
X132100000Y-76620833D01*
X132100000Y-76587500D01*
X132141666Y-76587500D01*
X132141666Y-76620833D01*
X132142479Y-76642169D01*
X132148066Y-76651650D01*
X132163154Y-76654086D01*
X132174404Y-76654167D01*
X132200196Y-76650783D01*
X132218943Y-76642248D01*
X132220238Y-76641071D01*
X132232666Y-76621480D01*
X132229865Y-76604883D01*
X132213229Y-76593023D01*
X132184148Y-76587645D01*
X132177500Y-76587500D01*
X132141666Y-76587500D01*
X132100000Y-76587500D01*
X132100000Y-76554167D01*
X132165542Y-76554167D01*
X132201580Y-76555008D01*
X132225755Y-76558156D01*
X132242815Y-76564549D01*
X132253042Y-76571438D01*
X132271833Y-76595235D01*
X132275790Y-76623327D01*
X132265077Y-76652736D01*
X132247410Y-76673965D01*
X132219820Y-76699743D01*
X132253343Y-76752326D01*
X132286867Y-76804910D01*
X132301594Y-76785788D01*
X132323317Y-76745130D01*
X132334973Y-76694217D01*
X132336690Y-76664878D01*
X132334304Y-76632375D01*
X132324690Y-76606057D01*
X132312126Y-76586166D01*
X132277707Y-76550375D01*
X132233714Y-76524138D01*
X132185513Y-76510321D01*
X132167451Y-76508927D01*
X132124485Y-76515674D01*
X132087796Y-76535461D01*
X132058319Y-76565538D01*
X132036992Y-76603155D01*
X132024751Y-76645565D01*
X132022535Y-76690016D01*
X131969617Y-76690016D01*
X131968343Y-76683049D01*
X131974155Y-76624414D01*
X131974771Y-76621787D01*
X131994778Y-76569591D01*
X132025716Y-76527559D01*
X132065126Y-76495933D01*
X132110548Y-76474956D01*
X132159522Y-76464867D01*
X132209590Y-76465908D01*
G37*
G36*
X135158815Y-78762207D02*
G01*
X135231277Y-78762496D01*
X135291504Y-78763174D01*
X135340975Y-78764361D01*
X135381166Y-78766176D01*
X135413554Y-78768739D01*
X135439618Y-78772168D01*
X135460834Y-78776584D01*
X135478681Y-78782104D01*
X135494634Y-78788849D01*
X135510172Y-78796938D01*
X135526772Y-78806490D01*
X135528118Y-78807278D01*
X135570533Y-78839047D01*
X135610752Y-78881418D01*
X135643779Y-78928567D01*
X135659756Y-78960820D01*
X135668544Y-78985671D01*
X135674217Y-79010554D01*
X135677411Y-79040211D01*
X135678761Y-79079384D01*
X135678943Y-79104167D01*
X135678634Y-79147698D01*
X135677083Y-79178855D01*
X135673676Y-79201915D01*
X135667801Y-79221160D01*
X135659543Y-79239465D01*
X135626445Y-79289555D01*
X135580294Y-79335273D01*
X135525252Y-79372738D01*
X135478436Y-79398672D01*
X135533367Y-79426153D01*
X135562734Y-79441873D01*
X135585259Y-79457541D01*
X135601927Y-79475628D01*
X135613724Y-79498602D01*
X135621636Y-79528934D01*
X135626648Y-79569094D01*
X135629748Y-79621549D01*
X135631450Y-79671823D01*
X135635723Y-79820833D01*
X135692861Y-79820833D01*
X135750000Y-79820833D01*
X135750000Y-79949108D01*
X135749778Y-79998919D01*
X135748953Y-80034496D01*
X135747285Y-80058268D01*
X135744533Y-80072663D01*
X135740457Y-80080111D01*
X135736818Y-80082442D01*
X135725206Y-80083798D01*
X135699278Y-80085018D01*
X135661384Y-80086048D01*
X135613873Y-80086839D01*
X135559098Y-80087340D01*
X135503967Y-80087500D01*
X135284298Y-80087500D01*
X135281732Y-79856250D01*
X135280896Y-79787516D01*
X135279985Y-79733347D01*
X135278841Y-79691640D01*
X135277307Y-79660293D01*
X135275226Y-79637203D01*
X135272441Y-79620269D01*
X135268794Y-79607388D01*
X135264127Y-79596458D01*
X135261962Y-79592204D01*
X135244718Y-79566463D01*
X135222241Y-79547756D01*
X135191779Y-79534966D01*
X135150580Y-79526972D01*
X135095893Y-79522656D01*
X135090320Y-79522414D01*
X135000000Y-79518692D01*
X135000000Y-79669763D01*
X135000000Y-79820833D01*
X135054166Y-79820833D01*
X135108333Y-79820833D01*
X135108333Y-79950000D01*
X135108333Y-80079167D01*
X134812500Y-80079167D01*
X134516666Y-80079167D01*
X134516666Y-79950000D01*
X134516666Y-79820833D01*
X134583333Y-79820833D01*
X134650000Y-79820833D01*
X134650063Y-79672917D01*
X134650281Y-79623882D01*
X134650862Y-79562234D01*
X134651750Y-79492018D01*
X134652889Y-79417282D01*
X134654222Y-79342074D01*
X134654954Y-79306192D01*
X134999587Y-79306192D01*
X135101877Y-79302576D01*
X135151356Y-79300153D01*
X135188043Y-79296546D01*
X135215800Y-79291185D01*
X135238490Y-79283499D01*
X135242266Y-79281855D01*
X135277575Y-79257804D01*
X135300380Y-79222884D01*
X135310778Y-79176924D01*
X135311504Y-79158333D01*
X135305818Y-79112125D01*
X135288175Y-79076777D01*
X135257560Y-79050579D01*
X135243158Y-79043054D01*
X135223321Y-79035048D01*
X135202478Y-79029780D01*
X135176499Y-79026713D01*
X135141258Y-79025313D01*
X135104166Y-79025034D01*
X135004166Y-79025000D01*
X135001877Y-79165596D01*
X134999587Y-79306192D01*
X134654954Y-79306192D01*
X134655540Y-79277441D01*
X134660955Y-79029883D01*
X134590894Y-79027441D01*
X134520833Y-79025000D01*
X134521701Y-78897743D01*
X134522234Y-78853458D01*
X134523131Y-78815375D01*
X134524286Y-78786463D01*
X134525597Y-78769690D01*
X134526312Y-78766743D01*
X134535118Y-78766017D01*
X134559041Y-78765312D01*
X134596528Y-78764644D01*
X134646030Y-78764028D01*
X134705997Y-78763480D01*
X134774876Y-78763014D01*
X134851118Y-78762647D01*
X134933173Y-78762393D01*
X134971278Y-78762321D01*
X135072641Y-78762188D01*
X135158815Y-78762207D01*
G37*
G36*
X128250372Y-74429289D02*
G01*
X128347498Y-74429648D01*
X128433317Y-74430231D01*
X128507010Y-74431027D01*
X128567761Y-74432022D01*
X128614750Y-74433205D01*
X128647159Y-74434564D01*
X128664170Y-74436086D01*
X128666666Y-74436988D01*
X128664830Y-74445955D01*
X128659476Y-74470160D01*
X128650831Y-74508598D01*
X128639127Y-74560268D01*
X128624591Y-74624166D01*
X128607453Y-74699289D01*
X128587942Y-74784635D01*
X128566288Y-74879201D01*
X128542719Y-74981983D01*
X128517465Y-75091980D01*
X128490755Y-75208187D01*
X128462818Y-75329603D01*
X128442112Y-75419512D01*
X128407675Y-75568621D01*
X128375223Y-75708386D01*
X128344914Y-75838157D01*
X128316902Y-75957283D01*
X128291345Y-76065114D01*
X128268398Y-76161001D01*
X128248218Y-76244291D01*
X128230962Y-76314336D01*
X128216784Y-76370485D01*
X128205841Y-76412087D01*
X128198291Y-76438493D01*
X128195314Y-76447107D01*
X128147378Y-76540046D01*
X128085704Y-76625355D01*
X128012077Y-76701473D01*
X127928281Y-76766840D01*
X127836101Y-76819893D01*
X127737322Y-76859072D01*
X127717797Y-76864863D01*
X127704828Y-76868374D01*
X127691892Y-76871402D01*
X127677684Y-76873989D01*
X127660898Y-76876179D01*
X127640227Y-76878014D01*
X127614366Y-76879538D01*
X127582009Y-76880793D01*
X127541849Y-76881822D01*
X127492581Y-76882669D01*
X127432899Y-76883376D01*
X127361497Y-76883987D01*
X127277069Y-76884544D01*
X127178309Y-76885090D01*
X127089583Y-76885541D01*
X126970602Y-76886055D01*
X126867531Y-76886323D01*
X126779615Y-76886335D01*
X126706101Y-76886084D01*
X126646232Y-76885559D01*
X126599254Y-76884752D01*
X126564413Y-76883655D01*
X126540954Y-76882258D01*
X126528122Y-76880553D01*
X126525000Y-76878935D01*
X126525046Y-76877195D01*
X126525312Y-76874662D01*
X126525984Y-76870517D01*
X126527250Y-76863941D01*
X126529298Y-76854114D01*
X126532315Y-76840218D01*
X126536488Y-76821433D01*
X126542006Y-76796940D01*
X126549055Y-76765921D01*
X126557824Y-76727555D01*
X126568499Y-76681025D01*
X126581269Y-76625510D01*
X126596321Y-76560191D01*
X126613843Y-76484250D01*
X126634021Y-76396868D01*
X126657044Y-76297224D01*
X126662951Y-76271669D01*
X126925000Y-76271669D01*
X126926037Y-76276534D01*
X126931415Y-76278527D01*
X126944527Y-76277562D01*
X126968769Y-76273554D01*
X126987717Y-76270088D01*
X127053899Y-76250557D01*
X127115084Y-76216792D01*
X127166689Y-76174300D01*
X127193133Y-76147071D01*
X127214546Y-76119503D01*
X127232355Y-76088542D01*
X127247987Y-76051137D01*
X127262868Y-76004236D01*
X127278424Y-75944785D01*
X127283209Y-75925000D01*
X127313050Y-75800000D01*
X127579651Y-75795833D01*
X127846252Y-75791667D01*
X127901531Y-75764436D01*
X127955431Y-75730471D01*
X128004645Y-75685486D01*
X128045948Y-75633318D01*
X128076114Y-75577804D01*
X128088013Y-75542586D01*
X128093473Y-75520833D01*
X127735647Y-75520833D01*
X127377821Y-75520833D01*
X127400126Y-75422917D01*
X127422431Y-75325000D01*
X127767666Y-75320833D01*
X128112902Y-75316667D01*
X128169198Y-75288939D01*
X128205215Y-75268011D01*
X128241953Y-75241615D01*
X128267075Y-75219630D01*
X128295187Y-75187083D01*
X128321433Y-75148894D01*
X128342889Y-75110037D01*
X128356631Y-75075484D01*
X128359567Y-75062336D01*
X128362500Y-75041667D01*
X127883333Y-75041667D01*
X127404166Y-75041667D01*
X127347603Y-75068459D01*
X127299078Y-75096743D01*
X127252026Y-75133626D01*
X127210729Y-75175125D01*
X127179472Y-75217256D01*
X127171152Y-75232532D01*
X127160671Y-75258793D01*
X127148726Y-75295779D01*
X127137043Y-75337857D01*
X127130090Y-75366667D01*
X127124049Y-75393416D01*
X127114750Y-75434363D01*
X127102663Y-75487457D01*
X127088255Y-75550651D01*
X127071992Y-75621895D01*
X127054343Y-75699141D01*
X127035775Y-75780341D01*
X127017256Y-75861253D01*
X126999092Y-75940732D01*
X126982112Y-76015308D01*
X126966674Y-76083398D01*
X126953133Y-76143421D01*
X126941845Y-76193794D01*
X126933165Y-76232935D01*
X126927448Y-76259261D01*
X126925051Y-76271191D01*
X126925000Y-76271669D01*
X126662951Y-76271669D01*
X126683100Y-76184501D01*
X126712375Y-76057878D01*
X126745058Y-75916537D01*
X126775860Y-75783333D01*
X126802017Y-75670386D01*
X126827329Y-75561406D01*
X126851517Y-75457572D01*
X126874304Y-75360065D01*
X126895411Y-75270064D01*
X126914561Y-75188749D01*
X126931475Y-75117300D01*
X126945875Y-75056896D01*
X126957484Y-75008717D01*
X126966022Y-74973944D01*
X126971213Y-74953755D01*
X126972298Y-74950000D01*
X127011485Y-74854214D01*
X127065171Y-74763347D01*
X127131440Y-74679438D01*
X127208375Y-74604524D01*
X127294061Y-74540644D01*
X127386580Y-74489836D01*
X127417387Y-74476643D01*
X127440868Y-74467568D01*
X127463530Y-74459724D01*
X127486739Y-74453024D01*
X127511862Y-74447378D01*
X127540267Y-74442695D01*
X127573320Y-74438887D01*
X127612389Y-74435864D01*
X127658842Y-74433537D01*
X127714044Y-74431815D01*
X127779363Y-74430611D01*
X127856167Y-74429833D01*
X127945823Y-74429393D01*
X128049697Y-74429201D01*
X128142758Y-74429166D01*
X128250372Y-74429289D01*
G37*
G36*
X132045858Y-74430227D02*
G01*
X132101556Y-74430536D01*
X132146118Y-74431094D01*
X132180648Y-74431918D01*
X132206254Y-74433026D01*
X132224041Y-74434437D01*
X132235114Y-74436167D01*
X132240581Y-74438234D01*
X132241666Y-74439994D01*
X132239818Y-74450077D01*
X132234464Y-74475144D01*
X132225893Y-74513952D01*
X132214393Y-74565255D01*
X132200252Y-74627808D01*
X132183757Y-74700367D01*
X132165196Y-74781687D01*
X132144858Y-74870524D01*
X132123030Y-74965633D01*
X132100000Y-75065768D01*
X132076055Y-75169686D01*
X132051485Y-75276141D01*
X132026576Y-75383889D01*
X132001616Y-75491685D01*
X131976895Y-75598285D01*
X131952698Y-75702444D01*
X131929315Y-75802917D01*
X131907032Y-75898459D01*
X131886139Y-75987825D01*
X131866922Y-76069772D01*
X131849671Y-76143054D01*
X131834672Y-76206427D01*
X131822213Y-76258645D01*
X131812583Y-76298465D01*
X131806069Y-76324641D01*
X131803761Y-76333333D01*
X131765034Y-76440826D01*
X131712759Y-76539101D01*
X131647805Y-76627293D01*
X131571039Y-76704538D01*
X131483329Y-76769971D01*
X131385542Y-76822730D01*
X131278546Y-76861948D01*
X131270833Y-76864137D01*
X131257250Y-76867818D01*
X131244005Y-76870986D01*
X131229771Y-76873687D01*
X131213219Y-76875966D01*
X131193023Y-76877870D01*
X131167854Y-76879443D01*
X131136385Y-76880733D01*
X131097288Y-76881784D01*
X131049236Y-76882644D01*
X130990901Y-76883356D01*
X130920955Y-76883968D01*
X130838071Y-76884526D01*
X130740921Y-76885074D01*
X130651069Y-76885542D01*
X130097972Y-76888379D01*
X130102731Y-76869190D01*
X130105295Y-76858267D01*
X130111305Y-76832343D01*
X130120474Y-76792661D01*
X130132516Y-76740462D01*
X130147145Y-76676990D01*
X130164074Y-76603487D01*
X130183018Y-76521195D01*
X130203690Y-76431357D01*
X130225805Y-76335216D01*
X130249075Y-76234013D01*
X130261682Y-76179167D01*
X130300501Y-76010248D01*
X130335779Y-75856761D01*
X130367729Y-75717898D01*
X130396566Y-75592852D01*
X130422503Y-75480816D01*
X130445756Y-75380982D01*
X130466539Y-75292545D01*
X130485065Y-75214697D01*
X130501549Y-75146630D01*
X130509623Y-75114076D01*
X130702122Y-75114076D01*
X130709240Y-75158682D01*
X130723227Y-75201948D01*
X130739928Y-75233210D01*
X130764446Y-75263136D01*
X130792419Y-75285802D01*
X130826364Y-75302055D01*
X130868797Y-75312742D01*
X130922237Y-75318708D01*
X130989198Y-75320801D01*
X131000410Y-75320833D01*
X131045381Y-75321315D01*
X131075616Y-75322892D01*
X131093017Y-75325765D01*
X131099491Y-75330134D01*
X131099641Y-75331250D01*
X131097744Y-75341085D01*
X131092413Y-75365671D01*
X131083985Y-75403525D01*
X131072797Y-75453163D01*
X131059184Y-75513104D01*
X131043484Y-75581862D01*
X131026032Y-75657956D01*
X131007167Y-75739901D01*
X130992324Y-75804167D01*
X130972714Y-75889369D01*
X130954402Y-75969723D01*
X130937710Y-76043762D01*
X130922959Y-76110019D01*
X130910471Y-76167028D01*
X130900570Y-76213320D01*
X130893577Y-76247430D01*
X130889813Y-76267890D01*
X130889310Y-76273404D01*
X130894020Y-76276440D01*
X130904927Y-76276718D01*
X130924746Y-76273896D01*
X130956191Y-76267632D01*
X130985407Y-76261274D01*
X131038028Y-76242107D01*
X131090155Y-76209463D01*
X131138326Y-76166266D01*
X131179080Y-76115437D01*
X131199594Y-76080407D01*
X131203916Y-76067649D01*
X131211514Y-76040736D01*
X131221890Y-76001713D01*
X131234548Y-75952628D01*
X131248989Y-75895527D01*
X131264715Y-75832458D01*
X131281230Y-75765466D01*
X131298037Y-75696600D01*
X131314636Y-75627904D01*
X131330532Y-75561427D01*
X131345225Y-75499215D01*
X131358220Y-75443315D01*
X131369018Y-75395774D01*
X131377122Y-75358638D01*
X131382035Y-75333953D01*
X131383333Y-75324493D01*
X131391311Y-75323536D01*
X131413823Y-75322671D01*
X131448739Y-75321935D01*
X131493925Y-75321360D01*
X131547250Y-75320982D01*
X131606583Y-75320834D01*
X131611553Y-75320833D01*
X131839774Y-75320833D01*
X131845397Y-75283333D01*
X131846713Y-75224211D01*
X131833395Y-75168882D01*
X131806584Y-75120069D01*
X131767423Y-75080495D01*
X131757310Y-75073330D01*
X131722063Y-75050000D01*
X131215610Y-75047729D01*
X130709158Y-75045459D01*
X130703544Y-75075387D01*
X130702122Y-75114076D01*
X130509623Y-75114076D01*
X130516204Y-75087539D01*
X130529246Y-75036615D01*
X130540889Y-74993053D01*
X130551345Y-74956044D01*
X130560831Y-74924782D01*
X130569560Y-74898461D01*
X130577746Y-74876272D01*
X130585603Y-74857409D01*
X130593346Y-74841066D01*
X130601189Y-74826434D01*
X130609346Y-74812707D01*
X130618030Y-74799078D01*
X130627458Y-74784740D01*
X130634751Y-74773640D01*
X130703823Y-74682387D01*
X130783294Y-74604015D01*
X130872588Y-74538946D01*
X130971128Y-74487604D01*
X131070833Y-74452473D01*
X131084414Y-74448777D01*
X131097632Y-74445598D01*
X131111815Y-74442889D01*
X131128293Y-74440604D01*
X131148394Y-74438698D01*
X131173447Y-74437125D01*
X131204781Y-74435838D01*
X131243725Y-74434793D01*
X131291608Y-74433942D01*
X131349759Y-74433241D01*
X131419506Y-74432643D01*
X131502179Y-74432103D01*
X131599106Y-74431574D01*
X131689583Y-74431120D01*
X131800886Y-74430613D01*
X131896629Y-74430283D01*
X131977918Y-74430148D01*
X132045858Y-74430227D01*
G37*
G36*
X130377587Y-73880536D02*
G01*
X130442472Y-73880766D01*
X130496747Y-73881165D01*
X130539031Y-73881728D01*
X130567945Y-73882449D01*
X130582107Y-73883322D01*
X130583333Y-73883698D01*
X130581487Y-73892684D01*
X130576079Y-73917056D01*
X130567307Y-73955961D01*
X130555364Y-74008550D01*
X130540448Y-74073969D01*
X130522755Y-74151367D01*
X130502479Y-74239892D01*
X130479818Y-74338692D01*
X130454966Y-74446916D01*
X130428121Y-74563712D01*
X130399478Y-74688229D01*
X130369232Y-74819613D01*
X130337580Y-74957014D01*
X130304717Y-75099581D01*
X130270840Y-75246460D01*
X130236145Y-75396801D01*
X130200827Y-75549751D01*
X130165082Y-75704460D01*
X130129106Y-75860074D01*
X130093096Y-76015744D01*
X130066564Y-76130372D01*
X130040278Y-76243494D01*
X130014668Y-76352904D01*
X129990027Y-76457394D01*
X129966648Y-76555753D01*
X129944827Y-76646770D01*
X129924855Y-76729235D01*
X129907028Y-76801939D01*
X129891638Y-76863670D01*
X129878979Y-76913219D01*
X129869345Y-76949376D01*
X129863030Y-76970929D01*
X129861631Y-76974868D01*
X129823734Y-77052112D01*
X129773152Y-77128990D01*
X129713350Y-77201025D01*
X129647793Y-77263739D01*
X129622307Y-77284035D01*
X129558381Y-77326261D01*
X129485345Y-77364904D01*
X129410753Y-77396139D01*
X129381791Y-77405819D01*
X129369572Y-77409472D01*
X129357638Y-77412622D01*
X129344696Y-77415312D01*
X129329454Y-77417586D01*
X129310619Y-77419489D01*
X129286901Y-77421063D01*
X129257006Y-77422352D01*
X129219643Y-77423401D01*
X129173520Y-77424253D01*
X129117344Y-77424952D01*
X129049824Y-77425541D01*
X128969666Y-77426066D01*
X128875580Y-77426568D01*
X128766273Y-77427093D01*
X128752219Y-77427159D01*
X128637925Y-77427643D01*
X128539277Y-77427939D01*
X128455257Y-77428034D01*
X128384845Y-77427912D01*
X128327022Y-77427558D01*
X128280769Y-77426959D01*
X128245067Y-77426099D01*
X128218896Y-77424964D01*
X128201238Y-77423539D01*
X128191072Y-77421811D01*
X128187381Y-77419763D01*
X128187386Y-77419076D01*
X128189618Y-77409967D01*
X128195401Y-77385422D01*
X128204546Y-77346249D01*
X128216869Y-77293255D01*
X128232182Y-77227247D01*
X128250300Y-77149032D01*
X128271034Y-77059416D01*
X128294200Y-76959208D01*
X128319610Y-76849214D01*
X128347077Y-76730241D01*
X128376417Y-76603097D01*
X128407441Y-76468588D01*
X128439963Y-76327521D01*
X128452908Y-76271349D01*
X128700000Y-76271349D01*
X128700996Y-76276382D01*
X128706251Y-76278492D01*
X128719162Y-76277611D01*
X128743129Y-76273670D01*
X128762717Y-76270088D01*
X128828244Y-76250832D01*
X128888881Y-76217586D01*
X128942321Y-76173697D01*
X128975030Y-76138578D01*
X129001597Y-76100310D01*
X129023489Y-76055749D01*
X129042172Y-76001747D01*
X129059110Y-75935160D01*
X129064020Y-75912500D01*
X129087647Y-75800000D01*
X129437573Y-75795833D01*
X129787500Y-75791667D01*
X129833333Y-75770047D01*
X129877951Y-75744405D01*
X129916209Y-75711738D01*
X129949153Y-75670302D01*
X129977834Y-75618350D01*
X130003299Y-75554139D01*
X130026599Y-75475923D01*
X130038199Y-75429167D01*
X130053610Y-75359431D01*
X130063631Y-75302891D01*
X130068322Y-75256992D01*
X130067746Y-75219179D01*
X130061962Y-75186896D01*
X130051033Y-75157590D01*
X130044962Y-75145628D01*
X130011962Y-75101616D01*
X129967417Y-75067190D01*
X129916954Y-75045776D01*
X129902189Y-75044012D01*
X129871944Y-75042417D01*
X129827406Y-75041013D01*
X129769762Y-75039818D01*
X129700198Y-75038854D01*
X129619900Y-75038140D01*
X129530055Y-75037698D01*
X129435575Y-75037546D01*
X128983650Y-75037500D01*
X128979320Y-75056250D01*
X128975843Y-75071177D01*
X128969421Y-75098631D01*
X128960921Y-75134915D01*
X128951207Y-75176330D01*
X128949564Y-75183333D01*
X128936224Y-75240350D01*
X128920927Y-75306040D01*
X128904032Y-75378842D01*
X128885896Y-75457198D01*
X128866877Y-75539547D01*
X128847332Y-75624328D01*
X128827620Y-75709983D01*
X128808098Y-75794952D01*
X128789124Y-75877673D01*
X128771056Y-75956589D01*
X128754252Y-76030137D01*
X128739069Y-76096760D01*
X128725866Y-76154896D01*
X128714999Y-76202986D01*
X128706828Y-76239470D01*
X128701709Y-76262787D01*
X128700000Y-76271349D01*
X128452908Y-76271349D01*
X128473797Y-76180704D01*
X128508756Y-76028943D01*
X128537044Y-75906103D01*
X128576368Y-75735531D01*
X128614283Y-75571515D01*
X128650625Y-75414744D01*
X128685233Y-75265905D01*
X128717944Y-75125683D01*
X128748596Y-74994767D01*
X128777026Y-74873843D01*
X128803072Y-74763597D01*
X128826573Y-74664718D01*
X128847364Y-74577891D01*
X128865285Y-74503804D01*
X128880172Y-74443144D01*
X128891864Y-74396597D01*
X128900199Y-74364850D01*
X128905012Y-74348591D01*
X128905323Y-74347770D01*
X128942264Y-74268330D01*
X128987334Y-74196932D01*
X129043875Y-74128588D01*
X129071166Y-74100273D01*
X129121456Y-74052751D01*
X129168328Y-74015320D01*
X129217483Y-73984125D01*
X129274616Y-73955308D01*
X129305678Y-73941562D01*
X129330858Y-73930848D01*
X129353782Y-73921580D01*
X129375831Y-73913644D01*
X129398382Y-73906927D01*
X129422815Y-73901317D01*
X129450506Y-73896700D01*
X129482836Y-73892963D01*
X129521181Y-73889994D01*
X129566922Y-73887679D01*
X129621436Y-73885906D01*
X129686101Y-73884561D01*
X129762297Y-73883532D01*
X129851402Y-73882706D01*
X129954794Y-73881970D01*
X130039583Y-73881428D01*
X130133092Y-73880922D01*
X130221517Y-73880608D01*
X130303475Y-73880482D01*
X130377587Y-73880536D01*
G37*
%TO.C,SW1*%
D13*
X145640000Y-97320000D02*
X148360000Y-97320000D01*
X148360000Y-87100000D01*
X145640000Y-87100000D01*
X145640000Y-97320000D01*
%TO.C,J9*%
X120860000Y-81420000D02*
X120860000Y-84080000D01*
X156480000Y-81420000D02*
X120860000Y-81420000D01*
X156480000Y-81420000D02*
X156480000Y-84080000D01*
X156480000Y-84080000D02*
X120860000Y-84080000D01*
X159080000Y-82750000D02*
X159080000Y-84080000D01*
X159080000Y-84080000D02*
X157750000Y-84080000D01*
D14*
%TO.C,D8*%
X165505000Y-109497500D02*
X165505000Y-110672500D01*
X165505000Y-110672500D02*
X163790000Y-110672500D01*
X165505000Y-110672500D02*
X165505000Y-111847500D01*
X165505000Y-111847500D02*
X170205000Y-111847500D01*
X170205000Y-109497500D02*
X165505000Y-109497500D01*
X170205000Y-110672500D02*
X170205000Y-109497500D01*
X170205000Y-110672500D02*
X171920000Y-110672500D01*
X170205000Y-111847500D02*
X170205000Y-110672500D01*
D10*
X174455000Y-110672500D02*
G75*
G02*
X174255000Y-110672500I-100000J0D01*
G01*
X174255000Y-110672500D02*
G75*
G02*
X174455000Y-110672500I100000J0D01*
G01*
D14*
%TO.C,D7*%
X165505000Y-113247500D02*
X165505000Y-114422500D01*
X165505000Y-114422500D02*
X163790000Y-114422500D01*
X165505000Y-114422500D02*
X165505000Y-115597500D01*
X165505000Y-115597500D02*
X170205000Y-115597500D01*
X170205000Y-113247500D02*
X165505000Y-113247500D01*
X170205000Y-114422500D02*
X170205000Y-113247500D01*
X170205000Y-114422500D02*
X171920000Y-114422500D01*
X170205000Y-115597500D02*
X170205000Y-114422500D01*
D10*
X174455000Y-114422500D02*
G75*
G02*
X174255000Y-114422500I-100000J0D01*
G01*
X174255000Y-114422500D02*
G75*
G02*
X174455000Y-114422500I100000J0D01*
G01*
D13*
%TO.C,C1*%
X136170000Y-91210000D02*
X144330000Y-91210000D01*
X136170000Y-91250000D02*
X144330000Y-91250000D01*
X136171000Y-91170000D02*
X144329000Y-91170000D01*
X136172000Y-91130000D02*
X144328000Y-91130000D01*
X136173000Y-91090000D02*
X144327000Y-91090000D01*
X136175000Y-91050000D02*
X144325000Y-91050000D01*
X136177000Y-91010000D02*
X144323000Y-91010000D01*
X136180000Y-90970000D02*
X144320000Y-90970000D01*
X136182000Y-90930000D02*
X144318000Y-90930000D01*
X136186000Y-90890000D02*
X144314000Y-90890000D01*
X136189000Y-90850000D02*
X144311000Y-90850000D01*
X136194000Y-90810000D02*
X144306000Y-90810000D01*
X136198000Y-90770000D02*
X144302000Y-90770000D01*
X136203000Y-90730000D02*
X144297000Y-90730000D01*
X136208000Y-90690000D02*
X144292000Y-90690000D01*
X136214000Y-90650000D02*
X144286000Y-90650000D01*
X136220000Y-90610000D02*
X144280000Y-90610000D01*
X136227000Y-90570000D02*
X144273000Y-90570000D01*
X136233000Y-90530000D02*
X139210000Y-90530000D01*
X136241000Y-90490000D02*
X139210000Y-90490000D01*
X136248000Y-90450000D02*
X139210000Y-90450000D01*
X136257000Y-90410000D02*
X139210000Y-90410000D01*
X136265000Y-90370000D02*
X139210000Y-90370000D01*
X136274000Y-90330000D02*
X139210000Y-90330000D01*
X136283000Y-90290000D02*
X139210000Y-90290000D01*
X136293000Y-90250000D02*
X139210000Y-90250000D01*
X136303000Y-90210000D02*
X139210000Y-90210000D01*
X136314000Y-90170000D02*
X139210000Y-90170000D01*
X136325000Y-90130000D02*
X139210000Y-90130000D01*
X136337000Y-90090000D02*
X139210000Y-90090000D01*
X136349000Y-90050000D02*
X139210000Y-90050000D01*
X136361000Y-90010000D02*
X139210000Y-90010000D01*
X136374000Y-89970000D02*
X139210000Y-89970000D01*
X136387000Y-89930000D02*
X139210000Y-89930000D01*
X136401000Y-89890000D02*
X139210000Y-89890000D01*
X136415000Y-89850000D02*
X139210000Y-89850000D01*
X136430000Y-89810000D02*
X139210000Y-89810000D01*
X136445000Y-89770000D02*
X139210000Y-89770000D01*
X136461000Y-89730000D02*
X139210000Y-89730000D01*
X136477000Y-89690000D02*
X139210000Y-89690000D01*
X136493000Y-89650000D02*
X139210000Y-89650000D01*
X136510000Y-89610000D02*
X139210000Y-89610000D01*
X136528000Y-89570000D02*
X139210000Y-89570000D01*
X136546000Y-89530000D02*
X139210000Y-89530000D01*
X136565000Y-89490000D02*
X139210000Y-89490000D01*
X136584000Y-89450000D02*
X139210000Y-89450000D01*
X136604000Y-89410000D02*
X139210000Y-89410000D01*
X136624000Y-89370000D02*
X139210000Y-89370000D01*
X136645000Y-89330000D02*
X139210000Y-89330000D01*
X136666000Y-89290000D02*
X139210000Y-89290000D01*
X136688000Y-89250000D02*
X139210000Y-89250000D01*
X136711000Y-89210000D02*
X139210000Y-89210000D01*
X136734000Y-89170000D02*
X139210000Y-89170000D01*
X136757000Y-89130000D02*
X139210000Y-89130000D01*
X136782000Y-89090000D02*
X139210000Y-89090000D01*
X136807000Y-89050000D02*
X139210000Y-89050000D01*
X136832000Y-89010000D02*
X139210000Y-89010000D01*
X136858000Y-88970000D02*
X139210000Y-88970000D01*
X136885000Y-88930000D02*
X139210000Y-88930000D01*
X136913000Y-88890000D02*
X139210000Y-88890000D01*
X136941000Y-88850000D02*
X139210000Y-88850000D01*
X136970000Y-88810000D02*
X139210000Y-88810000D01*
X137000000Y-88770000D02*
X139210000Y-88770000D01*
X137031000Y-88730000D02*
X139210000Y-88730000D01*
X137062000Y-88690000D02*
X139210000Y-88690000D01*
X137094000Y-88650000D02*
X139210000Y-88650000D01*
X137127000Y-88610000D02*
X139210000Y-88610000D01*
X137161000Y-88570000D02*
X139210000Y-88570000D01*
X137195000Y-88530000D02*
X139210000Y-88530000D01*
X137231000Y-88490000D02*
X139210000Y-88490000D01*
X137268000Y-88450000D02*
X143232000Y-88450000D01*
X137305000Y-88410000D02*
X143195000Y-88410000D01*
X137344000Y-88370000D02*
X143156000Y-88370000D01*
X137383000Y-88330000D02*
X143117000Y-88330000D01*
X137424000Y-88290000D02*
X143076000Y-88290000D01*
X137466000Y-88250000D02*
X143034000Y-88250000D01*
X137509000Y-88210000D02*
X142991000Y-88210000D01*
X137535000Y-95259698D02*
X138335000Y-95259698D01*
X137554000Y-88170000D02*
X142946000Y-88170000D01*
X137599000Y-88130000D02*
X142901000Y-88130000D01*
X137646000Y-88090000D02*
X142854000Y-88090000D01*
X137695000Y-88050000D02*
X142805000Y-88050000D01*
X137745000Y-88010000D02*
X142755000Y-88010000D01*
X137797000Y-87970000D02*
X142703000Y-87970000D01*
X137850000Y-87930000D02*
X142650000Y-87930000D01*
X137906000Y-87890000D02*
X142594000Y-87890000D01*
X137935000Y-95659698D02*
X137935000Y-94859698D01*
X137963000Y-87850000D02*
X142537000Y-87850000D01*
X138023000Y-87810000D02*
X142477000Y-87810000D01*
X138085000Y-87770000D02*
X142415000Y-87770000D01*
X138149000Y-87730000D02*
X142351000Y-87730000D01*
X138216000Y-87690000D02*
X142284000Y-87690000D01*
X138286000Y-87650000D02*
X142214000Y-87650000D01*
X138360000Y-87610000D02*
X142140000Y-87610000D01*
X138437000Y-87570000D02*
X142063000Y-87570000D01*
X138519000Y-87530000D02*
X141981000Y-87530000D01*
X138606000Y-87490000D02*
X141894000Y-87490000D01*
X138698000Y-87450000D02*
X141802000Y-87450000D01*
X138797000Y-87410000D02*
X141703000Y-87410000D01*
X138904000Y-87370000D02*
X141596000Y-87370000D01*
X139022000Y-87330000D02*
X141478000Y-87330000D01*
X139153000Y-87290000D02*
X141347000Y-87290000D01*
X139303000Y-87250000D02*
X141197000Y-87250000D01*
X139482000Y-87210000D02*
X141018000Y-87210000D01*
X139717000Y-87170000D02*
X140783000Y-87170000D01*
X141290000Y-88490000D02*
X143269000Y-88490000D01*
X141290000Y-88530000D02*
X143305000Y-88530000D01*
X141290000Y-88570000D02*
X143339000Y-88570000D01*
X141290000Y-88610000D02*
X143373000Y-88610000D01*
X141290000Y-88650000D02*
X143406000Y-88650000D01*
X141290000Y-88690000D02*
X143438000Y-88690000D01*
X141290000Y-88730000D02*
X143469000Y-88730000D01*
X141290000Y-88770000D02*
X143500000Y-88770000D01*
X141290000Y-88810000D02*
X143530000Y-88810000D01*
X141290000Y-88850000D02*
X143559000Y-88850000D01*
X141290000Y-88890000D02*
X143587000Y-88890000D01*
X141290000Y-88930000D02*
X143615000Y-88930000D01*
X141290000Y-88970000D02*
X143642000Y-88970000D01*
X141290000Y-89010000D02*
X143668000Y-89010000D01*
X141290000Y-89050000D02*
X143693000Y-89050000D01*
X141290000Y-89090000D02*
X143718000Y-89090000D01*
X141290000Y-89130000D02*
X143743000Y-89130000D01*
X141290000Y-89170000D02*
X143766000Y-89170000D01*
X141290000Y-89210000D02*
X143789000Y-89210000D01*
X141290000Y-89250000D02*
X143812000Y-89250000D01*
X141290000Y-89290000D02*
X143834000Y-89290000D01*
X141290000Y-89330000D02*
X143855000Y-89330000D01*
X141290000Y-89370000D02*
X143876000Y-89370000D01*
X141290000Y-89410000D02*
X143896000Y-89410000D01*
X141290000Y-89450000D02*
X143916000Y-89450000D01*
X141290000Y-89490000D02*
X143935000Y-89490000D01*
X141290000Y-89530000D02*
X143954000Y-89530000D01*
X141290000Y-89570000D02*
X143972000Y-89570000D01*
X141290000Y-89610000D02*
X143990000Y-89610000D01*
X141290000Y-89650000D02*
X144007000Y-89650000D01*
X141290000Y-89690000D02*
X144023000Y-89690000D01*
X141290000Y-89730000D02*
X144039000Y-89730000D01*
X141290000Y-89770000D02*
X144055000Y-89770000D01*
X141290000Y-89810000D02*
X144070000Y-89810000D01*
X141290000Y-89850000D02*
X144085000Y-89850000D01*
X141290000Y-89890000D02*
X144099000Y-89890000D01*
X141290000Y-89930000D02*
X144113000Y-89930000D01*
X141290000Y-89970000D02*
X144126000Y-89970000D01*
X141290000Y-90010000D02*
X144139000Y-90010000D01*
X141290000Y-90050000D02*
X144151000Y-90050000D01*
X141290000Y-90090000D02*
X144163000Y-90090000D01*
X141290000Y-90130000D02*
X144175000Y-90130000D01*
X141290000Y-90170000D02*
X144186000Y-90170000D01*
X141290000Y-90210000D02*
X144197000Y-90210000D01*
X141290000Y-90250000D02*
X144207000Y-90250000D01*
X141290000Y-90290000D02*
X144217000Y-90290000D01*
X141290000Y-90330000D02*
X144226000Y-90330000D01*
X141290000Y-90370000D02*
X144235000Y-90370000D01*
X141290000Y-90410000D02*
X144243000Y-90410000D01*
X141290000Y-90450000D02*
X144252000Y-90450000D01*
X141290000Y-90490000D02*
X144259000Y-90490000D01*
X141290000Y-90530000D02*
X144267000Y-90530000D01*
X144370000Y-91250000D02*
G75*
G02*
X136130000Y-91250000I-4120000J0D01*
G01*
X136130000Y-91250000D02*
G75*
G02*
X144370000Y-91250000I4120000J0D01*
G01*
%TO.C,J2*%
X176260000Y-74030000D02*
X183700000Y-74030000D01*
X176260000Y-84070000D02*
X176260000Y-74030000D01*
X184300000Y-74030000D02*
X186660000Y-74030000D01*
X186660000Y-74030000D02*
X186660000Y-84070000D01*
X186660000Y-74650000D02*
X176260000Y-74650000D01*
X186660000Y-76150000D02*
X176260000Y-76150000D01*
X186660000Y-81050000D02*
X176260000Y-81050000D01*
X186660000Y-84070000D02*
X176260000Y-84070000D01*
X184000000Y-74030000D02*
X183560000Y-73420000D01*
X184440000Y-73420000D01*
X184000000Y-74030000D01*
G36*
X184000000Y-74030000D02*
G01*
X183560000Y-73420000D01*
X184440000Y-73420000D01*
X184000000Y-74030000D01*
G37*
%TO.C,J8*%
X124107500Y-86392349D02*
X134147500Y-86392349D01*
X124107500Y-88752349D02*
X124107500Y-86392349D01*
X124107500Y-96792349D02*
X124107500Y-89352349D01*
X124727500Y-86392349D02*
X124727500Y-96792349D01*
X126227500Y-86392349D02*
X126227500Y-96792349D01*
X131127500Y-86392349D02*
X131127500Y-96792349D01*
X134147500Y-86392349D02*
X134147500Y-96792349D01*
X134147500Y-96792349D02*
X124107500Y-96792349D01*
X124107500Y-89052349D02*
X123497500Y-89492349D01*
X123497500Y-88612349D01*
X124107500Y-89052349D01*
G36*
X124107500Y-89052349D02*
G01*
X123497500Y-89492349D01*
X123497500Y-88612349D01*
X124107500Y-89052349D01*
G37*
%TO.C,J6*%
X124070000Y-99467349D02*
X125450000Y-99467349D01*
X124070000Y-100847349D02*
X124070000Y-99467349D01*
X124070000Y-102117349D02*
X124070000Y-107307349D01*
X124070000Y-102117349D02*
X126830000Y-102117349D01*
X124070000Y-107307349D02*
X126830000Y-107307349D01*
X126830000Y-102117349D02*
X126830000Y-107307349D01*
%TO.C,U2*%
X129640000Y-97947349D02*
X134260000Y-97947349D01*
X129640000Y-108167349D02*
X129640000Y-97947349D01*
X132880000Y-97947349D02*
X132880000Y-108167349D01*
X134260000Y-97947349D02*
X134260000Y-108167349D01*
X134260000Y-101207349D02*
X132880000Y-101207349D01*
X134260000Y-104907349D02*
X132880000Y-104907349D01*
X134260000Y-108167349D02*
X129640000Y-108167349D01*
%TO.C,C2*%
X136170000Y-100460000D02*
X144330000Y-100460000D01*
X136170000Y-100500000D02*
X144330000Y-100500000D01*
X136171000Y-100420000D02*
X144329000Y-100420000D01*
X136172000Y-100380000D02*
X144328000Y-100380000D01*
X136173000Y-100340000D02*
X144327000Y-100340000D01*
X136175000Y-100300000D02*
X144325000Y-100300000D01*
X136177000Y-100260000D02*
X144323000Y-100260000D01*
X136180000Y-100220000D02*
X144320000Y-100220000D01*
X136182000Y-100180000D02*
X144318000Y-100180000D01*
X136186000Y-100140000D02*
X144314000Y-100140000D01*
X136189000Y-100100000D02*
X144311000Y-100100000D01*
X136194000Y-100060000D02*
X144306000Y-100060000D01*
X136198000Y-100020000D02*
X144302000Y-100020000D01*
X136203000Y-99980000D02*
X144297000Y-99980000D01*
X136208000Y-99940000D02*
X144292000Y-99940000D01*
X136214000Y-99900000D02*
X144286000Y-99900000D01*
X136220000Y-99860000D02*
X144280000Y-99860000D01*
X136227000Y-99820000D02*
X144273000Y-99820000D01*
X136233000Y-99780000D02*
X139210000Y-99780000D01*
X136241000Y-99740000D02*
X139210000Y-99740000D01*
X136248000Y-99700000D02*
X139210000Y-99700000D01*
X136257000Y-99660000D02*
X139210000Y-99660000D01*
X136265000Y-99620000D02*
X139210000Y-99620000D01*
X136274000Y-99580000D02*
X139210000Y-99580000D01*
X136283000Y-99540000D02*
X139210000Y-99540000D01*
X136293000Y-99500000D02*
X139210000Y-99500000D01*
X136303000Y-99460000D02*
X139210000Y-99460000D01*
X136314000Y-99420000D02*
X139210000Y-99420000D01*
X136325000Y-99380000D02*
X139210000Y-99380000D01*
X136337000Y-99340000D02*
X139210000Y-99340000D01*
X136349000Y-99300000D02*
X139210000Y-99300000D01*
X136361000Y-99260000D02*
X139210000Y-99260000D01*
X136374000Y-99220000D02*
X139210000Y-99220000D01*
X136387000Y-99180000D02*
X139210000Y-99180000D01*
X136401000Y-99140000D02*
X139210000Y-99140000D01*
X136415000Y-99100000D02*
X139210000Y-99100000D01*
X136430000Y-99060000D02*
X139210000Y-99060000D01*
X136445000Y-99020000D02*
X139210000Y-99020000D01*
X136461000Y-98980000D02*
X139210000Y-98980000D01*
X136477000Y-98940000D02*
X139210000Y-98940000D01*
X136493000Y-98900000D02*
X139210000Y-98900000D01*
X136510000Y-98860000D02*
X139210000Y-98860000D01*
X136528000Y-98820000D02*
X139210000Y-98820000D01*
X136546000Y-98780000D02*
X139210000Y-98780000D01*
X136565000Y-98740000D02*
X139210000Y-98740000D01*
X136584000Y-98700000D02*
X139210000Y-98700000D01*
X136604000Y-98660000D02*
X139210000Y-98660000D01*
X136624000Y-98620000D02*
X139210000Y-98620000D01*
X136645000Y-98580000D02*
X139210000Y-98580000D01*
X136666000Y-98540000D02*
X139210000Y-98540000D01*
X136688000Y-98500000D02*
X139210000Y-98500000D01*
X136711000Y-98460000D02*
X139210000Y-98460000D01*
X136734000Y-98420000D02*
X139210000Y-98420000D01*
X136757000Y-98380000D02*
X139210000Y-98380000D01*
X136782000Y-98340000D02*
X139210000Y-98340000D01*
X136807000Y-98300000D02*
X139210000Y-98300000D01*
X136832000Y-98260000D02*
X139210000Y-98260000D01*
X136858000Y-98220000D02*
X139210000Y-98220000D01*
X136885000Y-98180000D02*
X139210000Y-98180000D01*
X136913000Y-98140000D02*
X139210000Y-98140000D01*
X136941000Y-98100000D02*
X139210000Y-98100000D01*
X136970000Y-98060000D02*
X139210000Y-98060000D01*
X137000000Y-98020000D02*
X139210000Y-98020000D01*
X137031000Y-97980000D02*
X139210000Y-97980000D01*
X137062000Y-97940000D02*
X139210000Y-97940000D01*
X137094000Y-97900000D02*
X139210000Y-97900000D01*
X137127000Y-97860000D02*
X139210000Y-97860000D01*
X137161000Y-97820000D02*
X139210000Y-97820000D01*
X137195000Y-97780000D02*
X139210000Y-97780000D01*
X137231000Y-97740000D02*
X139210000Y-97740000D01*
X137268000Y-97700000D02*
X143232000Y-97700000D01*
X137305000Y-97660000D02*
X143195000Y-97660000D01*
X137344000Y-97620000D02*
X143156000Y-97620000D01*
X137383000Y-97580000D02*
X143117000Y-97580000D01*
X137424000Y-97540000D02*
X143076000Y-97540000D01*
X137466000Y-97500000D02*
X143034000Y-97500000D01*
X137509000Y-97460000D02*
X142991000Y-97460000D01*
X137535000Y-104509698D02*
X138335000Y-104509698D01*
X137554000Y-97420000D02*
X142946000Y-97420000D01*
X137599000Y-97380000D02*
X142901000Y-97380000D01*
X137646000Y-97340000D02*
X142854000Y-97340000D01*
X137695000Y-97300000D02*
X142805000Y-97300000D01*
X137745000Y-97260000D02*
X142755000Y-97260000D01*
X137797000Y-97220000D02*
X142703000Y-97220000D01*
X137850000Y-97180000D02*
X142650000Y-97180000D01*
X137906000Y-97140000D02*
X142594000Y-97140000D01*
X137935000Y-104909698D02*
X137935000Y-104109698D01*
X137963000Y-97100000D02*
X142537000Y-97100000D01*
X138023000Y-97060000D02*
X142477000Y-97060000D01*
X138085000Y-97020000D02*
X142415000Y-97020000D01*
X138149000Y-96980000D02*
X142351000Y-96980000D01*
X138216000Y-96940000D02*
X142284000Y-96940000D01*
X138286000Y-96900000D02*
X142214000Y-96900000D01*
X138360000Y-96860000D02*
X142140000Y-96860000D01*
X138437000Y-96820000D02*
X142063000Y-96820000D01*
X138519000Y-96780000D02*
X141981000Y-96780000D01*
X138606000Y-96740000D02*
X141894000Y-96740000D01*
X138698000Y-96700000D02*
X141802000Y-96700000D01*
X138797000Y-96660000D02*
X141703000Y-96660000D01*
X138904000Y-96620000D02*
X141596000Y-96620000D01*
X139022000Y-96580000D02*
X141478000Y-96580000D01*
X139153000Y-96540000D02*
X141347000Y-96540000D01*
X139303000Y-96500000D02*
X141197000Y-96500000D01*
X139482000Y-96460000D02*
X141018000Y-96460000D01*
X139717000Y-96420000D02*
X140783000Y-96420000D01*
X141290000Y-97740000D02*
X143269000Y-97740000D01*
X141290000Y-97780000D02*
X143305000Y-97780000D01*
X141290000Y-97820000D02*
X143339000Y-97820000D01*
X141290000Y-97860000D02*
X143373000Y-97860000D01*
X141290000Y-97900000D02*
X143406000Y-97900000D01*
X141290000Y-97940000D02*
X143438000Y-97940000D01*
X141290000Y-97980000D02*
X143469000Y-97980000D01*
X141290000Y-98020000D02*
X143500000Y-98020000D01*
X141290000Y-98060000D02*
X143530000Y-98060000D01*
X141290000Y-98100000D02*
X143559000Y-98100000D01*
X141290000Y-98140000D02*
X143587000Y-98140000D01*
X141290000Y-98180000D02*
X143615000Y-98180000D01*
X141290000Y-98220000D02*
X143642000Y-98220000D01*
X141290000Y-98260000D02*
X143668000Y-98260000D01*
X141290000Y-98300000D02*
X143693000Y-98300000D01*
X141290000Y-98340000D02*
X143718000Y-98340000D01*
X141290000Y-98380000D02*
X143743000Y-98380000D01*
X141290000Y-98420000D02*
X143766000Y-98420000D01*
X141290000Y-98460000D02*
X143789000Y-98460000D01*
X141290000Y-98500000D02*
X143812000Y-98500000D01*
X141290000Y-98540000D02*
X143834000Y-98540000D01*
X141290000Y-98580000D02*
X143855000Y-98580000D01*
X141290000Y-98620000D02*
X143876000Y-98620000D01*
X141290000Y-98660000D02*
X143896000Y-98660000D01*
X141290000Y-98700000D02*
X143916000Y-98700000D01*
X141290000Y-98740000D02*
X143935000Y-98740000D01*
X141290000Y-98780000D02*
X143954000Y-98780000D01*
X141290000Y-98820000D02*
X143972000Y-98820000D01*
X141290000Y-98860000D02*
X143990000Y-98860000D01*
X141290000Y-98900000D02*
X144007000Y-98900000D01*
X141290000Y-98940000D02*
X144023000Y-98940000D01*
X141290000Y-98980000D02*
X144039000Y-98980000D01*
X141290000Y-99020000D02*
X144055000Y-99020000D01*
X141290000Y-99060000D02*
X144070000Y-99060000D01*
X141290000Y-99100000D02*
X144085000Y-99100000D01*
X141290000Y-99140000D02*
X144099000Y-99140000D01*
X141290000Y-99180000D02*
X144113000Y-99180000D01*
X141290000Y-99220000D02*
X144126000Y-99220000D01*
X141290000Y-99260000D02*
X144139000Y-99260000D01*
X141290000Y-99300000D02*
X144151000Y-99300000D01*
X141290000Y-99340000D02*
X144163000Y-99340000D01*
X141290000Y-99380000D02*
X144175000Y-99380000D01*
X141290000Y-99420000D02*
X144186000Y-99420000D01*
X141290000Y-99460000D02*
X144197000Y-99460000D01*
X141290000Y-99500000D02*
X144207000Y-99500000D01*
X141290000Y-99540000D02*
X144217000Y-99540000D01*
X141290000Y-99580000D02*
X144226000Y-99580000D01*
X141290000Y-99620000D02*
X144235000Y-99620000D01*
X141290000Y-99660000D02*
X144243000Y-99660000D01*
X141290000Y-99700000D02*
X144252000Y-99700000D01*
X141290000Y-99740000D02*
X144259000Y-99740000D01*
X141290000Y-99780000D02*
X144267000Y-99780000D01*
X144370000Y-100500000D02*
G75*
G02*
X136130000Y-100500000I-4120000J0D01*
G01*
X136130000Y-100500000D02*
G75*
G02*
X144370000Y-100500000I4120000J0D01*
G01*
D14*
%TO.C,D1*%
X157650000Y-87075000D02*
X157650000Y-88250000D01*
X157650000Y-88250000D02*
X155935000Y-88250000D01*
X157650000Y-88250000D02*
X157650000Y-89425000D01*
X157650000Y-89425000D02*
X162350000Y-89425000D01*
X162350000Y-87075000D02*
X157650000Y-87075000D01*
X162350000Y-88250000D02*
X162350000Y-87075000D01*
X162350000Y-88250000D02*
X164065000Y-88250000D01*
X162350000Y-89425000D02*
X162350000Y-88250000D01*
D10*
X153600000Y-88250000D02*
G75*
G02*
X153400000Y-88250000I-100000J0D01*
G01*
X153400000Y-88250000D02*
G75*
G02*
X153600000Y-88250000I100000J0D01*
G01*
%TD*%
M02*
