%TF.GenerationSoftware,KiCad,Pcbnew,9.0.7*%
%TF.CreationDate,2026-03-04T19:17:40+07:00*%
%TF.ProjectId,H-Bridge Module,482d4272-6964-4676-9520-4d6f64756c65,rev?*%
%TF.SameCoordinates,Original*%
%TF.FileFunction,Legend,Bot*%
%TF.FilePolarity,Positive*%
%FSLAX46Y46*%
G04 Gerber Fmt 4.6, Leading zero omitted, Abs format (unit mm)*
G04 Created by KiCad (PCBNEW 9.0.7) date 2026-03-04 19:17:40*
%MOMM*%
%LPD*%
G01*
G04 APERTURE LIST*
%ADD10C,0.200000*%
G04 APERTURE END LIST*
D10*
X134906590Y-80880326D02*
X134906590Y-80546993D01*
X134382780Y-80404136D02*
X134382780Y-80880326D01*
X134382780Y-80880326D02*
X135382780Y-80880326D01*
X135382780Y-80880326D02*
X135382780Y-80404136D01*
X134382780Y-79975564D02*
X135382780Y-79975564D01*
X135382780Y-79975564D02*
X134382780Y-79404136D01*
X134382780Y-79404136D02*
X135382780Y-79404136D01*
X134906590Y-78594612D02*
X134858971Y-78451755D01*
X134858971Y-78451755D02*
X134811352Y-78404136D01*
X134811352Y-78404136D02*
X134716114Y-78356517D01*
X134716114Y-78356517D02*
X134573257Y-78356517D01*
X134573257Y-78356517D02*
X134478019Y-78404136D01*
X134478019Y-78404136D02*
X134430400Y-78451755D01*
X134430400Y-78451755D02*
X134382780Y-78546993D01*
X134382780Y-78546993D02*
X134382780Y-78927945D01*
X134382780Y-78927945D02*
X135382780Y-78927945D01*
X135382780Y-78927945D02*
X135382780Y-78594612D01*
X135382780Y-78594612D02*
X135335161Y-78499374D01*
X135335161Y-78499374D02*
X135287542Y-78451755D01*
X135287542Y-78451755D02*
X135192304Y-78404136D01*
X135192304Y-78404136D02*
X135097066Y-78404136D01*
X135097066Y-78404136D02*
X135001828Y-78451755D01*
X135001828Y-78451755D02*
X134954209Y-78499374D01*
X134954209Y-78499374D02*
X134906590Y-78594612D01*
X134906590Y-78594612D02*
X134906590Y-78927945D01*
X135430400Y-77213660D02*
X134144685Y-78070802D01*
X134382780Y-76880326D02*
X135382780Y-76880326D01*
X135382780Y-76880326D02*
X135382780Y-76642231D01*
X135382780Y-76642231D02*
X135335161Y-76499374D01*
X135335161Y-76499374D02*
X135239923Y-76404136D01*
X135239923Y-76404136D02*
X135144685Y-76356517D01*
X135144685Y-76356517D02*
X134954209Y-76308898D01*
X134954209Y-76308898D02*
X134811352Y-76308898D01*
X134811352Y-76308898D02*
X134620876Y-76356517D01*
X134620876Y-76356517D02*
X134525638Y-76404136D01*
X134525638Y-76404136D02*
X134430400Y-76499374D01*
X134430400Y-76499374D02*
X134382780Y-76642231D01*
X134382780Y-76642231D02*
X134382780Y-76880326D01*
X135382780Y-75975564D02*
X135382780Y-75356517D01*
X135382780Y-75356517D02*
X135001828Y-75689850D01*
X135001828Y-75689850D02*
X135001828Y-75546993D01*
X135001828Y-75546993D02*
X134954209Y-75451755D01*
X134954209Y-75451755D02*
X134906590Y-75404136D01*
X134906590Y-75404136D02*
X134811352Y-75356517D01*
X134811352Y-75356517D02*
X134573257Y-75356517D01*
X134573257Y-75356517D02*
X134478019Y-75404136D01*
X134478019Y-75404136D02*
X134430400Y-75451755D01*
X134430400Y-75451755D02*
X134382780Y-75546993D01*
X134382780Y-75546993D02*
X134382780Y-75832707D01*
X134382780Y-75832707D02*
X134430400Y-75927945D01*
X134430400Y-75927945D02*
X134478019Y-75975564D01*
X135287542Y-74975564D02*
X135335161Y-74927945D01*
X135335161Y-74927945D02*
X135382780Y-74832707D01*
X135382780Y-74832707D02*
X135382780Y-74594612D01*
X135382780Y-74594612D02*
X135335161Y-74499374D01*
X135335161Y-74499374D02*
X135287542Y-74451755D01*
X135287542Y-74451755D02*
X135192304Y-74404136D01*
X135192304Y-74404136D02*
X135097066Y-74404136D01*
X135097066Y-74404136D02*
X134954209Y-74451755D01*
X134954209Y-74451755D02*
X134382780Y-75023183D01*
X134382780Y-75023183D02*
X134382780Y-74404136D01*
X147656590Y-80630326D02*
X147656590Y-80296993D01*
X147132780Y-80154136D02*
X147132780Y-80630326D01*
X147132780Y-80630326D02*
X148132780Y-80630326D01*
X148132780Y-80630326D02*
X148132780Y-80154136D01*
X147132780Y-79725564D02*
X148132780Y-79725564D01*
X148132780Y-79725564D02*
X147132780Y-79154136D01*
X147132780Y-79154136D02*
X148132780Y-79154136D01*
X147418495Y-78725564D02*
X147418495Y-78249374D01*
X147132780Y-78820802D02*
X148132780Y-78487469D01*
X148132780Y-78487469D02*
X147132780Y-78154136D01*
X148180400Y-77106517D02*
X146894685Y-77963659D01*
X147132780Y-76773183D02*
X148132780Y-76773183D01*
X148132780Y-76773183D02*
X148132780Y-76535088D01*
X148132780Y-76535088D02*
X148085161Y-76392231D01*
X148085161Y-76392231D02*
X147989923Y-76296993D01*
X147989923Y-76296993D02*
X147894685Y-76249374D01*
X147894685Y-76249374D02*
X147704209Y-76201755D01*
X147704209Y-76201755D02*
X147561352Y-76201755D01*
X147561352Y-76201755D02*
X147370876Y-76249374D01*
X147370876Y-76249374D02*
X147275638Y-76296993D01*
X147275638Y-76296993D02*
X147180400Y-76392231D01*
X147180400Y-76392231D02*
X147132780Y-76535088D01*
X147132780Y-76535088D02*
X147132780Y-76773183D01*
X147132780Y-75249374D02*
X147132780Y-75820802D01*
X147132780Y-75535088D02*
X148132780Y-75535088D01*
X148132780Y-75535088D02*
X147989923Y-75630326D01*
X147989923Y-75630326D02*
X147894685Y-75725564D01*
X147894685Y-75725564D02*
X147847066Y-75820802D01*
X147799447Y-74392231D02*
X147132780Y-74392231D01*
X148180400Y-74630326D02*
X147466114Y-74868421D01*
X147466114Y-74868421D02*
X147466114Y-74249374D01*
X137132780Y-80630326D02*
X138132780Y-80630326D01*
X137132780Y-80154136D02*
X138132780Y-80154136D01*
X138132780Y-80154136D02*
X137132780Y-79582708D01*
X137132780Y-79582708D02*
X138132780Y-79582708D01*
X137799447Y-78677946D02*
X137132780Y-78677946D01*
X138180400Y-78916041D02*
X137466114Y-79154136D01*
X137466114Y-79154136D02*
X137466114Y-78535089D01*
X138180400Y-77439851D02*
X136894685Y-78296993D01*
X137132780Y-77106517D02*
X138132780Y-77106517D01*
X138132780Y-77106517D02*
X138132780Y-76868422D01*
X138132780Y-76868422D02*
X138085161Y-76725565D01*
X138085161Y-76725565D02*
X137989923Y-76630327D01*
X137989923Y-76630327D02*
X137894685Y-76582708D01*
X137894685Y-76582708D02*
X137704209Y-76535089D01*
X137704209Y-76535089D02*
X137561352Y-76535089D01*
X137561352Y-76535089D02*
X137370876Y-76582708D01*
X137370876Y-76582708D02*
X137275638Y-76630327D01*
X137275638Y-76630327D02*
X137180400Y-76725565D01*
X137180400Y-76725565D02*
X137132780Y-76868422D01*
X137132780Y-76868422D02*
X137132780Y-77106517D01*
X138132780Y-76201755D02*
X138132780Y-75582708D01*
X138132780Y-75582708D02*
X137751828Y-75916041D01*
X137751828Y-75916041D02*
X137751828Y-75773184D01*
X137751828Y-75773184D02*
X137704209Y-75677946D01*
X137704209Y-75677946D02*
X137656590Y-75630327D01*
X137656590Y-75630327D02*
X137561352Y-75582708D01*
X137561352Y-75582708D02*
X137323257Y-75582708D01*
X137323257Y-75582708D02*
X137228019Y-75630327D01*
X137228019Y-75630327D02*
X137180400Y-75677946D01*
X137180400Y-75677946D02*
X137132780Y-75773184D01*
X137132780Y-75773184D02*
X137132780Y-76058898D01*
X137132780Y-76058898D02*
X137180400Y-76154136D01*
X137180400Y-76154136D02*
X137228019Y-76201755D01*
X138132780Y-75249374D02*
X138132780Y-74630327D01*
X138132780Y-74630327D02*
X137751828Y-74963660D01*
X137751828Y-74963660D02*
X137751828Y-74820803D01*
X137751828Y-74820803D02*
X137704209Y-74725565D01*
X137704209Y-74725565D02*
X137656590Y-74677946D01*
X137656590Y-74677946D02*
X137561352Y-74630327D01*
X137561352Y-74630327D02*
X137323257Y-74630327D01*
X137323257Y-74630327D02*
X137228019Y-74677946D01*
X137228019Y-74677946D02*
X137180400Y-74725565D01*
X137180400Y-74725565D02*
X137132780Y-74820803D01*
X137132780Y-74820803D02*
X137132780Y-75106517D01*
X137132780Y-75106517D02*
X137180400Y-75201755D01*
X137180400Y-75201755D02*
X137228019Y-75249374D01*
X152132780Y-80630326D02*
X153132780Y-80630326D01*
X153132780Y-80630326D02*
X153132780Y-80392231D01*
X153132780Y-80392231D02*
X153085161Y-80249374D01*
X153085161Y-80249374D02*
X152989923Y-80154136D01*
X152989923Y-80154136D02*
X152894685Y-80106517D01*
X152894685Y-80106517D02*
X152704209Y-80058898D01*
X152704209Y-80058898D02*
X152561352Y-80058898D01*
X152561352Y-80058898D02*
X152370876Y-80106517D01*
X152370876Y-80106517D02*
X152275638Y-80154136D01*
X152275638Y-80154136D02*
X152180400Y-80249374D01*
X152180400Y-80249374D02*
X152132780Y-80392231D01*
X152132780Y-80392231D02*
X152132780Y-80630326D01*
X152132780Y-79106517D02*
X152132780Y-79677945D01*
X152132780Y-79392231D02*
X153132780Y-79392231D01*
X153132780Y-79392231D02*
X152989923Y-79487469D01*
X152989923Y-79487469D02*
X152894685Y-79582707D01*
X152894685Y-79582707D02*
X152847066Y-79677945D01*
X153132780Y-78773183D02*
X153132780Y-78154136D01*
X153132780Y-78154136D02*
X152751828Y-78487469D01*
X152751828Y-78487469D02*
X152751828Y-78344612D01*
X152751828Y-78344612D02*
X152704209Y-78249374D01*
X152704209Y-78249374D02*
X152656590Y-78201755D01*
X152656590Y-78201755D02*
X152561352Y-78154136D01*
X152561352Y-78154136D02*
X152323257Y-78154136D01*
X152323257Y-78154136D02*
X152228019Y-78201755D01*
X152228019Y-78201755D02*
X152180400Y-78249374D01*
X152180400Y-78249374D02*
X152132780Y-78344612D01*
X152132780Y-78344612D02*
X152132780Y-78630326D01*
X152132780Y-78630326D02*
X152180400Y-78725564D01*
X152180400Y-78725564D02*
X152228019Y-78773183D01*
X158382780Y-80773183D02*
X157382780Y-80439850D01*
X157382780Y-80439850D02*
X158382780Y-80106517D01*
X157382780Y-79773183D02*
X158382780Y-79773183D01*
X157382780Y-79296993D02*
X158382780Y-79296993D01*
X158382780Y-79296993D02*
X157382780Y-78725565D01*
X157382780Y-78725565D02*
X158382780Y-78725565D01*
X149632780Y-80630326D02*
X150632780Y-80630326D01*
X150632780Y-80630326D02*
X150632780Y-80392231D01*
X150632780Y-80392231D02*
X150585161Y-80249374D01*
X150585161Y-80249374D02*
X150489923Y-80154136D01*
X150489923Y-80154136D02*
X150394685Y-80106517D01*
X150394685Y-80106517D02*
X150204209Y-80058898D01*
X150204209Y-80058898D02*
X150061352Y-80058898D01*
X150061352Y-80058898D02*
X149870876Y-80106517D01*
X149870876Y-80106517D02*
X149775638Y-80154136D01*
X149775638Y-80154136D02*
X149680400Y-80249374D01*
X149680400Y-80249374D02*
X149632780Y-80392231D01*
X149632780Y-80392231D02*
X149632780Y-80630326D01*
X149632780Y-79106517D02*
X149632780Y-79677945D01*
X149632780Y-79392231D02*
X150632780Y-79392231D01*
X150632780Y-79392231D02*
X150489923Y-79487469D01*
X150489923Y-79487469D02*
X150394685Y-79582707D01*
X150394685Y-79582707D02*
X150347066Y-79677945D01*
X150537542Y-78725564D02*
X150585161Y-78677945D01*
X150585161Y-78677945D02*
X150632780Y-78582707D01*
X150632780Y-78582707D02*
X150632780Y-78344612D01*
X150632780Y-78344612D02*
X150585161Y-78249374D01*
X150585161Y-78249374D02*
X150537542Y-78201755D01*
X150537542Y-78201755D02*
X150442304Y-78154136D01*
X150442304Y-78154136D02*
X150347066Y-78154136D01*
X150347066Y-78154136D02*
X150204209Y-78201755D01*
X150204209Y-78201755D02*
X149632780Y-78773183D01*
X149632780Y-78773183D02*
X149632780Y-78154136D01*
X131632780Y-80880326D02*
X132632780Y-80880326D01*
X132632780Y-80880326D02*
X132632780Y-80642231D01*
X132632780Y-80642231D02*
X132585161Y-80499374D01*
X132585161Y-80499374D02*
X132489923Y-80404136D01*
X132489923Y-80404136D02*
X132394685Y-80356517D01*
X132394685Y-80356517D02*
X132204209Y-80308898D01*
X132204209Y-80308898D02*
X132061352Y-80308898D01*
X132061352Y-80308898D02*
X131870876Y-80356517D01*
X131870876Y-80356517D02*
X131775638Y-80404136D01*
X131775638Y-80404136D02*
X131680400Y-80499374D01*
X131680400Y-80499374D02*
X131632780Y-80642231D01*
X131632780Y-80642231D02*
X131632780Y-80880326D01*
X132632780Y-79975564D02*
X132632780Y-79356517D01*
X132632780Y-79356517D02*
X132251828Y-79689850D01*
X132251828Y-79689850D02*
X132251828Y-79546993D01*
X132251828Y-79546993D02*
X132204209Y-79451755D01*
X132204209Y-79451755D02*
X132156590Y-79404136D01*
X132156590Y-79404136D02*
X132061352Y-79356517D01*
X132061352Y-79356517D02*
X131823257Y-79356517D01*
X131823257Y-79356517D02*
X131728019Y-79404136D01*
X131728019Y-79404136D02*
X131680400Y-79451755D01*
X131680400Y-79451755D02*
X131632780Y-79546993D01*
X131632780Y-79546993D02*
X131632780Y-79832707D01*
X131632780Y-79832707D02*
X131680400Y-79927945D01*
X131680400Y-79927945D02*
X131728019Y-79975564D01*
X132632780Y-78451755D02*
X132632780Y-78927945D01*
X132632780Y-78927945D02*
X132156590Y-78975564D01*
X132156590Y-78975564D02*
X132204209Y-78927945D01*
X132204209Y-78927945D02*
X132251828Y-78832707D01*
X132251828Y-78832707D02*
X132251828Y-78594612D01*
X132251828Y-78594612D02*
X132204209Y-78499374D01*
X132204209Y-78499374D02*
X132156590Y-78451755D01*
X132156590Y-78451755D02*
X132061352Y-78404136D01*
X132061352Y-78404136D02*
X131823257Y-78404136D01*
X131823257Y-78404136D02*
X131728019Y-78451755D01*
X131728019Y-78451755D02*
X131680400Y-78499374D01*
X131680400Y-78499374D02*
X131632780Y-78594612D01*
X131632780Y-78594612D02*
X131632780Y-78832707D01*
X131632780Y-78832707D02*
X131680400Y-78927945D01*
X131680400Y-78927945D02*
X131728019Y-78975564D01*
X127632780Y-80773183D02*
X126632780Y-80439850D01*
X126632780Y-80439850D02*
X127632780Y-80106517D01*
X126632780Y-79773183D02*
X127632780Y-79773183D01*
X127632780Y-79773183D02*
X126632780Y-79201755D01*
X126632780Y-79201755D02*
X127632780Y-79201755D01*
X125132780Y-80773183D02*
X124132780Y-80439850D01*
X124132780Y-80439850D02*
X125132780Y-80106517D01*
X124132780Y-79773183D02*
X125132780Y-79773183D01*
X125132780Y-79773183D02*
X125132780Y-79392231D01*
X125132780Y-79392231D02*
X125085161Y-79296993D01*
X125085161Y-79296993D02*
X125037542Y-79249374D01*
X125037542Y-79249374D02*
X124942304Y-79201755D01*
X124942304Y-79201755D02*
X124799447Y-79201755D01*
X124799447Y-79201755D02*
X124704209Y-79249374D01*
X124704209Y-79249374D02*
X124656590Y-79296993D01*
X124656590Y-79296993D02*
X124608971Y-79392231D01*
X124608971Y-79392231D02*
X124608971Y-79773183D01*
X141882780Y-80630326D02*
X142882780Y-80630326D01*
X141882780Y-80154136D02*
X142882780Y-80154136D01*
X142882780Y-80154136D02*
X141882780Y-79582708D01*
X141882780Y-79582708D02*
X142882780Y-79582708D01*
X142787542Y-79154136D02*
X142835161Y-79106517D01*
X142835161Y-79106517D02*
X142882780Y-79011279D01*
X142882780Y-79011279D02*
X142882780Y-78773184D01*
X142882780Y-78773184D02*
X142835161Y-78677946D01*
X142835161Y-78677946D02*
X142787542Y-78630327D01*
X142787542Y-78630327D02*
X142692304Y-78582708D01*
X142692304Y-78582708D02*
X142597066Y-78582708D01*
X142597066Y-78582708D02*
X142454209Y-78630327D01*
X142454209Y-78630327D02*
X141882780Y-79201755D01*
X141882780Y-79201755D02*
X141882780Y-78582708D01*
X142930400Y-77439851D02*
X141644685Y-78296993D01*
X141882780Y-77106517D02*
X142882780Y-77106517D01*
X142882780Y-77106517D02*
X142882780Y-76868422D01*
X142882780Y-76868422D02*
X142835161Y-76725565D01*
X142835161Y-76725565D02*
X142739923Y-76630327D01*
X142739923Y-76630327D02*
X142644685Y-76582708D01*
X142644685Y-76582708D02*
X142454209Y-76535089D01*
X142454209Y-76535089D02*
X142311352Y-76535089D01*
X142311352Y-76535089D02*
X142120876Y-76582708D01*
X142120876Y-76582708D02*
X142025638Y-76630327D01*
X142025638Y-76630327D02*
X141930400Y-76725565D01*
X141930400Y-76725565D02*
X141882780Y-76868422D01*
X141882780Y-76868422D02*
X141882780Y-77106517D01*
X142787542Y-76154136D02*
X142835161Y-76106517D01*
X142835161Y-76106517D02*
X142882780Y-76011279D01*
X142882780Y-76011279D02*
X142882780Y-75773184D01*
X142882780Y-75773184D02*
X142835161Y-75677946D01*
X142835161Y-75677946D02*
X142787542Y-75630327D01*
X142787542Y-75630327D02*
X142692304Y-75582708D01*
X142692304Y-75582708D02*
X142597066Y-75582708D01*
X142597066Y-75582708D02*
X142454209Y-75630327D01*
X142454209Y-75630327D02*
X141882780Y-76201755D01*
X141882780Y-76201755D02*
X141882780Y-75582708D01*
X142882780Y-74725565D02*
X142882780Y-74916041D01*
X142882780Y-74916041D02*
X142835161Y-75011279D01*
X142835161Y-75011279D02*
X142787542Y-75058898D01*
X142787542Y-75058898D02*
X142644685Y-75154136D01*
X142644685Y-75154136D02*
X142454209Y-75201755D01*
X142454209Y-75201755D02*
X142073257Y-75201755D01*
X142073257Y-75201755D02*
X141978019Y-75154136D01*
X141978019Y-75154136D02*
X141930400Y-75106517D01*
X141930400Y-75106517D02*
X141882780Y-75011279D01*
X141882780Y-75011279D02*
X141882780Y-74820803D01*
X141882780Y-74820803D02*
X141930400Y-74725565D01*
X141930400Y-74725565D02*
X141978019Y-74677946D01*
X141978019Y-74677946D02*
X142073257Y-74630327D01*
X142073257Y-74630327D02*
X142311352Y-74630327D01*
X142311352Y-74630327D02*
X142406590Y-74677946D01*
X142406590Y-74677946D02*
X142454209Y-74725565D01*
X142454209Y-74725565D02*
X142501828Y-74820803D01*
X142501828Y-74820803D02*
X142501828Y-75011279D01*
X142501828Y-75011279D02*
X142454209Y-75106517D01*
X142454209Y-75106517D02*
X142406590Y-75154136D01*
X142406590Y-75154136D02*
X142311352Y-75201755D01*
X155585161Y-80106517D02*
X155632780Y-80201755D01*
X155632780Y-80201755D02*
X155632780Y-80344612D01*
X155632780Y-80344612D02*
X155585161Y-80487469D01*
X155585161Y-80487469D02*
X155489923Y-80582707D01*
X155489923Y-80582707D02*
X155394685Y-80630326D01*
X155394685Y-80630326D02*
X155204209Y-80677945D01*
X155204209Y-80677945D02*
X155061352Y-80677945D01*
X155061352Y-80677945D02*
X154870876Y-80630326D01*
X154870876Y-80630326D02*
X154775638Y-80582707D01*
X154775638Y-80582707D02*
X154680400Y-80487469D01*
X154680400Y-80487469D02*
X154632780Y-80344612D01*
X154632780Y-80344612D02*
X154632780Y-80249374D01*
X154632780Y-80249374D02*
X154680400Y-80106517D01*
X154680400Y-80106517D02*
X154728019Y-80058898D01*
X154728019Y-80058898D02*
X155061352Y-80058898D01*
X155061352Y-80058898D02*
X155061352Y-80249374D01*
X154632780Y-79630326D02*
X155632780Y-79630326D01*
X155632780Y-79630326D02*
X154632780Y-79058898D01*
X154632780Y-79058898D02*
X155632780Y-79058898D01*
X154632780Y-78582707D02*
X155632780Y-78582707D01*
X155632780Y-78582707D02*
X155632780Y-78344612D01*
X155632780Y-78344612D02*
X155585161Y-78201755D01*
X155585161Y-78201755D02*
X155489923Y-78106517D01*
X155489923Y-78106517D02*
X155394685Y-78058898D01*
X155394685Y-78058898D02*
X155204209Y-78011279D01*
X155204209Y-78011279D02*
X155061352Y-78011279D01*
X155061352Y-78011279D02*
X154870876Y-78058898D01*
X154870876Y-78058898D02*
X154775638Y-78106517D01*
X154775638Y-78106517D02*
X154680400Y-78201755D01*
X154680400Y-78201755D02*
X154632780Y-78344612D01*
X154632780Y-78344612D02*
X154632780Y-78582707D01*
X122156590Y-80630326D02*
X122156590Y-80296993D01*
X121632780Y-80154136D02*
X121632780Y-80630326D01*
X121632780Y-80630326D02*
X122632780Y-80630326D01*
X122632780Y-80630326D02*
X122632780Y-80154136D01*
X121632780Y-79725564D02*
X122632780Y-79725564D01*
X122632780Y-79725564D02*
X121632780Y-79154136D01*
X121632780Y-79154136D02*
X122632780Y-79154136D01*
X129132780Y-80880326D02*
X130132780Y-80880326D01*
X130132780Y-80880326D02*
X130132780Y-80642231D01*
X130132780Y-80642231D02*
X130085161Y-80499374D01*
X130085161Y-80499374D02*
X129989923Y-80404136D01*
X129989923Y-80404136D02*
X129894685Y-80356517D01*
X129894685Y-80356517D02*
X129704209Y-80308898D01*
X129704209Y-80308898D02*
X129561352Y-80308898D01*
X129561352Y-80308898D02*
X129370876Y-80356517D01*
X129370876Y-80356517D02*
X129275638Y-80404136D01*
X129275638Y-80404136D02*
X129180400Y-80499374D01*
X129180400Y-80499374D02*
X129132780Y-80642231D01*
X129132780Y-80642231D02*
X129132780Y-80880326D01*
X130132780Y-79975564D02*
X130132780Y-79356517D01*
X130132780Y-79356517D02*
X129751828Y-79689850D01*
X129751828Y-79689850D02*
X129751828Y-79546993D01*
X129751828Y-79546993D02*
X129704209Y-79451755D01*
X129704209Y-79451755D02*
X129656590Y-79404136D01*
X129656590Y-79404136D02*
X129561352Y-79356517D01*
X129561352Y-79356517D02*
X129323257Y-79356517D01*
X129323257Y-79356517D02*
X129228019Y-79404136D01*
X129228019Y-79404136D02*
X129180400Y-79451755D01*
X129180400Y-79451755D02*
X129132780Y-79546993D01*
X129132780Y-79546993D02*
X129132780Y-79832707D01*
X129132780Y-79832707D02*
X129180400Y-79927945D01*
X129180400Y-79927945D02*
X129228019Y-79975564D01*
X129799447Y-78499374D02*
X129132780Y-78499374D01*
X130180400Y-78737469D02*
X129466114Y-78975564D01*
X129466114Y-78975564D02*
X129466114Y-78356517D01*
X144632780Y-80630326D02*
X145632780Y-80630326D01*
X144632780Y-80154136D02*
X145632780Y-80154136D01*
X145632780Y-80154136D02*
X144632780Y-79582708D01*
X144632780Y-79582708D02*
X145632780Y-79582708D01*
X144632780Y-78582708D02*
X144632780Y-79154136D01*
X144632780Y-78868422D02*
X145632780Y-78868422D01*
X145632780Y-78868422D02*
X145489923Y-78963660D01*
X145489923Y-78963660D02*
X145394685Y-79058898D01*
X145394685Y-79058898D02*
X145347066Y-79154136D01*
X145680400Y-77439851D02*
X144394685Y-78296993D01*
X144632780Y-77106517D02*
X145632780Y-77106517D01*
X145632780Y-77106517D02*
X145632780Y-76868422D01*
X145632780Y-76868422D02*
X145585161Y-76725565D01*
X145585161Y-76725565D02*
X145489923Y-76630327D01*
X145489923Y-76630327D02*
X145394685Y-76582708D01*
X145394685Y-76582708D02*
X145204209Y-76535089D01*
X145204209Y-76535089D02*
X145061352Y-76535089D01*
X145061352Y-76535089D02*
X144870876Y-76582708D01*
X144870876Y-76582708D02*
X144775638Y-76630327D01*
X144775638Y-76630327D02*
X144680400Y-76725565D01*
X144680400Y-76725565D02*
X144632780Y-76868422D01*
X144632780Y-76868422D02*
X144632780Y-77106517D01*
X145537542Y-76154136D02*
X145585161Y-76106517D01*
X145585161Y-76106517D02*
X145632780Y-76011279D01*
X145632780Y-76011279D02*
X145632780Y-75773184D01*
X145632780Y-75773184D02*
X145585161Y-75677946D01*
X145585161Y-75677946D02*
X145537542Y-75630327D01*
X145537542Y-75630327D02*
X145442304Y-75582708D01*
X145442304Y-75582708D02*
X145347066Y-75582708D01*
X145347066Y-75582708D02*
X145204209Y-75630327D01*
X145204209Y-75630327D02*
X144632780Y-76201755D01*
X144632780Y-76201755D02*
X144632780Y-75582708D01*
X145632780Y-75249374D02*
X145632780Y-74582708D01*
X145632780Y-74582708D02*
X144632780Y-75011279D01*
X139435780Y-80630326D02*
X140435780Y-80630326D01*
X139435780Y-80154136D02*
X140435780Y-80154136D01*
X140435780Y-80154136D02*
X139435780Y-79582708D01*
X139435780Y-79582708D02*
X140435780Y-79582708D01*
X140435780Y-79201755D02*
X140435780Y-78582708D01*
X140435780Y-78582708D02*
X140054828Y-78916041D01*
X140054828Y-78916041D02*
X140054828Y-78773184D01*
X140054828Y-78773184D02*
X140007209Y-78677946D01*
X140007209Y-78677946D02*
X139959590Y-78630327D01*
X139959590Y-78630327D02*
X139864352Y-78582708D01*
X139864352Y-78582708D02*
X139626257Y-78582708D01*
X139626257Y-78582708D02*
X139531019Y-78630327D01*
X139531019Y-78630327D02*
X139483400Y-78677946D01*
X139483400Y-78677946D02*
X139435780Y-78773184D01*
X139435780Y-78773184D02*
X139435780Y-79058898D01*
X139435780Y-79058898D02*
X139483400Y-79154136D01*
X139483400Y-79154136D02*
X139531019Y-79201755D01*
X140483400Y-77439851D02*
X139197685Y-78296993D01*
X139435780Y-77106517D02*
X140435780Y-77106517D01*
X140435780Y-77106517D02*
X140435780Y-76868422D01*
X140435780Y-76868422D02*
X140388161Y-76725565D01*
X140388161Y-76725565D02*
X140292923Y-76630327D01*
X140292923Y-76630327D02*
X140197685Y-76582708D01*
X140197685Y-76582708D02*
X140007209Y-76535089D01*
X140007209Y-76535089D02*
X139864352Y-76535089D01*
X139864352Y-76535089D02*
X139673876Y-76582708D01*
X139673876Y-76582708D02*
X139578638Y-76630327D01*
X139578638Y-76630327D02*
X139483400Y-76725565D01*
X139483400Y-76725565D02*
X139435780Y-76868422D01*
X139435780Y-76868422D02*
X139435780Y-77106517D01*
X140340542Y-76154136D02*
X140388161Y-76106517D01*
X140388161Y-76106517D02*
X140435780Y-76011279D01*
X140435780Y-76011279D02*
X140435780Y-75773184D01*
X140435780Y-75773184D02*
X140388161Y-75677946D01*
X140388161Y-75677946D02*
X140340542Y-75630327D01*
X140340542Y-75630327D02*
X140245304Y-75582708D01*
X140245304Y-75582708D02*
X140150066Y-75582708D01*
X140150066Y-75582708D02*
X140007209Y-75630327D01*
X140007209Y-75630327D02*
X139435780Y-76201755D01*
X139435780Y-76201755D02*
X139435780Y-75582708D01*
X140435780Y-74677946D02*
X140435780Y-75154136D01*
X140435780Y-75154136D02*
X139959590Y-75201755D01*
X139959590Y-75201755D02*
X140007209Y-75154136D01*
X140007209Y-75154136D02*
X140054828Y-75058898D01*
X140054828Y-75058898D02*
X140054828Y-74820803D01*
X140054828Y-74820803D02*
X140007209Y-74725565D01*
X140007209Y-74725565D02*
X139959590Y-74677946D01*
X139959590Y-74677946D02*
X139864352Y-74630327D01*
X139864352Y-74630327D02*
X139626257Y-74630327D01*
X139626257Y-74630327D02*
X139531019Y-74677946D01*
X139531019Y-74677946D02*
X139483400Y-74725565D01*
X139483400Y-74725565D02*
X139435780Y-74820803D01*
X139435780Y-74820803D02*
X139435780Y-75058898D01*
X139435780Y-75058898D02*
X139483400Y-75154136D01*
X139483400Y-75154136D02*
X139531019Y-75201755D01*
X139435780Y-109130326D02*
X140435780Y-109130326D01*
X140435780Y-109130326D02*
X140435780Y-108892231D01*
X140435780Y-108892231D02*
X140388161Y-108749374D01*
X140388161Y-108749374D02*
X140292923Y-108654136D01*
X140292923Y-108654136D02*
X140197685Y-108606517D01*
X140197685Y-108606517D02*
X140007209Y-108558898D01*
X140007209Y-108558898D02*
X139864352Y-108558898D01*
X139864352Y-108558898D02*
X139673876Y-108606517D01*
X139673876Y-108606517D02*
X139578638Y-108654136D01*
X139578638Y-108654136D02*
X139483400Y-108749374D01*
X139483400Y-108749374D02*
X139435780Y-108892231D01*
X139435780Y-108892231D02*
X139435780Y-109130326D01*
X140435780Y-107654136D02*
X140435780Y-108130326D01*
X140435780Y-108130326D02*
X139959590Y-108177945D01*
X139959590Y-108177945D02*
X140007209Y-108130326D01*
X140007209Y-108130326D02*
X140054828Y-108035088D01*
X140054828Y-108035088D02*
X140054828Y-107796993D01*
X140054828Y-107796993D02*
X140007209Y-107701755D01*
X140007209Y-107701755D02*
X139959590Y-107654136D01*
X139959590Y-107654136D02*
X139864352Y-107606517D01*
X139864352Y-107606517D02*
X139626257Y-107606517D01*
X139626257Y-107606517D02*
X139531019Y-107654136D01*
X139531019Y-107654136D02*
X139483400Y-107701755D01*
X139483400Y-107701755D02*
X139435780Y-107796993D01*
X139435780Y-107796993D02*
X139435780Y-108035088D01*
X139435780Y-108035088D02*
X139483400Y-108130326D01*
X139483400Y-108130326D02*
X139531019Y-108177945D01*
X134382780Y-109380326D02*
X135382780Y-109380326D01*
X135382780Y-109380326D02*
X135382780Y-109142231D01*
X135382780Y-109142231D02*
X135335161Y-108999374D01*
X135335161Y-108999374D02*
X135239923Y-108904136D01*
X135239923Y-108904136D02*
X135144685Y-108856517D01*
X135144685Y-108856517D02*
X134954209Y-108808898D01*
X134954209Y-108808898D02*
X134811352Y-108808898D01*
X134811352Y-108808898D02*
X134620876Y-108856517D01*
X134620876Y-108856517D02*
X134525638Y-108904136D01*
X134525638Y-108904136D02*
X134430400Y-108999374D01*
X134430400Y-108999374D02*
X134382780Y-109142231D01*
X134382780Y-109142231D02*
X134382780Y-109380326D01*
X134382780Y-107856517D02*
X134382780Y-108427945D01*
X134382780Y-108142231D02*
X135382780Y-108142231D01*
X135382780Y-108142231D02*
X135239923Y-108237469D01*
X135239923Y-108237469D02*
X135144685Y-108332707D01*
X135144685Y-108332707D02*
X135097066Y-108427945D01*
X134382780Y-107380326D02*
X134382780Y-107189850D01*
X134382780Y-107189850D02*
X134430400Y-107094612D01*
X134430400Y-107094612D02*
X134478019Y-107046993D01*
X134478019Y-107046993D02*
X134620876Y-106951755D01*
X134620876Y-106951755D02*
X134811352Y-106904136D01*
X134811352Y-106904136D02*
X135192304Y-106904136D01*
X135192304Y-106904136D02*
X135287542Y-106951755D01*
X135287542Y-106951755D02*
X135335161Y-106999374D01*
X135335161Y-106999374D02*
X135382780Y-107094612D01*
X135382780Y-107094612D02*
X135382780Y-107285088D01*
X135382780Y-107285088D02*
X135335161Y-107380326D01*
X135335161Y-107380326D02*
X135287542Y-107427945D01*
X135287542Y-107427945D02*
X135192304Y-107475564D01*
X135192304Y-107475564D02*
X134954209Y-107475564D01*
X134954209Y-107475564D02*
X134858971Y-107427945D01*
X134858971Y-107427945D02*
X134811352Y-107380326D01*
X134811352Y-107380326D02*
X134763733Y-107285088D01*
X134763733Y-107285088D02*
X134763733Y-107094612D01*
X134763733Y-107094612D02*
X134811352Y-106999374D01*
X134811352Y-106999374D02*
X134858971Y-106951755D01*
X134858971Y-106951755D02*
X134954209Y-106904136D01*
X144632780Y-108808898D02*
X145108971Y-109142231D01*
X144632780Y-109380326D02*
X145632780Y-109380326D01*
X145632780Y-109380326D02*
X145632780Y-108999374D01*
X145632780Y-108999374D02*
X145585161Y-108904136D01*
X145585161Y-108904136D02*
X145537542Y-108856517D01*
X145537542Y-108856517D02*
X145442304Y-108808898D01*
X145442304Y-108808898D02*
X145299447Y-108808898D01*
X145299447Y-108808898D02*
X145204209Y-108856517D01*
X145204209Y-108856517D02*
X145156590Y-108904136D01*
X145156590Y-108904136D02*
X145108971Y-108999374D01*
X145108971Y-108999374D02*
X145108971Y-109380326D01*
X145632780Y-108475564D02*
X144632780Y-107808898D01*
X145632780Y-107808898D02*
X144632780Y-108475564D01*
X145537542Y-107475564D02*
X145585161Y-107427945D01*
X145585161Y-107427945D02*
X145632780Y-107332707D01*
X145632780Y-107332707D02*
X145632780Y-107094612D01*
X145632780Y-107094612D02*
X145585161Y-106999374D01*
X145585161Y-106999374D02*
X145537542Y-106951755D01*
X145537542Y-106951755D02*
X145442304Y-106904136D01*
X145442304Y-106904136D02*
X145347066Y-106904136D01*
X145347066Y-106904136D02*
X145204209Y-106951755D01*
X145204209Y-106951755D02*
X144632780Y-107523183D01*
X144632780Y-107523183D02*
X144632780Y-106904136D01*
X129132780Y-108808898D02*
X129608971Y-109142231D01*
X129132780Y-109380326D02*
X130132780Y-109380326D01*
X130132780Y-109380326D02*
X130132780Y-108999374D01*
X130132780Y-108999374D02*
X130085161Y-108904136D01*
X130085161Y-108904136D02*
X130037542Y-108856517D01*
X130037542Y-108856517D02*
X129942304Y-108808898D01*
X129942304Y-108808898D02*
X129799447Y-108808898D01*
X129799447Y-108808898D02*
X129704209Y-108856517D01*
X129704209Y-108856517D02*
X129656590Y-108904136D01*
X129656590Y-108904136D02*
X129608971Y-108999374D01*
X129608971Y-108999374D02*
X129608971Y-109380326D01*
X130132780Y-108475564D02*
X129132780Y-107808898D01*
X130132780Y-107808898D02*
X129132780Y-108475564D01*
X129132780Y-107427945D02*
X130132780Y-107427945D01*
X130132780Y-107427945D02*
X130132780Y-107189850D01*
X130132780Y-107189850D02*
X130085161Y-107046993D01*
X130085161Y-107046993D02*
X129989923Y-106951755D01*
X129989923Y-106951755D02*
X129894685Y-106904136D01*
X129894685Y-106904136D02*
X129704209Y-106856517D01*
X129704209Y-106856517D02*
X129561352Y-106856517D01*
X129561352Y-106856517D02*
X129370876Y-106904136D01*
X129370876Y-106904136D02*
X129275638Y-106951755D01*
X129275638Y-106951755D02*
X129180400Y-107046993D01*
X129180400Y-107046993D02*
X129132780Y-107189850D01*
X129132780Y-107189850D02*
X129132780Y-107427945D01*
X124132780Y-109380326D02*
X125132780Y-109380326D01*
X125132780Y-109380326D02*
X125132780Y-109142231D01*
X125132780Y-109142231D02*
X125085161Y-108999374D01*
X125085161Y-108999374D02*
X124989923Y-108904136D01*
X124989923Y-108904136D02*
X124894685Y-108856517D01*
X124894685Y-108856517D02*
X124704209Y-108808898D01*
X124704209Y-108808898D02*
X124561352Y-108808898D01*
X124561352Y-108808898D02*
X124370876Y-108856517D01*
X124370876Y-108856517D02*
X124275638Y-108904136D01*
X124275638Y-108904136D02*
X124180400Y-108999374D01*
X124180400Y-108999374D02*
X124132780Y-109142231D01*
X124132780Y-109142231D02*
X124132780Y-109380326D01*
X125037542Y-108427945D02*
X125085161Y-108380326D01*
X125085161Y-108380326D02*
X125132780Y-108285088D01*
X125132780Y-108285088D02*
X125132780Y-108046993D01*
X125132780Y-108046993D02*
X125085161Y-107951755D01*
X125085161Y-107951755D02*
X125037542Y-107904136D01*
X125037542Y-107904136D02*
X124942304Y-107856517D01*
X124942304Y-107856517D02*
X124847066Y-107856517D01*
X124847066Y-107856517D02*
X124704209Y-107904136D01*
X124704209Y-107904136D02*
X124132780Y-108475564D01*
X124132780Y-108475564D02*
X124132780Y-107856517D01*
X125037542Y-107475564D02*
X125085161Y-107427945D01*
X125085161Y-107427945D02*
X125132780Y-107332707D01*
X125132780Y-107332707D02*
X125132780Y-107094612D01*
X125132780Y-107094612D02*
X125085161Y-106999374D01*
X125085161Y-106999374D02*
X125037542Y-106951755D01*
X125037542Y-106951755D02*
X124942304Y-106904136D01*
X124942304Y-106904136D02*
X124847066Y-106904136D01*
X124847066Y-106904136D02*
X124704209Y-106951755D01*
X124704209Y-106951755D02*
X124132780Y-107523183D01*
X124132780Y-107523183D02*
X124132780Y-106904136D01*
X131632780Y-109130326D02*
X132632780Y-109130326D01*
X132632780Y-109130326D02*
X132632780Y-108892231D01*
X132632780Y-108892231D02*
X132585161Y-108749374D01*
X132585161Y-108749374D02*
X132489923Y-108654136D01*
X132489923Y-108654136D02*
X132394685Y-108606517D01*
X132394685Y-108606517D02*
X132204209Y-108558898D01*
X132204209Y-108558898D02*
X132061352Y-108558898D01*
X132061352Y-108558898D02*
X131870876Y-108606517D01*
X131870876Y-108606517D02*
X131775638Y-108654136D01*
X131775638Y-108654136D02*
X131680400Y-108749374D01*
X131680400Y-108749374D02*
X131632780Y-108892231D01*
X131632780Y-108892231D02*
X131632780Y-109130326D01*
X132537542Y-108177945D02*
X132585161Y-108130326D01*
X132585161Y-108130326D02*
X132632780Y-108035088D01*
X132632780Y-108035088D02*
X132632780Y-107796993D01*
X132632780Y-107796993D02*
X132585161Y-107701755D01*
X132585161Y-107701755D02*
X132537542Y-107654136D01*
X132537542Y-107654136D02*
X132442304Y-107606517D01*
X132442304Y-107606517D02*
X132347066Y-107606517D01*
X132347066Y-107606517D02*
X132204209Y-107654136D01*
X132204209Y-107654136D02*
X131632780Y-108225564D01*
X131632780Y-108225564D02*
X131632780Y-107606517D01*
X131632780Y-106654136D02*
X131632780Y-107225564D01*
X131632780Y-106939850D02*
X132632780Y-106939850D01*
X132632780Y-106939850D02*
X132489923Y-107035088D01*
X132489923Y-107035088D02*
X132394685Y-107130326D01*
X132394685Y-107130326D02*
X132347066Y-107225564D01*
X155585161Y-108856517D02*
X155632780Y-108951755D01*
X155632780Y-108951755D02*
X155632780Y-109094612D01*
X155632780Y-109094612D02*
X155585161Y-109237469D01*
X155585161Y-109237469D02*
X155489923Y-109332707D01*
X155489923Y-109332707D02*
X155394685Y-109380326D01*
X155394685Y-109380326D02*
X155204209Y-109427945D01*
X155204209Y-109427945D02*
X155061352Y-109427945D01*
X155061352Y-109427945D02*
X154870876Y-109380326D01*
X154870876Y-109380326D02*
X154775638Y-109332707D01*
X154775638Y-109332707D02*
X154680400Y-109237469D01*
X154680400Y-109237469D02*
X154632780Y-109094612D01*
X154632780Y-109094612D02*
X154632780Y-108999374D01*
X154632780Y-108999374D02*
X154680400Y-108856517D01*
X154680400Y-108856517D02*
X154728019Y-108808898D01*
X154728019Y-108808898D02*
X155061352Y-108808898D01*
X155061352Y-108808898D02*
X155061352Y-108999374D01*
X154632780Y-108380326D02*
X155632780Y-108380326D01*
X155632780Y-108380326D02*
X154632780Y-107808898D01*
X154632780Y-107808898D02*
X155632780Y-107808898D01*
X154632780Y-107332707D02*
X155632780Y-107332707D01*
X155632780Y-107332707D02*
X155632780Y-107094612D01*
X155632780Y-107094612D02*
X155585161Y-106951755D01*
X155585161Y-106951755D02*
X155489923Y-106856517D01*
X155489923Y-106856517D02*
X155394685Y-106808898D01*
X155394685Y-106808898D02*
X155204209Y-106761279D01*
X155204209Y-106761279D02*
X155061352Y-106761279D01*
X155061352Y-106761279D02*
X154870876Y-106808898D01*
X154870876Y-106808898D02*
X154775638Y-106856517D01*
X154775638Y-106856517D02*
X154680400Y-106951755D01*
X154680400Y-106951755D02*
X154632780Y-107094612D01*
X154632780Y-107094612D02*
X154632780Y-107332707D01*
X121632780Y-109380326D02*
X122632780Y-109380326D01*
X122632780Y-109380326D02*
X122632780Y-109142231D01*
X122632780Y-109142231D02*
X122585161Y-108999374D01*
X122585161Y-108999374D02*
X122489923Y-108904136D01*
X122489923Y-108904136D02*
X122394685Y-108856517D01*
X122394685Y-108856517D02*
X122204209Y-108808898D01*
X122204209Y-108808898D02*
X122061352Y-108808898D01*
X122061352Y-108808898D02*
X121870876Y-108856517D01*
X121870876Y-108856517D02*
X121775638Y-108904136D01*
X121775638Y-108904136D02*
X121680400Y-108999374D01*
X121680400Y-108999374D02*
X121632780Y-109142231D01*
X121632780Y-109142231D02*
X121632780Y-109380326D01*
X122537542Y-108427945D02*
X122585161Y-108380326D01*
X122585161Y-108380326D02*
X122632780Y-108285088D01*
X122632780Y-108285088D02*
X122632780Y-108046993D01*
X122632780Y-108046993D02*
X122585161Y-107951755D01*
X122585161Y-107951755D02*
X122537542Y-107904136D01*
X122537542Y-107904136D02*
X122442304Y-107856517D01*
X122442304Y-107856517D02*
X122347066Y-107856517D01*
X122347066Y-107856517D02*
X122204209Y-107904136D01*
X122204209Y-107904136D02*
X121632780Y-108475564D01*
X121632780Y-108475564D02*
X121632780Y-107856517D01*
X122632780Y-107523183D02*
X122632780Y-106904136D01*
X122632780Y-106904136D02*
X122251828Y-107237469D01*
X122251828Y-107237469D02*
X122251828Y-107094612D01*
X122251828Y-107094612D02*
X122204209Y-106999374D01*
X122204209Y-106999374D02*
X122156590Y-106951755D01*
X122156590Y-106951755D02*
X122061352Y-106904136D01*
X122061352Y-106904136D02*
X121823257Y-106904136D01*
X121823257Y-106904136D02*
X121728019Y-106951755D01*
X121728019Y-106951755D02*
X121680400Y-106999374D01*
X121680400Y-106999374D02*
X121632780Y-107094612D01*
X121632780Y-107094612D02*
X121632780Y-107380326D01*
X121632780Y-107380326D02*
X121680400Y-107475564D01*
X121680400Y-107475564D02*
X121728019Y-107523183D01*
X142882780Y-109273183D02*
X142882780Y-108701755D01*
X141882780Y-108987469D02*
X142882780Y-108987469D01*
X142882780Y-108463659D02*
X141882780Y-107796993D01*
X142882780Y-107796993D02*
X141882780Y-108463659D01*
X142787542Y-107463659D02*
X142835161Y-107416040D01*
X142835161Y-107416040D02*
X142882780Y-107320802D01*
X142882780Y-107320802D02*
X142882780Y-107082707D01*
X142882780Y-107082707D02*
X142835161Y-106987469D01*
X142835161Y-106987469D02*
X142787542Y-106939850D01*
X142787542Y-106939850D02*
X142692304Y-106892231D01*
X142692304Y-106892231D02*
X142597066Y-106892231D01*
X142597066Y-106892231D02*
X142454209Y-106939850D01*
X142454209Y-106939850D02*
X141882780Y-107511278D01*
X141882780Y-107511278D02*
X141882780Y-106892231D01*
X127632780Y-109273183D02*
X127632780Y-108701755D01*
X126632780Y-108987469D02*
X127632780Y-108987469D01*
X127632780Y-108463659D02*
X126632780Y-107796993D01*
X127632780Y-107796993D02*
X126632780Y-108463659D01*
X126632780Y-107416040D02*
X127632780Y-107416040D01*
X127632780Y-107416040D02*
X127632780Y-107177945D01*
X127632780Y-107177945D02*
X127585161Y-107035088D01*
X127585161Y-107035088D02*
X127489923Y-106939850D01*
X127489923Y-106939850D02*
X127394685Y-106892231D01*
X127394685Y-106892231D02*
X127204209Y-106844612D01*
X127204209Y-106844612D02*
X127061352Y-106844612D01*
X127061352Y-106844612D02*
X126870876Y-106892231D01*
X126870876Y-106892231D02*
X126775638Y-106939850D01*
X126775638Y-106939850D02*
X126680400Y-107035088D01*
X126680400Y-107035088D02*
X126632780Y-107177945D01*
X126632780Y-107177945D02*
X126632780Y-107416040D01*
X147132780Y-109130326D02*
X148132780Y-109130326D01*
X148132780Y-109130326D02*
X148132780Y-108892231D01*
X148132780Y-108892231D02*
X148085161Y-108749374D01*
X148085161Y-108749374D02*
X147989923Y-108654136D01*
X147989923Y-108654136D02*
X147894685Y-108606517D01*
X147894685Y-108606517D02*
X147704209Y-108558898D01*
X147704209Y-108558898D02*
X147561352Y-108558898D01*
X147561352Y-108558898D02*
X147370876Y-108606517D01*
X147370876Y-108606517D02*
X147275638Y-108654136D01*
X147275638Y-108654136D02*
X147180400Y-108749374D01*
X147180400Y-108749374D02*
X147132780Y-108892231D01*
X147132780Y-108892231D02*
X147132780Y-109130326D01*
X147799447Y-107701755D02*
X147132780Y-107701755D01*
X148180400Y-107939850D02*
X147466114Y-108177945D01*
X147466114Y-108177945D02*
X147466114Y-107558898D01*
X137132780Y-109380326D02*
X138132780Y-109380326D01*
X138132780Y-109380326D02*
X138132780Y-109142231D01*
X138132780Y-109142231D02*
X138085161Y-108999374D01*
X138085161Y-108999374D02*
X137989923Y-108904136D01*
X137989923Y-108904136D02*
X137894685Y-108856517D01*
X137894685Y-108856517D02*
X137704209Y-108808898D01*
X137704209Y-108808898D02*
X137561352Y-108808898D01*
X137561352Y-108808898D02*
X137370876Y-108856517D01*
X137370876Y-108856517D02*
X137275638Y-108904136D01*
X137275638Y-108904136D02*
X137180400Y-108999374D01*
X137180400Y-108999374D02*
X137132780Y-109142231D01*
X137132780Y-109142231D02*
X137132780Y-109380326D01*
X137132780Y-107856517D02*
X137132780Y-108427945D01*
X137132780Y-108142231D02*
X138132780Y-108142231D01*
X138132780Y-108142231D02*
X137989923Y-108237469D01*
X137989923Y-108237469D02*
X137894685Y-108332707D01*
X137894685Y-108332707D02*
X137847066Y-108427945D01*
X137704209Y-107285088D02*
X137751828Y-107380326D01*
X137751828Y-107380326D02*
X137799447Y-107427945D01*
X137799447Y-107427945D02*
X137894685Y-107475564D01*
X137894685Y-107475564D02*
X137942304Y-107475564D01*
X137942304Y-107475564D02*
X138037542Y-107427945D01*
X138037542Y-107427945D02*
X138085161Y-107380326D01*
X138085161Y-107380326D02*
X138132780Y-107285088D01*
X138132780Y-107285088D02*
X138132780Y-107094612D01*
X138132780Y-107094612D02*
X138085161Y-106999374D01*
X138085161Y-106999374D02*
X138037542Y-106951755D01*
X138037542Y-106951755D02*
X137942304Y-106904136D01*
X137942304Y-106904136D02*
X137894685Y-106904136D01*
X137894685Y-106904136D02*
X137799447Y-106951755D01*
X137799447Y-106951755D02*
X137751828Y-106999374D01*
X137751828Y-106999374D02*
X137704209Y-107094612D01*
X137704209Y-107094612D02*
X137704209Y-107285088D01*
X137704209Y-107285088D02*
X137656590Y-107380326D01*
X137656590Y-107380326D02*
X137608971Y-107427945D01*
X137608971Y-107427945D02*
X137513733Y-107475564D01*
X137513733Y-107475564D02*
X137323257Y-107475564D01*
X137323257Y-107475564D02*
X137228019Y-107427945D01*
X137228019Y-107427945D02*
X137180400Y-107380326D01*
X137180400Y-107380326D02*
X137132780Y-107285088D01*
X137132780Y-107285088D02*
X137132780Y-107094612D01*
X137132780Y-107094612D02*
X137180400Y-106999374D01*
X137180400Y-106999374D02*
X137228019Y-106951755D01*
X137228019Y-106951755D02*
X137323257Y-106904136D01*
X137323257Y-106904136D02*
X137513733Y-106904136D01*
X137513733Y-106904136D02*
X137608971Y-106951755D01*
X137608971Y-106951755D02*
X137656590Y-106999374D01*
X137656590Y-106999374D02*
X137704209Y-107094612D01*
X152132780Y-109380326D02*
X153132780Y-109380326D01*
X153132780Y-109380326D02*
X153132780Y-109142231D01*
X153132780Y-109142231D02*
X153085161Y-108999374D01*
X153085161Y-108999374D02*
X152989923Y-108904136D01*
X152989923Y-108904136D02*
X152894685Y-108856517D01*
X152894685Y-108856517D02*
X152704209Y-108808898D01*
X152704209Y-108808898D02*
X152561352Y-108808898D01*
X152561352Y-108808898D02*
X152370876Y-108856517D01*
X152370876Y-108856517D02*
X152275638Y-108904136D01*
X152275638Y-108904136D02*
X152180400Y-108999374D01*
X152180400Y-108999374D02*
X152132780Y-109142231D01*
X152132780Y-109142231D02*
X152132780Y-109380326D01*
X152132780Y-107856517D02*
X152132780Y-108427945D01*
X152132780Y-108142231D02*
X153132780Y-108142231D01*
X153132780Y-108142231D02*
X152989923Y-108237469D01*
X152989923Y-108237469D02*
X152894685Y-108332707D01*
X152894685Y-108332707D02*
X152847066Y-108427945D01*
X153132780Y-106951755D02*
X153132780Y-107427945D01*
X153132780Y-107427945D02*
X152656590Y-107475564D01*
X152656590Y-107475564D02*
X152704209Y-107427945D01*
X152704209Y-107427945D02*
X152751828Y-107332707D01*
X152751828Y-107332707D02*
X152751828Y-107094612D01*
X152751828Y-107094612D02*
X152704209Y-106999374D01*
X152704209Y-106999374D02*
X152656590Y-106951755D01*
X152656590Y-106951755D02*
X152561352Y-106904136D01*
X152561352Y-106904136D02*
X152323257Y-106904136D01*
X152323257Y-106904136D02*
X152228019Y-106951755D01*
X152228019Y-106951755D02*
X152180400Y-106999374D01*
X152180400Y-106999374D02*
X152132780Y-107094612D01*
X152132780Y-107094612D02*
X152132780Y-107332707D01*
X152132780Y-107332707D02*
X152180400Y-107427945D01*
X152180400Y-107427945D02*
X152228019Y-107475564D01*
X158382780Y-109225564D02*
X158382780Y-108606517D01*
X158382780Y-108606517D02*
X158001828Y-108939850D01*
X158001828Y-108939850D02*
X158001828Y-108796993D01*
X158001828Y-108796993D02*
X157954209Y-108701755D01*
X157954209Y-108701755D02*
X157906590Y-108654136D01*
X157906590Y-108654136D02*
X157811352Y-108606517D01*
X157811352Y-108606517D02*
X157573257Y-108606517D01*
X157573257Y-108606517D02*
X157478019Y-108654136D01*
X157478019Y-108654136D02*
X157430400Y-108701755D01*
X157430400Y-108701755D02*
X157382780Y-108796993D01*
X157382780Y-108796993D02*
X157382780Y-109082707D01*
X157382780Y-109082707D02*
X157430400Y-109177945D01*
X157430400Y-109177945D02*
X157478019Y-109225564D01*
X158382780Y-108320802D02*
X157382780Y-107987469D01*
X157382780Y-107987469D02*
X158382780Y-107654136D01*
X158382780Y-107416040D02*
X158382780Y-106796993D01*
X158382780Y-106796993D02*
X158001828Y-107130326D01*
X158001828Y-107130326D02*
X158001828Y-106987469D01*
X158001828Y-106987469D02*
X157954209Y-106892231D01*
X157954209Y-106892231D02*
X157906590Y-106844612D01*
X157906590Y-106844612D02*
X157811352Y-106796993D01*
X157811352Y-106796993D02*
X157573257Y-106796993D01*
X157573257Y-106796993D02*
X157478019Y-106844612D01*
X157478019Y-106844612D02*
X157430400Y-106892231D01*
X157430400Y-106892231D02*
X157382780Y-106987469D01*
X157382780Y-106987469D02*
X157382780Y-107273183D01*
X157382780Y-107273183D02*
X157430400Y-107368421D01*
X157430400Y-107368421D02*
X157478019Y-107416040D01*
X149632780Y-109130326D02*
X150632780Y-109130326D01*
X150632780Y-109130326D02*
X150632780Y-108892231D01*
X150632780Y-108892231D02*
X150585161Y-108749374D01*
X150585161Y-108749374D02*
X150489923Y-108654136D01*
X150489923Y-108654136D02*
X150394685Y-108606517D01*
X150394685Y-108606517D02*
X150204209Y-108558898D01*
X150204209Y-108558898D02*
X150061352Y-108558898D01*
X150061352Y-108558898D02*
X149870876Y-108606517D01*
X149870876Y-108606517D02*
X149775638Y-108654136D01*
X149775638Y-108654136D02*
X149680400Y-108749374D01*
X149680400Y-108749374D02*
X149632780Y-108892231D01*
X149632780Y-108892231D02*
X149632780Y-109130326D01*
X150537542Y-108177945D02*
X150585161Y-108130326D01*
X150585161Y-108130326D02*
X150632780Y-108035088D01*
X150632780Y-108035088D02*
X150632780Y-107796993D01*
X150632780Y-107796993D02*
X150585161Y-107701755D01*
X150585161Y-107701755D02*
X150537542Y-107654136D01*
X150537542Y-107654136D02*
X150442304Y-107606517D01*
X150442304Y-107606517D02*
X150347066Y-107606517D01*
X150347066Y-107606517D02*
X150204209Y-107654136D01*
X150204209Y-107654136D02*
X149632780Y-108225564D01*
X149632780Y-108225564D02*
X149632780Y-107606517D01*
M02*
